<?xml version="1.0" encoding="UTF-8"?>
<svg id="Layer_2" data-name="Layer 2" xmlns="http://www.w3.org/2000/svg" viewBox="0 0 960 560">
  <g id="lake">
    <rect x="-3321.67" y="-1282.8" width="7154.62" height="2547.81" style="fill: #6f9a85;"/>
    <g>
      <path d="M874.08,295.16c-119.26,7.11-526.17,5.22-674.88,5.27-252.21.09-533.63-1.7-787.37-3.07-218.45-1.19-485.43-12.41-639.54,8.63,42.86,2.94,69.79,6.53,107.77,9.27,100.22,3.51,239.3,4.35,344.98,5.6-39.14-3.97-57.66-8.56-107.6-11.87,216.81,1.44,414.35,3.21,627.22,5.52,144.17,1.54,627.98-.68,700.65-10.6,120.97,7.78,448.83,3.11,588.17.56,225.39-4.15,255.34-8.99,323.21-26.1-1.1-1.25-.94-3.47-2.61-5.62,92.09-3.18,214.4-2.29,309.57,1.32,6.36-1.5,12.57-2.97,18.61-4.48,140.71,3.32,264.41-3.53,387.11-2.93,170.02.84,270.58,11.77,419.83,14.96,67.54,27.28-379.95,16.84-544.15,26.7,14.26,1.35,33.47,2.47,49.12,3.94-45.08.08-43.62.84-80.64-.36-8.45.91-13.97,2-16.65,3.24,149.74,9.52,452-2.76,629.8-5.41,168.19-2.52,410.72,1.64,411.16-19.29,9.68-.66,33.91-.62,39.91-1.04-44.83-20.15-260.99-10.33-384.87-12.07-146.48-2.07-282.58-10.15-431.18-11.99-155.39-1.91-730.6-1.2-798.62-14.39-11.51-.4-23.04-.79-34.58-1.19,5.45-2.76-2.92-4.32-.87-7.1,27.2-1.28,61.02-2.95,83.25-4.03,161.49,1.86,375.09,9.49,559.26,8.45,95.45,3.54,223.61,3.56,320.02,2.56-92.19-9.19-242.07-4.19-359.47-6.06-117.85-1.86-240.42-7.68-374.51-9.85-212.35-3.43-538.95,6.11-765.5,3.31-80.37-20.48-478.69-4.6-654.18-3.96-216.56.77-587.64-2.07-700.67,18.7,131.29,3.45,217.91,12.01,324.3,20.02,23.12-2.27,38.43-1.93,61.45-5.12,22.8-3.17,404.51,9.3,455.06,11.29-75.39-11.35-267.13-9.7-218.49-20.66,59.2-13.35,319.07-7.98,422.58-5.72,202.56,4.43,771.44,21,393.36,43.58Z" style="fill: #92bca8;"/>
      <g>
        <path d="M-65.15,425.91c84.39-9.14,372.29-8.24,477.51-8.83,178.45-.99,377.56.22,557.08,1.02,154.56.7,343.44,13.52,452.51-12.82-30.32-3.45-49.37-7.77-76.24-10.99-70.91-3.95-169.31-4.51-244.08-5.67,27.68,4.74,40.78,10.3,76.11,14.19-153.4-1.01-293.16-2.49-443.77-4.58-102-1.39-444.32,3.03-495.75,15.45-85.58-9.12-202.69-12.19-296.25,11.17-100.78,25.17-300.58,2.12-348.62,23.35,238.28,7.38.66,4.25,1.84,6.88-65.16,4.23-151.7,3.56-219.03-.54-4.5,1.86-8.9,3.69-13.18,5.56-99.55-3.59-187.08,5.26-273.9,4.95-120.29-.43-191.43-13.49-297.02-16.88-47.74-33.23,268.85-21.99,385.04-34.66-10.09-1.6-23.68-2.91-34.75-4.67,31.9-.26,30.87-1.18,57.05.15,5.98-1.15,9.89-2.5,11.78-4.03-105.93-11.15-319.81,4.96-445.61,8.84-119.01,3.69-290.59-.57-290.94,25.1-6.85.84-23.99.88-28.24,1.42,31.68,24.56,184.64,11.75,272.29,13.45,103.64,2.03,199.92,11.46,305.05,13.2,109.94,1.8,516.92-1.09,565.03,14.86,8.14.45,16.3.89,24.47,1.34-3.86,3.4,2.06,5.28.61,8.71-19.25,1.66-43.18,3.83-58.91,5.23-114.26-1.71-265.38-10.33-395.68-8.41-67.53-4.01-158.2-3.58-226.42-2.02,65.21,10.95,171.26,4.3,254.33,6.18,83.38,1.87,170.09,8.59,264.96,10.77,150.24,3.46,184.72-35.34,345.01-32.7,56.83,24.84,535.29,29.93,659.46,28.54,153.22-1.7,415.77.49,495.78-25.39-92.89-3.77-154.16-13.97-229.42-23.42-16.36,2.86-27.2,2.5-43.49,6.49-16.13,3.96-286.19-9.99-321.95-12.26,53.32,13.66,188.99,10.96,154.56,24.58-41.9,16.59-225.76,10.9-299,8.49-143.31-4.72-545.79-23.06-278.25-52.09Z" style="fill: #92bca8;"/>
        <path d="M640.75,403.29c55.83-6.5,246.28-5.85,315.89-6.26,118.05-.7,249.76.17,368.52.74,102.25.5,227.18,9.63,299.35-9.11-20.05-2.46-32.65-5.53-50.42-7.82-46.9-2.81-112-3.21-161.46-4.04,18.31,3.37,26.97,7.33,50.34,10.1-101.48-.72-193.93-1.78-293.56-3.27-67.48-.99-293.93,2.14-327.96,10.98-56.6-6.49-210.07-1.61-275.29.96-105.5,4.17-119.53,8.47-151.33,23.58.51,1.09.43,3.02,1.21,4.9-43.11,3-100.35,2.53-144.89-.39-2.98,1.32-5.89,2.62-8.72,3.95-65.85-2.55-123.76,3.74-181.19,3.51-79.58-.31-126.62-9.61-196.47-12.02-31.56-23.64,177.87-15.63,254.74-24.64-6.67-1.14-15.66-2.07-22.98-3.32,21.1-.18,20.42-.84,37.74.11,3.96-.82,6.54-1.78,7.8-2.87-70.07-7.94-211.56,3.52-294.79,6.28-78.73,2.62-192.23-.42-192.48,17.85-4.53.6-15.87.63-18.68,1.01,20.94,17.47,122.14,8.37,180.12,9.58,68.56,1.45,132.24,8.16,201.79,9.4,72.73,1.29,341.95-.76,373.77,10.59,5.39.32,10.78.64,16.18.96-2.56,2.42,1.36,3.76.39,6.19-12.73,1.18-28.57,2.72-38.97,3.72-75.58-1.22-175.54-7.36-261.74-5.99-44.67-2.85-104.65-2.55-149.78-1.44,43.13,7.79,113.29,3.06,168.24,4.4,55.16,1.33,112.51,6.11,175.27,7.67,99.39,2.47,252.27-6.66,358.3-4.78,37.58,17.68,224.04,2.83,306.18,1.85,101.36-1.21,275.04.36,327.99-18.05-61.44-2.69-101.97-9.94-151.75-16.67-10.83,2.03-17.99,1.78-28.77,4.62-10.68,2.82-189.32-7.12-212.97-8.73,35.26,9.72,125.01,7.81,102.23,17.49-27.73,11.8-149.35,7.75-197.8,6.03-94.8-3.36-361.03-16.42-184.02-37.06Z" style="fill: #92bca8;"/>
        <path d="M1467.35,534c55.83-6.5,246.28-5.85,315.89-6.27,118.05-.7,249.76.17,368.52.74,102.25.5,227.18,9.63,299.36-9.11-20.05-2.46-32.65-5.53-50.42-7.82-46.9-2.81-112-3.21-161.46-4.04,18.31,3.37,26.97,7.33,50.34,10.1-101.48-.72-193.93-1.78-293.56-3.27-67.48-.99-293.93,2.14-327.96,10.98-56.6-6.49-210.07-1.61-275.29.96-105.5,4.17-119.53,8.47-151.33,23.58.51,1.09.43,3.02,1.21,4.9-43.11,3-100.36,2.53-144.89-.39-2.98,1.32-5.89,2.62-8.72,3.95-65.85-2.55-123.76,3.74-181.19,3.51-79.58-.31-126.62-9.61-196.47-12.02-31.56-23.64,177.87-15.63,254.74-24.64-6.67-1.14-15.66-2.07-22.98-3.32,21.1-.18,20.42-.84,37.74.11,3.96-.82,6.54-1.78,7.8-2.87-70.07-7.94-211.56,3.52-294.79,6.28-78.73,2.62-192.24-.42-192.48,17.85-4.53.6-15.87.63-18.68,1.01,20.94,17.47,122.14,8.37,180.12,9.58,68.56,1.45,132.24,8.16,201.79,9.4,72.73,1.29,341.95-.76,373.77,10.59,5.39.32,10.78.64,16.18.96-2.56,2.42,1.36,3.76.39,6.19-12.73,1.18-28.57,2.72-38.97,3.72-75.58-1.22-175.54-7.36-261.74-5.99-44.67-2.85-104.65-2.55-149.78-1.44,43.13,7.79,113.29,3.06,168.24,4.4,55.15,1.33,112.51,6.11,175.27,7.67,99.39,2.47,252.27-6.66,358.3-4.78,37.58,17.68,224.04,2.83,306.18,1.85,101.36-1.21,275.04.36,327.99-18.05-61.44-2.69-101.97-9.94-151.75-16.67-10.83,2.03-17.99,1.78-28.77,4.62-10.68,2.82-189.32-7.12-212.97-8.73,35.26,9.72,125.01,7.81,102.23,17.49-27.73,11.8-149.35,7.75-197.8,6.03-94.8-3.36-361.03-16.42-184.02-37.06Z" style="fill: #92bca8;"/>
      </g>
    </g>
  </g>
</svg>