<?xml version="1.0" encoding="UTF-8"?>
<svg id="Layer_2" data-name="Layer 2" xmlns="http://www.w3.org/2000/svg" viewBox="0 0 4741.31 407.83">
  <g id="birds">
    <g>
      <path d="M2248.16,340.38s-8.28-12.37-13.55-15.46c-7.75-4.56-22.68-5.34-22.68-5.34,0,0,16.2-6.31,26.41-1.1,10.2,5.15,13.72,10.17,13.72,10.17,0,0,3.22-2.39,11.29-3.57,8.06-1.18,21.24,5.38,21.24,5.38,0,0-17.69-1.5-21.58-.07-8.11,2.95-14.84,9.99-14.84,9.99Z" style="fill: #101b26;"/>
      <path d="M3226.51,89.71s-4.26-6.33-6.96-7.91c-3.96-2.34-11.6-2.74-11.6-2.74,0,0,8.3-3.25,13.5-.57,5.24,2.64,7.03,5.22,7.03,5.22,0,0,1.65-1.24,5.8-1.82,4.12-.6,10.85,2.73,10.85,2.73,0,0-9.05-.75-11.03-.03-4.15,1.52-7.59,5.12-7.59,5.12Z" style="fill: #101b26;"/>
      <path d="M4713.21,310.89s6.46-9.59,10.54-11.98c6-3.54,17.56-4.15,17.56-4.15,0,0-12.58-4.93-20.45-.86-7.93,3.99-10.65,7.9-10.65,7.9,0,0-2.49-1.88-8.78-2.76-6.23-.91-16.43,4.14-16.43,4.14,0,0,13.71-1.13,16.71-.04,6.29,2.31,11.5,7.76,11.5,7.76Z" style="fill: #101b26;"/>
      <path d="M1254.87,358.33s-4.26-6.33-6.96-7.91c-3.96-2.34-11.6-2.74-11.6-2.74,0,0,8.3-3.25,13.5-.57,5.24,2.64,7.03,5.22,7.03,5.22,0,0,1.64-1.24,5.8-1.82,4.12-.6,10.85,2.73,10.85,2.73,0,0-9.05-.75-11.03-.03-4.15,1.52-7.59,5.12-7.59,5.12Z" style="fill: #101b26;"/>
      <path d="M3970.86,358.32s-4.23-6.33-6.92-7.91c-3.97-2.37-11.6-2.74-11.6-2.74,0,0,8.26-3.23,13.46-.57,5.27,2.67,7.07,5.22,7.07,5.22,0,0,1.64-1.22,5.76-1.83,4.15-.62,10.85,2.77,10.85,2.77,0,0-9.01-.75-11-.06-4.19,1.52-7.63,5.12-7.63,5.12Z" style="fill: #101b26;"/>
      <path d="M554.81,328.4s-7.67-11.49-12.56-14.36c-7.2-4.3-21.05-4.98-21.05-4.98,0,0,15.01-5.86,24.45-1.04,9.58,4.84,12.84,9.48,12.84,9.48,0,0,2.99-2.21,10.46-3.33,7.54-1.12,19.69,5.02,19.69,5.02,0,0-16.37-1.36-19.97-.1-7.6,2.77-13.85,9.3-13.85,9.3Z" style="fill: #101b26;"/>
      <g>
        <path d="M3884.72,191.18s-24.95-8.11-35.76-7.06c-15.93,1.55-38.08,14.86-38.08,14.86,0,0,16.49-23.68,36.62-26.77,20.05-3.09,30.37,0,30.37,0,0,0,2.06-6.2,12.34-15.46,10.29-9.26,36.06-13.39,36.06-13.39,0,0-26.86,15.03-30.89,20.61-8.49,11.6-10.66,27.21-10.66,27.21Z" style="fill: #101b26;"/>
        <polyline points="3882.4 186.11 3890.07 186.79 3897.43 188.77 3887.86 182.94 3882.4 177.09" style="fill: #101b26;"/>
      </g>
      <g>
        <path d="M26.49,314.8s15.9-5.17,22.8-4.5c10.16.99,24.27,9.47,24.27,9.47,0,0-10.51-15.1-23.34-17.07-12.78-1.97-19.36,0-19.36,0,0,0-1.31-3.95-7.87-9.85-6.56-5.9-22.99-8.54-22.99-8.54,0,0,17.12,9.58,19.7,13.14,5.41,7.39,6.8,17.35,6.8,17.35Z" style="fill: #101b26;"/>
        <polyline points="27.97 311.57 23.08 312 18.38 313.26 24.49 309.55 27.97 305.82" style="fill: #101b26;"/>
      </g>
      <path d="M4168.45,388.72c-10.93-3.1-16.12-1.81-16.12-1.81,0,0-2.37-8.5-13.35-21.09-10.98-12.58-34.63-13.62-34.63-13.62,0,0,18.94,9.53,27.02,19.91,5.47,7.01,10.83,27.89,10.83,27.89,0,0,1.41-.63,3.7-1.42l1.67,3.21,1.85,5.98-.15-9.2.29-1.13c4.41-1.23,10.29-2.37,16.18-1.98,5.66.36,27.87,12.38,27.87,12.38,0,0-14.17-16.06-25.15-19.11Z" style="fill: #101b26;"/>
      <g>
        <path d="M1862.02,233.8s-18.39-18.17-28.37-22.02c-14.75-5.7-40.13-3.79-40.13-3.79,0,0,25.01-13.58,44.09-7.4,19.05,6.16,26.76,13.45,26.76,13.45,0,0,4.55-4.53,17.75-8.13,13.17-3.6,37.7,4.17,37.7,4.17,0,0-30.33,1.34-36.37,4.46-12.58,6.49-21.42,19.25-21.42,19.25Z" style="fill: #101b26;"/>
        <polyline points="1862.21 228.31 1868.68 232.3 1874.27 237.29 1868.42 227.93 1866.22 220.39" style="fill: #101b26;"/>
      </g>
      <g>
        <path d="M2809.91,44.26s8.52-21.71,15.62-28.1c10.46-9.43,33.32-15.07,33.32-15.07,0,0-27.31-4.96-41.35,6.15-14.04,11.11-17.74,19.89-17.74,19.89,0,0-5.8-2.77-18.73-2.18-12.94.59-31.03,14.71-31.03,14.71,0,0,26.83-7.57,33.38-6.55,13.6,2.2,26.52,11.15,26.52,11.15Z" style="fill: #101b26;"/>
        <polyline points="2807.49 39.36 2803.53 44.82 2800.73 51 2801.96 40.85 2800.79 33.39" style="fill: #101b26;"/>
      </g>
    </g>
  </g>
</svg>