<?xml version="1.0" encoding="UTF-8"?>
<svg xmlns="http://www.w3.org/2000/svg" xmlns:xlink="http://www.w3.org/1999/xlink" viewBox="0 0 696.64 259.9">
  <defs>
    <linearGradient id="linear-gradient" x1="4352.71" y1="81.33" x2="4228.04" y2="81.33" gradientTransform="translate(4349.8837) scale(-1 1)" gradientUnits="userSpaceOnUse">
      <stop offset="0" stop-color="#784871"/>
      <stop offset="1" stop-color="#592547"/>
    </linearGradient>
    <linearGradient id="linear-gradient-2" x1="3655.34" y1="89.6" x2="4299.42" y2="89.6" gradientTransform="translate(4349.8837) scale(-1 1)" gradientUnits="userSpaceOnUse">
      <stop offset="0" stop-color="#6e3d66"/>
      <stop offset="1" stop-color="#592547"/>
    </linearGradient>
  </defs>
  <g style="isolation: isolate;">
    <g id="Layer_2" data-name="Layer 2">
      <g id="boat">
        <g>
          <path d="M2.11,254.41v5.49l37.31-.5,17.36-48.07c16.71-1.28,83.71-5.79,201.44-5.79,137.27,0,339.56,34.65,339.56,34.65l98.86-19.75-12.93-26.8-.7-1.46-9.2-19.02-1.22-2.53-14.88-30.82-530.12-14.19h-28.03C51.81,162.89,20.72,206.34,2.1,254.41h0ZM32.13,252.26l-3.79.27.36-.03,1.06-.08,2.37-.17Z" style="fill: #784871; mix-blend-mode: multiply; opacity: .8;"/>
          <g style="mix-blend-mode: soft-light;">
            <path d="M512.19,154.38c29.98-4.68,60.32-5.38,90.81-6.02,15.2-.32,30.42-.67,45.56-1.88,7.93-.63,15.86-1.47,23.63-2.82,1.85-.32,3.73-.6,5.54-1.02,2.36-.55,3.85-.79,1.82-2.34-2.4-1.83-6.44-2.2-8.91-4.14-.75-.59-.31-1.89.97-1.79,3.39.28,6.38,1.5,9.45,2.57,2.39.84,5,1.66,5.32,3.86.65,4.45-7.93,5.44-11.96,6.15-17.24,3.05-34.68,4.83-52.33,5.77-36.21,1.92-72.92-.2-108.85,4.48-2.45.32-3.58-2.44-1.07-2.83Z" style="fill: #fff;"/>
            <path d="M259.61,162.68c35.68-1.51,71.38-1.96,107.09-2.75,35.07-.78,70.15-2.55,105.19-3.78.65-.02.77.7.16.84-16.32,3.59-33.93,3.06-50.78,3.35-17.86.31-35.69.29-53.55.87-36.04,1.18-72.03,2.72-108.1,3.18-1.48.02-1.48-1.65-.01-1.71Z" style="fill: #fff;"/>
            <path d="M73.01,160.97c5.96.63,11.69,1.86,17.73,2.26,5.58.37,11.2.41,16.8.45,12.06.09,24.11.38,36.18.37,24.13-.02,48.23-.82,72.36-.63.96,0,1.28,1.19.25,1.3-24.75,2.76-49.61,3.18-74.58,3.01-12.38-.08-24.77-.24-37.11-.92-10.33-.57-23.13-.76-32.01-5.15-.5-.25-.18-.76.38-.7Z" style="fill: #fff;"/>
            <path d="M62.94,153.79c.55-.56,1.19-1.06,1.89-1.52.42-.27.85-.59,1.35-.77.51-.19,1.03-.36,1.55-.51.87-.26,1.75-.48,2.68-.56.79-.07,1.59-.09,2.38-.06.76.02,1.4.4,1.5.97.11.6-.37,1.04-1.08,1.26-.06.02-.07.02-.08.03-.05.02-.1.03-.15.05-.16.06-.32.11-.47.17-.33.13-.66.26-.98.41-.64.29-1.32.51-1.95.81-.31.15-.61.3-.9.46-.3.16-.62.28-.94.41-.67.28-1.28.63-1.92.95-.74.37-1.92.26-2.53-.22-.25-.2-.43-.43-.54-.68-.15-.33-.09-.91.2-1.2Z" style="fill: #fff;"/>
            <path d="M639.31,160.46c1,.01,1.95-.12,2.96-.06,1.15.07,2.22.15,3.39.06,2.61-.19,5.18-.76,7.74-1.16,5.74-.89,11.59-1.48,17.38-2.2,1.49-.19,2.19,1.41.66,1.73-6.31,1.35-12.6,2.83-18.99,3.96-4.19.74-12.17,2.82-13.98-1.48-.17-.4.28-.86.85-.85Z" style="fill: #fff;"/>
            <path d="M423.63,171.8c9.9-.39,19.72.2,29.62.28,10.36.09,20.34-1,30.6-1.86,20.58-1.73,41.32-4.04,61.74-6.64,1.49-.19,2.19,1.44.66,1.73-10.37,2-20.64,4.42-31.16,5.9-9.98,1.41-20.09,2.22-30.21,2.73-10.48.53-21.09.15-31.6.33-10.06.17-19.96.21-29.85-1.25-.94-.14-.69-1.18.21-1.21Z" style="fill: #fff;"/>
            <path d="M221.43,178.17c4.37-.93,8.78-.88,13.28-.97,4.7-.09,9.4-.1,14.1-.08,9.43.05,18.8.41,28.21.81,1.14.05,1.16,1.27.01,1.33-9.41.51-18.76.97-28.19,1.12-4.7.07-9.4.11-14.1.07-4.51-.03-8.91.06-13.29-.82-.96-.19-.98-1.26-.01-1.46Z" style="fill: #fff;"/>
            <path d="M5.43,162.62c3.52-2.87,7.6-5.45,12.52-6.86,3.67-1.05,10.42-2.64,13.95-.89.74.36.75,1.1.01,1.47-1.48.76-2.64.73-4.4.95-2.55.32-4.94.9-7.31,1.67-3.45,1.12-6.62,2.47-9.41,4.28,12.45,3.98,26.42,4.82,39.77,5.7,7.4.49,14.8.97,22.19,1.49,7.54.53,15.18.77,22.55,2.09,1.51.27,1.13,1.89-.34,1.96-7.95.38-15.97-.43-23.89-.89-8.17-.47-16.33-.99-24.5-1.51-14.11-.9-27.85-2.23-40.69-6.93-1.29-.47-1.34-1.81-.46-2.53Z" style="fill: #fff;"/>
          </g>
          <g>
            <path d="M0,6.39c18.61,55.93,49.71,106.49,97.47,149.88h28.03L50.46,56.13l-13.15-46.64-9.66-.79-1.06-.09-10.08-.85-1.82-.15L0,6.39Z" style="fill: url(#linear-gradient);"/>
            <path d="M50.46,56.13c2.85,10.14,7.2,20.16,12.87,30.06.82,1.46,1.67,2.88,2.55,4.34,5.43,8.9,11.93,17.67,19.37,26.36,1.12,1.34,2.28,2.67,3.49,4.01,10.6,11.93,22.95,23.74,36.74,35.37l530.12-16.52,14.88-35.86,1.21-2.95,9.2-22.13.7-1.7,12.93-31.18-98.86-22.99s-202.28,40.32-339.56,40.32-205.65-7.14-205.65-7.14Z" style="fill: url(#linear-gradient-2);"/>
            <path d="M50.46,56.13s61.97,33.49,224.39,44.09c154.25,10.05,419.69-54.29,419.69-54.29l-98.86-22.99s-202.28,40.32-339.56,40.32-205.65-7.14-205.65-7.14Z" style="fill: #784871;"/>
            <path d="M594.91,29l75.32,17.32s-246.86,47.68-372.29,47.68S77.94,61.5,77.94,61.5c0,0,102.33,6.92,206.6,6.92s310.37-39.41,310.37-39.41Z" style="fill: #1a284d; opacity: .6;"/>
            <polygon points="528.36 54.85 556.78 66.12 517.99 72.16 496.19 59.89 528.36 54.85" style="fill: #4e0f2a; opacity: .6;"/>
            <polygon points="361.55 80.3 328.99 82.89 331.57 93.06 368.69 90.5 361.55 80.3" style="fill: #4e0f2a; opacity: .6;"/>
            <polygon points="37.32 9.5 37.32 .58 0 0 0 6.4 37.32 9.5" style="fill: #965a8e;"/>
            <polygon points="37.32 .58 54.67 56.52 54.67 58.15 50.46 56.13 37.32 9.5 37.32 .58" style="fill: #965a8e;"/>
            <polygon points="372.44 112.94 372.44 113.63 410.15 111.42 446.32 108.75 575.57 98.15 635.79 90.07 665.09 83.33 680.91 78.81 681.6 77.11 661.84 82.3 627.83 88.07 501.31 102.04 437.27 107.78 405.63 110.05 372.44 112.94" style="fill: #4e0f2a; opacity: .6;"/>
            <polygon points="336.55 114 309.56 115.18 336.76 114.79 336.55 114" style="fill: #4e0f2a; opacity: .6;"/>
            <polygon points="309.56 115.18 259.12 115.91 272.18 116.82 309.56 115.18" style="fill: #4e0f2a; opacity: .6;"/>
            <path d="M63.34,86.19c.82,1.46,1.67,2.88,2.55,4.34l50.71,14.7,107.15,11.2,35.37-.52-96.01-6.68-99.78-23.05Z" style="fill: #4e0f2a; opacity: .6;"/>
            <polygon points="507.23 122.93 507.23 124.63 548.19 123.65 584.26 121.53 618.66 118.61 653.43 110.3 670.49 103.89 671.71 100.94 647.02 107.81 613.04 113.7 577.34 119.13 507.23 122.93" style="fill: #4e0f2a; opacity: .6;"/>
            <polygon points="274.21 127.17 315.03 126.75 355.09 126.66 394.98 125.69 434.46 123.29 434.59 124.27 355.85 127.18 315.03 127.72 274.21 127.93 274.21 127.17 274.21 127.17" style="fill: #4e0f2a; opacity: .6;"/>
            <path d="M85.26,116.88c1.12,1.34,2.28,2.67,3.49,4.01l4.34.85,19.1,2.88,37.38,4.31,78.64,2.43v-.82l-39.38-1.94-38.53-3.07-40.08-4.8-19.1-2.95-5.86-.91Z" style="fill: #4e0f2a; opacity: .6;"/>
            <polygon points="14.7 7.6 23.35 35.6 36.16 66.45 74.33 128.39 75.88 127.48 38.14 66.05 25.38 32.9 16.52 7.76 14.7 7.6" style="fill: #4e0f2a; opacity: .6;"/>
            <polygon points="26.6 8.61 40.29 60.89 41.72 60.5 27.66 8.7 26.6 8.61" style="fill: #4e0f2a; opacity: .6;"/>
          </g>
        </g>
      </g>
    </g>
  </g>
</svg>