<?xml version="1.0" encoding="UTF-8"?>
<svg id="Layer_1" data-name="Layer 1" xmlns="http://www.w3.org/2000/svg" viewBox="0 0 2880 1800">
  <defs>
    <style>
      .cls-1 {
        fill: #d6dce4;
      }

      .cls-2 {
        fill: #1a3454;
      }
    </style>
  </defs>
  <rect class="cls-2" x="1064.81" y="212.64" width="744.31" height="925.89"/>
  <g>
    <g>
      <path class="cls-1" d="M1135.94,1183.08c118.08,0,118.08,179.82,0,179.82h-60.71v-179.82h60.71ZM1135.94,1359.04c112.93,0,112.93-172.1,0-172.1h-56.85v172.1h56.85Z"/>
      <path class="cls-1" d="M1343.78,1302.45h-91.07l-24.44,60.45h-4.37l72.29-182.65h4.38l72.29,182.65h-4.37l-24.7-60.45ZM1254.51,1298.59h87.73l-43.99-112.94-43.73,112.94Z"/>
      <path class="cls-1" d="M1496.83,1208.55c4.12,10.8,4.12,23.66,0,34.73-3.86,9.78-10.81,18.01-21.09,22.38,52.74,9.26,49.65,97.24-9.52,97.24h-80v-179.82h72.8c19.55,0,32.16,11.06,37.82,25.47ZM1390.32,1264.63h68.69c17.75,0,29.07-10.03,34.22-22.9,3.86-10.03,3.86-21.61,0-31.64-5.15-12.86-16.46-22.89-34.22-22.89h-68.69v77.43ZM1390.32,1359.04h75.89c57.37,0,57.37-90.3,0-90.3h-75.89v90.3Z"/>
      <path class="cls-1" d="M1637.01,1302.45h-91.07l-24.44,60.45h-4.37l72.29-182.65h4.38l72.29,182.65h-4.37l-24.7-60.45ZM1547.74,1298.59h87.73l-43.99-112.94-43.73,112.94Z"/>
      <path class="cls-1" d="M1789.28,1220.64c-1.54-7.46-4.63-13.89-9.77-19.55-11.06-11.83-28.82-16.72-45.02-16.46-16.98.26-36.28,6.43-47.08,20.58-6.43,7.98-8.75,17.49-7.98,27.53,4.63,63.03,105.73,13.63,118.08,71.26,8.23,38.08-28.04,60.71-62.26,60.71-26.24,0-58.14-14.92-61.23-43.99l-.25-1.8,4.11-.52.26,1.8c2.83,27.01,32.93,40.65,57.37,40.65,31.39,0,65.34-20.32,57.88-56.08-11.58-53.51-113.19-4.63-117.82-71.77-1.03-10.8,1.8-21.35,8.49-30.1,26.24-33.95,100.33-29.58,109.07,16.98l.26,2.06-3.86.77-.26-2.06Z"/>
    </g>
    <g>
      <path class="cls-1" d="M1188.15,1415.02c4.55,11.93,4.55,26.14,0,38.36-4.26,10.8-11.94,19.89-23.3,24.72,58.25,10.23,54.84,107.41-10.51,107.41h-88.37v-198.62h80.41c21.6,0,35.52,12.22,41.77,28.13ZM1070.51,1476.96h75.87c19.61,0,32.11-11.08,37.79-25.29,4.26-11.08,4.26-23.87,0-34.95-5.68-14.21-18.19-25.29-37.79-25.29h-75.87v85.53ZM1070.51,1581.24h83.83c63.37,0,63.37-99.74,0-99.74h-83.83v99.74Z"/>
      <path class="cls-1" d="M1230.18,1581.24h105.7v4.26h-110.25v-198.62h109.68v4.26h-105.14v92.63h102.86v4.55h-102.86v92.92Z"/>
      <path class="cls-1" d="M1360.87,1585.51h-4.26v-198.91h68.76c79.56,0,79.56,116.22,0,116.22h-32.11l91.5,82.68h-6.54l-91.5-82.68v-4.26h38.65c73.88,0,73.88-107.41,0-107.41h-64.5v194.36Z"/>
      <path class="cls-1" d="M1506.34,1585.51v-199.19l3.98.29,132.13,190.95v-190.95h4.26v198.91h-4.54l-131.28-189.81v189.81h-4.54Z"/>
      <path class="cls-1" d="M1797.57,1428.37c-1.7-8.24-5.11-15.35-10.79-21.6-12.22-13.07-31.83-18.47-49.73-18.19-18.75.29-40.07,7.11-52,22.73-7.11,8.81-9.66,19.32-8.81,30.41,5.11,69.62,116.79,15.06,130.43,78.71,9.09,42.06-30.97,67.06-68.77,67.06-28.98,0-64.22-16.48-67.63-48.59l-.28-1.99,4.54-.57.29,1.99c3.13,29.84,36.37,44.9,63.37,44.9,34.67,0,72.17-22.45,63.93-61.94-12.79-59.1-125.03-5.11-130.14-79.28-1.14-11.93,1.99-23.58,9.38-33.25,28.98-37.5,110.82-32.68,120.48,18.76l.29,2.27-4.26.85-.29-2.27Z"/>
    </g>
  </g>
  <path fill="#d6dce4" d="M1556.47,921.56c-2.86,2.08-6.03,4.38-8.59,6.24-4.68-3.89-8.65-7.27-12.71-10.54-3.95-3.19-7.99-6.28-13.32-10.45.68,4.68,1.16,8,1.5,10.34-5.21-.35-9.44-.64-14.29-.96,1.73-1.45,3.62-3.51,5.93-4.83,2.72-1.55,4.25-3.32,1.25-5.41-11.93-8.33-11.79-20.58-11.51-33.11.06-2.92-1.29-5.86-1.99-8.8-.71-.43-1.41-.86-2.12-1.29,3.1-1.98,6.04-5.21,9.34-5.62,4.18-.52,6.95,2.44,8.53,7.15,1.11,3.33,4.86,5.9,7.71,8.49,7.25,6.58,12.56,14.3,16.52,23.34,3.8,8.67,8.97,16.75,13.74,25.46Z"/>
  <path fill="#d6dce4" d="M1612.31,811.25c-2.86,2.08-2.53,1.56-5.09,3.42-4.68-3.89-8.65-7.27-12.71-10.54-3.95-3.19-11.5-3.46-16.82-7.63.68,4.68,1.16,8,1.5,10.34-5.21-.35-9.44-.64-14.29-.96,1.73-1.45,3.62-3.51,5.93-4.83,2.72-1.55,4.25-3.32,1.25-5.41-11.93-8.33-8.56-20.57-8.29-33.09.06-2.92-4.51-5.88-5.21-8.81-.71-.43-1.41-.86-2.12-1.29,3.1-1.98,6.04-5.21,9.34-5.62,4.18-.52,6.95,2.44,8.53,7.15,1.11,3.33,4.86,5.9,7.71,8.49,7.25,6.58,12.56,14.3,16.52,23.34,3.8,8.67,8.97,16.75,13.74,25.46Z"/>
  <path fill="#d6dce4" d="M1352.11,864.12c2.86,2.08,6.03,4.38,8.59,6.24,4.68-3.89,8.65-7.27,12.71-10.54,3.95-3.19,7.99-6.28,13.32-10.45-.68,4.68-1.16,8-1.5,10.34,5.21-.35,9.44-.64,14.29-.96-1.73-1.45-3.62-3.51-5.93-4.83-2.72-1.55-4.25-3.32-1.25-5.41,11.93-8.33,11.79-20.58,11.51-33.11-.06-2.92,1.29-5.86,1.99-8.8.71-.43,1.41-.86,2.12-1.29-3.1-1.98-6.04-5.21-9.34-5.62-4.18-.52-6.95,2.44-8.53,7.15-1.11,3.33-4.86,5.9-7.71,8.49-7.25,6.58-12.56,14.3-16.52,23.34-3.8,8.67-8.97,16.75-13.74,25.46Z"/>
  <path class="cls-1" d="M1939.76,860.43c-14.46-.69-19.87-5.83-15.04-18.9-8.95,1.81-16.92,3.43-25.36,5.14,2.53-3.08,6.05-14.73,9.9-30.57-6.98,4.82-13.65,9.42-20.49,14.13-8.35-4.7-15.81-8.28-22.45-13.01-2-1.43-2.98-8.49-2.31-8.83,7.06-3.62,14.67-9.08,21.88-8.74,7.73.37,15.35,3.98,25.38,7.85,11.4-49.71,24.57-128.39,23.56-130.69-7.63-17.18-66.85-106.03-74.63-103.79,4.8,8.44,9.59,16.88,14.39,25.31-1.25,1.45-2.5,2.89-3.74,4.34-7.04-5.36-14.07-10.73-26.61-20.29,5.84-3.45,11.09-6.55,16.35-9.67-11.52,3.06-23.04,6.14-36.04,9.61-2.22-3.41-5.17-7.96-8.57-13.19,4.73-1.07,7.29-1.66,10.14-2.3-4.21-3.96-8.1-7.62-10.44-9.81,3.87-7.61,10.37-16.29,8.84-18.07-8.83-10.27-19.56-18.9-28.86-27.37,1.68-.12,7.32-.54,12.97-.95.94-1.59,1.88-3.18,2.83-4.76-15.47-11.57-30.94-23.13-46.41-34.7,21.31-.39,18.62-13.27,19.33-24.36-6.78,1.39-14.71.64-17.72,4.14-6.18,7.16-9.73,16.6-15.52,27.25-15.31-16.45-28.35-30.46-40.62-43.64-21.04,13.27,11.64,20.18,6.07,33.35-11.93-5.43-22.89-10.42-30.42-13.85,4.07-5.24,9.03-11.63,14.62-18.84-24.39-2.3-45.45-4.29-67.26-6.35-.33-6.97,2.44-18.39-2.04-24.49-5.2-7.08-16.76-9.49-23.13-12.7-16.13,6.03-30.94,11.56-47.19,17.64-1.94-4.41-4.64-10.55-8.32-18.91,8.79.42,15.05.72,22.7,1.09,1.41-4.39,3.12-9.71,5.29-16.46-24.32,8.92-34.96.55-35.64-22.47-3.19.89-6.31,1.75-11.8,3.28,2.84-5.3,4.54-8.47,6.98-13.03-10,3.56-18.64,6.64-28.65,10.2,9.5,4.06,22.58,5.3,14.25,21.55-3.95-18.22-33.65-8.59-33.91-32.57-4.91-.29-11.35-.67-22.29-1.31,8.02,5.95,12.66,9.39,17.5,12.98-15.55,3.85-30.65,7.59-45.2,11.19,2,8.67,2.92,12.61,3.83,16.55-3.55.79-7.11,1.57-11.53,2.55-1.01-12.12-1.86-22.29-2.81-33.73-6.38,6.92-12.19,13.22-18.84,20.44-10.97-5.26-21.76-10.43-34.97-16.77-18.92,11.21-39.59,13.52-56.73-14.84,4.98-2.25,10.96-4.12,15.97-7.45,5.05-3.35,9.15-8.14,14.71-13.26.27.07,2.94.75,5.62,1.44,1.53-1.95,3.05-3.9,4.58-5.85-4.65-3.75-9.3-7.49-10.75-8.66-15.6,8.55-26.29,14.41-39.44,21.62,1.53-6.41,2.37-9.96,3.22-13.51-2.04-.4-4.07-.8-6.11-1.2-1.81,13.18-3.62,26.37-5.43,39.55-1.45-.06-2.89-.12-4.34-.19-.43-5.65-.86-11.29-1.23-16.18-7.47-1.19-14.75-2.35-25-3.99,1.9,6.98,4.16,12.12,4.42,17.36.19,3.77-1.3,10.1-3.76,11.12-14.18,5.86-28.87,10.47-43.63,15.6-4.16-4.49-8.84-9.54-15.4-16.62-3.32,8.06-5.85,14.21-9.59,23.28-5.74-2.1-13.25-3.21-18.55-7.24-5.13-3.9-7.97-10.8-10.47-14.42-3.6,5.51-7.46,11.42-10.36,15.85-5.64-13.27-10.31-24.26-14.97-35.22-1.82,14.58-8.85,23.13-24.92,21.21,1.89,10.4-6.1,23.8,7.44,29.57,7.53-3.93,13.82-7.21,20.12-10.5.61,1.26,1.22,2.52,1.83,3.77-3.61,4.32-6.42,10.5-11.04,12.48-5.14,2.21-12.05,1.39-17.95.4-4.51-.76-8.64-3.82-12.93-5.86-1.13,1.19-2.25,2.39-3.38,3.58-4.37-12.43-8.74-24.85-13.1-37.28-12.27-9.16-24.55-18.32-36.82-27.48,2.35-.58,4.69-1.17,7.04-1.75,1.92-10.83,3.84-21.66,5.76-32.49-1.61-1.24-3.23-2.47-4.84-3.71l-14.27,8.87c11.99,15.01-6.04,23.65-7.93,37.95,5.61-.5,10.46-.94,15.33-1.38,1.1,6.33,2.14,12.3,3.51,20.25-10.02-3.94-18.39-7.24-26.72-10.51v33.34c-2.63-1.17-17.46,48.86-20.16,47.66-2.11-.94-10.12-.29-18.35.27-8.22.56-16.65,39.75-19.58,38.44l-6.08,74.64c.99,1.16,53.03,25.32,54.02,26.47-3.87,7.02-7.74,14.05-13.43,24.39,9.65-1.42,17.48-2.57,28.7-4.23.64-.79,3.52-4.36,6.52-8.07,4.54,2.67,11.09,5.52,15.49,8.02v.09c2.83,1.6,4.77,3.07,4.7,4.23-.24,1.65-.31,3.06-.25,4.27.53,11.63,13.5,4.36,13.82,3.82,9.79-16.36,24.08-11.31,38.15-9.28,6.6.95,11.03,2.51,13.45,5.19,3.06,3.49,2.77,8.87-.54,17.28.05-.01.09-.02.14-.04-.02.05-.04.1-.06.15,6.59-1.7,12.44-3.21,17.07-4.41-1.82-4.66-5.16-9.38-4-11.16,1.78-2.73,6.58-3.49,10.75-5.34v14.13s.07,0,.11,0v.1c8.38,0,17.28,2.79,21.47-.47,9.23-7.19,14.46-8.61,17.5-6.63,3.86,2.72,4.08,11.14,4.66,20.08.25,3.94,5.23,7.58,8.03,11.36.01-.01.03-.02.04-.04.04.06.09.11.13.17,1.18-1.03,2.35-2.06,3.53-3.1-1.5-5.39-3-10.78-5.39-19.34,21.61,2.36,40.65,4.45,63.97,7-12.4,18.41-31.26,39.07-28.35,42.59,2.9,3.51,17.1-5.62,24.91-6.28,9.96-.84,17.79,1.58,24.45,5.76,4.78,3.05-14.75,4.51-10.8,8.82,6.6,7.19,36.26,17.85,43.23,24.39,1.7,1.59-8.84,22.22-6.58,23.23,2.36,1.06,4.32,2.2,5.93,3.42,8.67,6.79-8.62,52.84-11.53,56.16-1.46,1.66-2.92,3.32-4.38,4.97.27-2.19.4-4.4.12-6.69-.85-6.95,2.96-14.48,2.08-21.43-.8-6.29-2.73-12.23-7.7-16.67-2.54-2.27-3.15-3.67-5.06-7.49.74-7.44,4.63-9.03,4.21-13.31-.18-1.79-.16-3.63-.54-5.38-.8-3.65-1.14-7.49-3.88-10.46-1.54-1.67-5.97-5.95-8.18-6.64-2.2-.68-4.49-1.38-6.76-1.45-8.88-.28-16.74,2.49-23.43,8.45-3.39,3.02-4.1,4.72-3.48,9.66.21,1.67,2.38,4.65,2.51,5.15.53,2.02,1.18,4.14,1.02,6.16-.15,1.81-.03,3.44-.77,5.26.92.61.99,1.11,1.44,1.98.96,1.86,1.62,3.93,2.12,5.98.74,3.03,1.94,3.84,4.96,2.89.65-.2,1.25-.59,1.9-.69.89-.13,2.24-.43,2.62,0,.47.54.25,1.78.15,2.7-.07.65-.27,1.41-.67,1.89-2.15,2.56-6.87,7.72-12.31,10.1-4.99,2.18-14.78,2.19-15.78,1.72-1.03-.48-2.01-1.05-3.03-1.53-4.09-1.91-8.21-2.34-12.44-.32-1.35.65-2.8,1.4-4.24,1.47-4.13.2-8.28-.03-12.41.1-4.86.15-7.76-2.04-9.58-6.56-.83-2.06-2.99-3.59-4.51-5.38-1.09-1.28-2.12-2.6-3.19-3.89-.58-.7-1.18-1.38-1.78-2.06-.46.63-1.03,1.21-1.36,1.9-.6,1.25-1.05,2.75-2.84,2.23-1.22-.35-2,.03-2.65.63-5.95-4.84-12-9.56-18.27-14.04-16.3-11.64-41.67-25.96-52.43-28.51-1.28-.3-5.89-1.11-8.66-1.38-2.89-.28-3.96-.03-5.06-.27,0,0,.35.09.84.21,0,0-1.17,2.54-1.11,11.4.07,8.86-.64,92.49.23,97.26.69,3.76-.12,124.2-.4,192.45-.42.94-.55,1.9-.6,2.87-.04.83.07,1.56-1.09,1.91-.5.15-.91,1.18-1.03,1.87-.37,2.2.47,4.19,1.31,6.17.28.65.53,1.38.55,2.08.13,3.05.19,6.1.27,9.16-.15,1.59-1.64,17.63-1.33,21.58.33,4.16.07,6.31.94,10.2.87,3.89,1.68,6.98,1.68,6.98l-1.88-10s-.54-9.06-.4-10.13c.12-1,.89-16.44.99-18.54.01.49.03.98.04,1.47.1-.33.26-.66.28-1,.18-2.9.27-5.81.51-8.7.09-1.05.33-2.15.77-3.1.94-2.02,1.63-4.07,1.34-6.32-.07-.57-.32-1.48-.69-1.59-1.19-.38-1.22-1.17-1.25-2.16,0-.21-.07-.42-.1-.63,1.54-4.42,1.54-10.73,1.54-10.73l2.82-136.59-2.15-69.23-.94-36.36.4-27.64-.27-15.56-.12-7c2.1.52,6.28,1.57,6.55,1.68,15.65,3.49,28.17,11.73,40.68,19.95,11.78,7.74,23.26,15.8,34.14,24.56-.05.64.53,2.18,1.06,3.04,1.65,2.69,3.54,5.23,5.27,7.88,1.14,1.75,2.54,2.69,4.74,2.96,1.7.2,3.4.55,5.07.99.08.08,8.91,8.49,9.61,9.56-.26.09-.53.18-.79.27-.75.27-1.3.63-1.66,1.08-.05.06-.07.12-.11.18-.27.41-.42.89-.4,1.45,0,.21.04.43.09.67.05.23.12.48.21.73.61,1.7,1.39,3.33,1.96,5.04.79,2.36,2.05,3.78,4.61,3.64.59-.03,1.25-.14,1.99-.35.39-.11.78-.2,1.18-.29.59-.14,1.19-.27,1.79-.38.72.96,1.18,1.58,1.18,1.58h0c-1.49.99-3.96,6.74-4.44,8.56-.57,2.13-1.27,19.48-1.31,19.99-.32,3.89-1.24,7.66-4.37,10.31-2.23,1.88-4.61,3.66-7.15,5.07-3.53,1.95-7.27,3.51-10.95,5.25q.5,3.58,4.08,3.21c1.73-.18,3.5-.18,5.18-.58,1.15-.28,2.3-.56,3.44-.85-1.59,1.58-2.4,3-1.77,3.99,0,0,.01.02.02.02.04.12.07.24.14.35.69,1.09,2.23,1.77,4.25,2.21,2.8.94,6.52,1.65,10.3,2.15-1.22,1.4-2.42,2.83-3.58,4.28-15.41,3.09-30.78,6.22-44.42,2.68-6.03-1.56-11.42.37-16.05,4.15,15.09-.37,31.23,3.07,44.43-1.04,2.74-.85,6.23-1.58,8.7-.63.47.18.95.32,1.42.5-2.65,1.72-8.2,19.01-9.94,23.14-4.3,10.21-9.7,19.65-18.23,27.03-4.79,4.14-9.23,8.91-16.68,5.81-.16.24-.32.47-.49.71.41,1.42.36,3.45,1.3,4.17,5.9,4.49,13.34,5.59,19.98,1.48,2.36-1.46,4.73-3.04,7.31-3.95,3.15-1.11,6.53-1.59,9.82-2.32,3.53-.79,4.44-2.17,4.32-5.86-.11-3.38-.33-6.84.21-10.14.79-4.85,3.63-8.88,6.48-12.78,2.43-3.32,16.89-21.32,17.12-21.64,21.88,4.41,44.5,6.9,61.34,24.61-7.07,3.35-13.78,6.53-25.16,11.93.24.08.46.14.7.22-.16.07-.3.14-.46.22,10.5,3.38,16.64,3.66,20.05,6.85,3.05,2.85,6.69,6.57,8.97,10.31,1.27,2.19,2.06,4.39,1.95,6.41-.71,13.38,1.44,25.81,7.08,35.64,4.93,8.86,12.61,15.67,23.51,19.28,23.95,7.92,41.23,21.33,56.52,40.77.93,1.18,1.76,2.32,2.51,3.44,5.18,7.99,5.7,14.69.84,22.95-4.2,7.13-10.05,13.26-14.64,20.18-7,10.57-14.98,20.82-19.93,32.32-6.81,15.8-16.36,26.46-34.3,26.31-11.26-.09-22.5-1.77-33.76-2.48-5.24-.33-10.54-.32-15.78.02-18.13,1.16-36.24,3-54.38,3.66-14.85.54-29.81-1.25-44.6-.24-38.08,2.6-76.07,6.42-114.13,9.3-46.25,3.5-92.53,6.54-138.79,9.78.06.97.12,1.93.17,2.9h805.5c-71.48-8.7-143.23-13.68-214.84-20.22-16.51-1.51-32.94-7.27-48.58-13.25-8.01-3.06-14.19-10.9-22.01-17.24,6.77-23.32,14.32-49.36,22.19-76.51-3.09-1.92-6.31-3.25-8.66-5.48-11.85-11.24-13.13-25.98-1.79-33.29,12.49-8.04,26.21-14.16,38.39-20.59,2.25,5.33,4.5,10.65,6.74,15.97,1.28-.68,2.58-1.33,3.93-1.9,1.68-11.59,1.72-22.35,2.04-33.05.05-1.69,2.7-4.2,4.62-4.8,20.79-6.42,41.47-13.34,62.58-18.51,22.36-5.48,28.27-10.35,24.28-32.95-1.77-10-11.83-18.46-17.85-27.8-4.2-6.52-8.89-13.02-11.3-20.21-.81-2.41,5.53-10.32,7.23-9.92,6.74,1.59,14.41,4.04,19.05,8.79,14.41,14.74,28.07,30.3,40.97,46.38,3.91,4.88,4.4,12.51,7,20.57,6.43,1.25,16.06,3.12,27.05,5.25-15.04,11.34,2.75,11.85,6.52,17.82,2.61,2.18,5.22,4.35,7.83,6.53,4.78-1.75,9.57-3.5,17.55-6.43-7.88-5.08-12.08-7.78-18.3-11.79,4.64-4.27,8.69-8,14.66-13.49,3.21,11.13,5.54,19.2,6.61,22.93,11.39,4.43,19.65,8.24,28.29,10.73,3.5,1.01,7.83-.83,11.78-1.38,1.33-1.25,2.67-2.51,4-3.76,9.05-6.27,18.1-12.54,25.16-17.43,3.71,7.21,7.71,12.38,9.12,18.17,5.88,24.09,25.34,33.14,41.87,22.11,11.65,5.14,21.68,9.56,31.71,13.98,1.42-1.58,2.84-3.17,4.26-4.75,1.89,7.74,3.78,15.49,5,20.47,8.08,7.28,15.87-.09,21.31-10.5-3.05-1.39-6.1-2.77-9.15-4.16,3.83-3.92,7.16-8.6,11.64-11.54,1.23-.8,2.57-1.42,3.96-1.97,1.69-7.48,1.56-13.25-1.19-12.84-4.96-12.6,18.09-30.38-10.72-32.45,4.41-5.78,8.2-10.75,10.78-14.13,8.96,1.89,16.11,3.39,21.74,4.58-6.77-11.37-13.19-22.15-19.6-32.92,1.75-1.35,3.5-2.71,5.24-4.06,11.09,7.46,22.18,14.92,32.6,21.93,7.99,1.09,16.99.41,23.69,4,3.54,1.9,3.08,11.25,4.47,17.46,9.79-13.26,1.73-35.76-13.82-36.51ZM1903.05,642.96c.31,6.22.63,12.85.83,16.85-10.37.69-18.81,1.26-28.29,1.89q3.19-23.8,27.47-18.73ZM1022.95,515.31c-10.19,3.86-19.07,4.48-22.97,9.21l14.02-34.25c3.6-1.08,6.28-9.62,6.87-15,.51-4.57-2.6-9.54-4.11-14.34,31.74-4.48,34.47,19.4,43.64,41.3-20.27-6.22-33.73-1.17-37.46,13.09ZM1663.92,461.52c-3.19,8.76-5.39,14.81-7.22,19.82-13.24-2.99-26.2-5.91-40.9-9.23,8.77-8.01,16.23-18.37,26.25-22.44,4.93-2,14.6,7.64,21.86,11.86ZM1611.17,438.74c1.38-1.03-.63-6.61-1.07-10.08,1.73-1.22,3.45-2.44,5.18-3.66,5.35,8.49,10.7,16.98,18.29,29.03-9.26,2.86-18.1,8.27-21.17,5.97-6.27-4.69-12.03-13.21-1.22-21.25ZM1560.95,459.35h16.33c-.37,4.35-.69,8.2-.75,8.94,16.28,6.47,31.53,12.52,46.77,18.58-.43,1.87-.85,3.74-1.28,5.61-7.38-.45-14.76-.89-22.14-1.34-.11,1.03-.21,2.06-.32,3.09,10.17,5.87,20.35,11.74,30.52,17.61,0,1.72,0,3.44,0,5.16-8.16,1.74-16.27,4.03-24.51,4.56-1.09.07-2.76-8.81-3.45-11.12-16.1-5.22-31.92-10.34-45.88-14.86,1.56-12.03,3.06-23.58,4.7-36.23ZM1567.2,619.78v20.13c8.01-6.88,12.8-21.46,23.93-8.09,7.97,9.58,19.79,19.31.31,29.66-1.28.68.23,6.6.74,14.96-5.85-8.4-9.05-12.99-9.53-13.67-3.3,11.6-7.1,24.92-10.9,38.25-10.79-6.34-22.47-11.65-31.8-19.69-2.51-2.16,2.1-12.59,3.75-20.72-.66-.32-4.4-2.12-8.14-3.92-2.34-2.73-4.68-5.47-7.02-8.2,11.73-8.71,23.46-17.42,38.66-28.71ZM1495.73,617.83,1405.01,400.94c5.59-6.8,17.29-8.58,26.37-12.51,1,1.55,2,3.11,3,4.66-9.29,10.85-18.58,21.71-28.63,33.44-.56-9.14-4.74-20.73-.74-25.59ZM1203.13,591.29c-.62-6.31,9.73-13.82,15.38-20.56,1.8-2.15,4.45-3.58,5.85-4.66,19.16,8.9,36,16.71,54.09,25.11-3.81,5.28-7.47,10.35-8.7,12.05-15.78,0-28.52-.35-41.24.11-6.87.25-14.54.73-19.69-2.18-3.06-1.79-5.2-4.82-5.7-9.88ZM1332.66,882.46c2.19-.31,4.39-.61,6.58-.92,1.41,11.52,2.82,23.04,4.42,36.14-21.34-4.83-23.07-14.02-11-35.22ZM1380.73,644.15c-.57,2.9-3.2,7.39-5.16,7.54-.83.06-1.76-.14-2.71-.51-2.04-.9-4.1-2.56-5.34-4.19-11.5-15.06.31-44.26,21.26-48.91-2.8,16.38-5.14,31.28-8.05,46.07ZM1368.22,723.66c.67,5.64-7.75,12.37-12.12,18.61-5.56-4.68-11.18-9.42-19.83-16.71,7.76-10.01,13.24-17.08,18.71-24.12,4.83,7.36,12.3,14.4,13.24,22.23ZM1348.07,661.96c-1.7,6.69-3.4,13.37-5.1,20.06-1.62.63-3.24,1.25-4.86,1.88-2.95-6.03-7.76-12.06-7.77-18.1,0-2.84,9.33-5.71,14.57-8.56,1.05,1.57,2.1,3.15,3.16,4.72ZM1336.65,741.73c2.34,1.59,4.47,3.16,6.41,4.73,18.98,15.56,18.68,31.08,3.62,59.26-1.88.16-3.76.32-5.64.48-1.38-20.28-2.76-40.57-4.39-64.47ZM1368.92,675.22c9.23-9.41,18.35-8.26,28.22-3.78,2.24,1.03,4.52,2.23,6.84,3.52-9.52,12.7-15.01,17.45-21.5,14.31-3.81-2.01-8-6.69-13.56-14.05ZM1296.65,644.85c-5.76-8.1-6.14-19.07,5.67-27.2,2.65,7.1,5.7,10.9,9.06,12.48,7.17,3.66,15.77-3.09,24.79-9.84.26,18.01-1.67,33.58-17.54,38.25-2.31.68-5.55-.3-8.92-2.16-4.98-2.81-10.18-7.49-13.05-11.52ZM1307.1,813.22c6.45-6.54,14.63-11.36,22.05-16.93,1.98.76,3.97,1.53,5.95,2.29-2.11,13.36-3.46,26.92-6.98,39.9-.8,2.93-10.4,6.5-14.02,5.03-1.71-.69-3.26-1.97-4.61-3.63-5.64-7.34-7.56-21.41-2.4-26.65ZM1341,865.4c-1.7-1.78,3.85-10.47,5.18-13.79,14.37,4.1,26.09,6.85,37.39,10.81,19.27,6.75,21.08,17.06,8.04,30.02-9.67-1.93-17.33-1.65-22.84-4.95-10.11-6.06-19.66-13.58-27.77-22.08ZM1288.3,447.25c.38-3.59.9-8.47,1.06-9.98,8.74-7.39,15.4-13.02,22.06-18.66-9.17-3.22-20.87,14.77-26.56,1.51,4.49-13.34,7.67-22.77,11.28-33.5,22.72-4.45,27.5-2.91,39.38,18.03.88-9.17,1.33-13.86,2.08-21.71,4.93,2.39,11.7,3.52,13.1,6.89,1.76,4.23,1.01,13-1.96,15.08-10.32,7.23-22.07,12.42-33.28,18.38-6.99,11.09,9.65,24.24-3.04,34.83,1.6,1.43,3.02,3.58,4.86,4.04,1.21.3,3.95-1.53,4.42-2.93,2.84-8.48,5.23-17.12,7.73-25.57h26.43c-1.51,5.95-4.48,13.96-5.25,22.19-.41,4.41,2.96,9.17,4.63,13.78-1.73-12.76-.21-22.87,17.46-21.68-1.12,5.76-1.99,10.21-2.99,15.33,9.65,3.69,20.16,5.47,27.62,11.21,7.41,5.7,11.91,15.28,17.19,23.48.57.88-2.14,3.88-3.33,5.9-16.51-12.35-15.39,11.77-26.57,12.66-1.83-2.89-3.33-8.22-5.88-8.78-18.24-4.05-21.35-15.55-17.82-31.7.38-1.76-3.99-4.56-6.16-6.87-2.36,3.16-4.73,6.33-7.33,9.8,1.21,1.47,4.89,4.88,6.89,9.09.53,1.11-4.92,7.11-6.2,6.67-3.96-1.34-7.73-4.24-10.68-7.38-7.35-7.83-14.4-10.3-21.95-.55-6.47,8.35-10.76,7.69-12.98-4.53-2.26,6.08-4.05,10.9-5.94,15.99-8.52-9.67-16.52-18.73-24.86-28.19,4.46-5.2-6.98-25.34,16.6-22.79ZM1164.74,467.87c25,4.35,25.4,6.48,7.77,37.63-1.62-.66-3.23-1.32-4.85-1.98,3.26-7.99,6.52-15.99,9.77-23.98-.61-.72-1.21-1.43-1.82-2.15-5.47,4.5-10.95,9.01-16.42,13.51-1.01-.51-2.03-1.03-3.04-1.54,2.87-7.17,5.73-14.35,8.59-21.49ZM1096.06,437.24c1.36-.96,1.16-4.12,2.13-8.09,6.43,1.9,12.9,3.66,19.26,5.76,4.8,1.59,9.45,3.62,15.91,6.13,13,18.63-9.55,32.49-10.22,50.62-9.27-4.19-20.8-5.7-24.9-12.03-8.09-12.5-23.59-27.23-2.18-42.38ZM1260.3,771.59c1.78-.58,3.63-.94,5.42-1.51,1.63-.52,2.27.41,2.51,1.69.68,3.58.97,7.16-.97,10.67-3.79-1.43-6.07-4.34-8.16-7.4-1.09-1.6-.63-2.84,1.2-3.44ZM1234.02,782.43c.01-.13,5.35,1.81,5.2,1.39.98,2.88,5.48,22.28,6.43,25.17.65,1.98-.51,3.81-2.29,4.47-3.5,1.3-6.98,2.66-10.46,4.02-.95-.12-1.95-.35-3.03-.78-1.47-.37-2.3-.13-2.93.25-.31-1.95.19-4.05-.24-6.37,0,0,7.02-25.15,7.32-28.15ZM1213.12,764.12c-.31.09-.62.19-.93.28-2.53-2.76-4.55-5-4.79-5.35,0,0,0,0,0,0,5.73,1.4,12.76,1.8,15.83,5.38-1.15-.1-2.24,3.36-3.08,2.17-2.41-3.42-2.98-3.59-7.03-2.47ZM1655.82,866.81c-1.44,1.03-2.89,2.07-4.33,3.1l-6.51-14.33c-1.48.93-2.96,1.87-4.44,2.8v17.64c-14.76-14.76-27.1-27.1-41.69-41.69,17.91,0,31.02-2.33,42.56.94,6.2,1.75,10.22,12.82,14.16,20.25,1.57,2.98.26,7.48.26,11.29ZM1678.57,813.17c-6.81,2.78-13.14,5.35-20.62,8.4-2.53-5.54-4.57-9.99-6.63-14.51-1.16.81-2.74,1.33-2.85,2.08-2.55,16.35-24.99,24.17-39.11,13.57-7.98-6-15.22-13.96-24.18-17.44-11.73-4.55-24.58-4.87-31.95,9.44-2.97,5.76-6.25,11.36-9.84,17.86-.58-.33-1.15-.66-1.73-.99-.43,6.46-.11,12.79,4.47,18.03.95,1.08,2.01,2.03,3.11,2.94.55-.44,1.1-.87,1.65-1.3,7.71,4.92,16.86,8.57,22.62,15.19,3.82,4.39,3.42,13,3.5,19.75.03,1.94-6.07,6.19-7.18,5.56-.18-.1-.36-.21-.54-.31-6.29,8.35-18.88,11.86-31.67,13.3-1.42.52-2.98.98-4.77,1.34-10.91,2.2-21.83,4.69-32.4,8.11-4.69,1.52-8.9,4.63-15.72,8.87-4.2,4.31-8.67,8.37-13.09,12.01-2.21,1.82-4.52,3.51-6.92,5.02-4.17,4.55-10.09,7.38-18.67,8.02-14,1.04-27.66,7.6-41.61,8.18-23.95,1.01-43.74-21.32-39.08-42.55.64-2.91,10.43-6.87,10.89-6.3,11.48,14.46,23.66,6.36,29.67-2.65,5.2-7.79,6.33-21.59,3.31-30.77-3.97-12.08-13.17-21.4-29.51-21.06-20.18.42-25.74-9.91-20-29.2,4.02-13.53,5.43-27.82,9.2-41.45,3.06-11.05,11.13-32.4,11.13-32.4,10.8-7.79,15.47-22.96,27.92-28.07,13.13-5.39,34.02-.81,44.14-12.77,10.34-12.21-9.34-38.68,1.53-47.38,4.8-3.84,24.11,11.05,27.57,6.94,11.3-13.41,13.13-29.8,22.8-24.88,22.75,11.56,28.94,30.67,31.62,55.69-.55.26-1.12.52-1.68.78,2.79,1.92,5.63,3.79,8.54,5.59,13.98-7.22,20.4-2.25,27.96,17.77,3.55,9.42,7.25,18.79,11.3,28,1.07,2.43,3.71,4.17,5.64,6.22.87-.73,1.74-1.46,2.61-2.2-3.73-11.18-7.52-22.33-11.19-33.53-6.61-20.15,5.39-33.99,27.01-31.76,3.03.31,6.35-2.14,7.23.29,9.92,3.57,19.84,7.14,30.49,10.97,3.65-7.07,6.75-13.06,9.85-19.06,1.15.18,2.29.35,3.44.53-1.45,9.75-1.51,20-4.74,29.12-3.17,8.96-9.57,16.79-15,25.88,11.55,1.54,20.87,2.78,35.66,4.75-7.18,6.35-12.97,11.46-20,17.68,6.87-1.24,13.95-2.52,24.25-4.39-4.86,5.17-7.84,8.34-11.55,12.28,5.52,1.15,10.33,2.15,18.32,3.81-5.82,4.21-9.22,6.67-12.63,9.13,2.31,9.93,4.67,20.02,7.43,31.87ZM1648.63,585.38c17.92,10.98,31.08,2,44.07-10.6,2.67,7.19,4.42,11.92,6.17,16.64,1.16-1.86,2.32-3.73,3.48-5.59,6.79.45,14.57-1.07,20.19,1.73,16.85,8.42,33.35,17.8,48.96,28.32,6.71,4.53,10.91,12.79,16.24,19.36-1.22,1.79-2.43,3.58-3.65,5.36-12.12-4.95-24.23-9.89-37.1-15.15-.74,2.51-1.8,6.08-2.95,9.97-11.73-6.99-31.27-4.35-26.57-27.68-27.84,5.52-53.39,8.46-68.86-22.37ZM1789.25,870.6c-12.65,9.38-13.02,8.88-2.53,21.91-11.09,2.74-21.97,5.42-31.72,7.83-11.69-9-23.7-18.24-36.54-28.13-1.14,5.55-2.02,9.81-3.24,15.75-12.68-8.92-19.79-16.96-6.66-29.96,7.19,3.16,14.56,6.39,24.39,10.71-10.36-11.4-17.71-19.38-24.65-27.7-.18-.22,4.4-6.27,6.22-6,9.74,1.44,19.3,4.03,32.7,7.07,11.3-16.15,15.81,12.81,29.25,10.75,1.26-2.62,3.08-6.39,5.4-11.19,4.39,5.62,9.64,9.96,11.38,15.41,1.23,3.85-.83,11.22-3.99,13.56Z"/>
</svg>