<?xml version="1.0" encoding="UTF-8"?>
<svg id="Layer_2" data-name="Layer 2" xmlns="http://www.w3.org/2000/svg" viewBox="0 0 1638.48 996.04">
  <g id="dock">
    <g>
      <g>
        <g>
          <polygon points="1068.16 183.69 570.32 183.69 525.37 235.94 1113.1 235.94 1068.16 183.69" style="fill: #a76434;"/>
          <rect x="525.37" y="235.94" width="587.73" height="21.79" style="fill: #894d24;"/>
          <rect x="525.37" y="235.94" width="587.73" height="2.36" style="fill: #e28f56;"/>
          <polygon points="570.32 183.69 555.4 206.29 604.05 208.77 550.65 214.43 525.37 235.94 570.32 183.69" style="fill: #894d24;"/>
          <polygon points="1079.08 196.39 1014.8 198.25 1084.73 202.94 1079.08 196.39" style="fill: #894d24;"/>
          <polygon points="525.37 238.3 538.89 251.99 642.06 251.99 662.87 242.94 680.07 251.99 1106.77 251.99 1113.1 238.3 1113.1 257.73 525.37 257.73 525.37 238.3" style="fill: #6d3b18;"/>
          <polygon points="573.28 188.07 566.49 201.31 657.44 209.81 552.91 220.65 542.39 230.49 1095.23 229.48 1077.24 207.76 964.91 196.39 1039.23 188.07 573.28 188.07" style="fill: #e28f56; opacity: .31;"/>
        </g>
        <g>
          <polygon points="1115.2 249.33 523.28 249.33 469.85 311.46 1168.63 311.46 1115.2 249.33" style="fill: #a76434;"/>
          <rect x="469.85" y="311.46" width="698.78" height="25.91" style="fill: #894d24;"/>
          <rect x="469.85" y="311.46" width="698.78" height="2.81" style="fill: #e28f56;"/>
          <polygon points="523.28 249.33 505.55 276.2 563.38 279.16 499.9 285.89 469.85 311.46 523.28 249.33" style="fill: #894d24;"/>
          <polygon points="1128.18 264.43 1051.75 266.65 1134.89 272.23 1128.18 264.43" style="fill: #894d24;"/>
          <polygon points="469.85 314.27 485.91 330.54 608.58 330.54 633.32 319.78 653.77 330.54 1161.1 330.54 1168.63 314.27 1168.63 337.37 469.85 337.37 469.85 314.27" style="fill: #6d3b18;"/>
          <polygon points="526.8 254.55 518.73 270.28 626.87 280.4 502.59 293.28 490.08 304.99 1147.38 303.78 1126 277.95 992.44 264.43 1080.8 254.55 526.8 254.55" style="fill: #e28f56; opacity: .31;"/>
        </g>
        <g>
          <polygon points="1169.94 324.97 468.54 324.97 405.21 398.59 1233.27 398.59 1169.94 324.97" style="fill: #a76434;"/>
          <rect x="405.21" y="398.59" width="828.05" height="30.71" style="fill: #894d24;"/>
          <rect x="405.21" y="398.59" width="828.05" height="3.33" style="fill: #e28f56;"/>
          <polygon points="468.54 324.97 447.52 356.81 516.05 360.31 440.83 368.28 405.21 398.59 468.54 324.97" style="fill: #894d24;"/>
          <polygon points="1185.33 342.86 1094.76 345.49 1193.28 352.1 1185.33 342.86" style="fill: #894d24;"/>
          <polygon points="405.21 401.91 424.25 421.2 569.61 421.2 598.93 408.45 623.16 421.2 1224.34 421.2 1233.27 401.91 1233.27 429.29 405.21 429.29 405.21 401.91" style="fill: #6d3b18;"/>
          <polygon points="472.7 331.15 463.14 349.79 591.28 361.78 444.01 377.05 429.19 390.91 1208.08 389.48 1182.74 358.88 1024.48 342.86 1129.19 331.15 472.7 331.15" style="fill: #e28f56; opacity: .31;"/>
        </g>
        <g>
          <polygon points="1234.49 413.56 403.99 413.56 329.02 500.72 1309.46 500.72 1234.49 413.56" style="fill: #a76434;"/>
          <rect x="329.02" y="500.72" width="980.44" height="36.36" style="fill: #894d24;"/>
          <rect x="329.02" y="500.72" width="980.44" height="3.94" style="fill: #e28f56;"/>
          <polygon points="403.99 413.56 379.11 451.26 460.26 455.41 371.19 464.84 329.02 500.72 403.99 413.56" style="fill: #894d24;"/>
          <polygon points="1252.71 434.74 1145.47 437.86 1262.12 445.68 1252.71 434.74" style="fill: #894d24;"/>
          <polygon points="329.02 504.66 351.56 527.5 523.67 527.5 558.39 512.4 587.07 527.5 1298.89 527.5 1309.46 504.66 1309.46 537.08 329.02 537.08 329.02 504.66" style="fill: #6d3b18;"/>
          <polygon points="408.93 420.87 397.61 442.95 549.33 457.14 374.96 475.22 357.41 491.64 1279.64 489.94 1249.64 453.71 1062.25 434.74 1186.23 420.87 408.93 420.87" style="fill: #e28f56; opacity: .31;"/>
        </g>
        <g>
          <polygon points="1313.08 518.94 325.4 518.94 236.24 622.61 1402.24 622.61 1313.08 518.94" style="fill: #a76434;"/>
          <rect x="236.24" y="622.61" width="1166.01" height="43.24" style="fill: #894d24;"/>
          <rect x="236.24" y="622.61" width="1166.01" height="4.68" style="fill: #e28f56;"/>
          <polygon points="325.4 518.94 295.81 563.78 392.31 568.71 286.38 579.93 236.24 622.61 325.4 518.94" style="fill: #894d24;"/>
          <polygon points="1334.75 544.14 1207.22 547.84 1345.94 557.15 1334.75 544.14" style="fill: #894d24;"/>
          <polygon points="236.24 627.29 263.04 654.45 467.72 654.45 509.02 636.49 543.13 654.45 1389.68 654.45 1402.24 627.29 1402.24 665.84 236.24 665.84 236.24 627.29" style="fill: #6d3b18;"/>
          <polygon points="331.27 527.64 317.8 553.9 498.24 570.77 290.87 592.28 270 611.8 1366.78 609.78 1331.1 566.69 1108.24 544.14 1255.69 527.64 331.27 527.64" style="fill: #e28f56; opacity: .31;"/>
        </g>
        <g>
          <polygon points="1405.26 644.97 233.22 644.97 127.41 767.98 1511.07 767.98 1405.26 644.97" style="fill: #a76434;"/>
          <rect x="127.41" y="767.98" width="1383.66" height="51.31" style="fill: #894d24;"/>
          <rect x="127.41" y="767.98" width="1383.66" height="5.56" style="fill: #e28f56;"/>
          <polygon points="233.22 644.97 198.1 698.17 312.62 704.03 186.92 717.35 127.41 767.98 233.22 644.97" style="fill: #894d24;"/>
          <polygon points="1430.98 674.87 1279.64 679.26 1444.26 690.31 1430.98 674.87" style="fill: #894d24;"/>
          <polygon points="127.41 773.54 159.22 805.77 402.11 805.77 451.11 784.46 491.59 805.77 1496.16 805.77 1511.07 773.54 1511.07 819.29 127.41 819.29 127.41 773.54" style="fill: #6d3b18;"/>
          <polygon points="240.18 655.29 224.2 686.45 438.33 706.48 192.24 731.99 167.48 755.16 1468.99 752.77 1426.65 701.63 1162.19 674.87 1337.16 655.29 240.18 655.29" style="fill: #e28f56; opacity: .31;"/>
        </g>
        <g>
          <polygon points="1513.18 789.61 125.3 789.61 0 935.28 1638.48 935.28 1513.18 789.61" style="fill: #a76434;"/>
          <rect y="935.28" width="1638.48" height="60.76" style="fill: #894d24;"/>
          <rect y="935.28" width="1638.48" height="6.58" style="fill: #e28f56;"/>
          <polygon points="125.3 789.61 83.71 852.61 219.32 859.55 70.47 875.32 0 935.28 125.3 789.61" style="fill: #894d24;"/>
          <polygon points="1543.64 825.02 1364.42 830.22 1559.36 843.3 1543.64 825.02" style="fill: #894d24;"/>
          <polygon points="0 941.86 37.67 980.02 325.29 980.02 383.31 954.79 431.25 980.02 1620.82 980.02 1638.48 941.86 1638.48 996.04 0 996.04 0 941.86" style="fill: #6d3b18;"/>
          <polygon points="133.54 801.84 114.62 838.74 368.18 862.45 76.77 892.67 47.45 920.1 1588.65 917.27 1538.51 856.71 1225.35 825.02 1432.54 801.84 133.54 801.84" style="fill: #e28f56; opacity: .31;"/>
        </g>
      </g>
      <g>
        <g>
          <polygon points="73.89 526.98 572.83 74.56 572.83 106.54 90.11 645.9 73.89 526.98" style="fill: #c47b49;"/>
          <polygon points="73.89 540.24 572.83 87.83 572.83 119.81 90.11 659.17 73.89 540.24" style="fill: #9b5c32;"/>
          <g>
            <ellipse cx="153.75" cy="872.97" rx="70.34" ry="18.99" style="fill: #6d3b18;"/>
            <path d="M213.22,872.97c0,8.86-26.63,16.05-59.47,16.05s-58.12-6.83-59.42-15.39h0L10.39,307.11l18.33-.2,124.8-1.35,56.17,533.84,3.44,32.67c.06.3.09.6.09.9Z" style="fill: #a76434;"/>
            <path d="M213.22,872.97c0,8.86-26.63,16.05-59.47,16.05s-58.12-6.83-59.42-15.39h0L10.39,307.11l18.33-.2c54.26,436.85,132.2,525.16,180.96,532.49l3.44,32.67c.06.3.09.6.09.9Z" style="fill: #491905; opacity: .07;"/>
            <path d="M153.75,307.11c0,10.69-32.09,19.35-71.68,19.35s-71.68-8.66-71.68-19.35,32.09-19.35,71.68-19.35c4.11,0,8.13.09,12.05.28,1.71.07,3.41.17,5.08.28,31.32,2.07,54.55,9.7,54.55,18.79Z" style="fill: #c47b49;"/>
            <path d="M192.32,756.82c-12.33-102.71-37.49-312.64-43.02-360.72-7.39-64.27-102.49-75.73-95.11-7.67,6.54,60.23,31.15,247.34,110.97,377.81,8.24,13.47,29.03,6.27,27.15-9.42Z" style="fill: #f7b99a; opacity: .25;"/>
            <ellipse cx="147.14" cy="462.58" rx="15.63" ry="131.58" transform="translate(-49.33 18.7) rotate(-6.23)" style="fill: #f7b99a; opacity: .25;"/>
            <polygon points="73.89 309.67 45.49 323.75 59.69 376.15 57.25 325.27 73.89 309.67" style="fill: #91542a;"/>
            <path d="M99.2,288.33l-9.1,8.01,4.02-8.29c1.71.07,3.41.17,5.08.28Z" style="fill: #91542a;"/>
            <polygon points="142.51 317.52 153.75 370.61 151.09 312.36 116.98 309.67 142.51 317.52" style="fill: #91542a;"/>
            <path d="M85.13,290.59s-49.55-.62-63.87,8.77c-14.31,9.39,19.39,20.47,19.39,20.47l36.93-15.54-7.08,17.54s42.5,2.48,57.09-3.85l-19.08-10.86h35.24s-15.24-13.35-40.01-14.93l-17.54,9.63-1.08-11.23Z" style="fill: #f7b99a; opacity: .25;"/>
          </g>
          <g>
            <ellipse cx="351.93" cy="566.72" rx="49.43" ry="13.34" style="fill: #6d3b18;"/>
            <path d="M393.72,566.72c0,6.23-18.71,11.28-41.79,11.28s-40.84-4.8-41.75-10.81h0l-58.98-398.06,12.88-.14,87.69-.95,39.47,375.1,2.42,22.95c.04.21.07.42.07.63Z" style="fill: #a76434;"/>
            <path d="M393.72,566.72c0,6.23-18.71,11.28-41.79,11.28s-40.84-4.8-41.75-10.81h0l-58.98-398.06,12.88-.14c38.13,306.95,92.89,369,127.15,374.15l2.42,22.95c.04.21.07.42.07.63Z" style="fill: #491905; opacity: .07;"/>
            <path d="M351.93,169.13c0,7.51-22.55,13.6-50.36,13.6s-50.36-6.09-50.36-13.6,22.55-13.59,50.36-13.59c2.89,0,5.71.07,8.47.19,1.2.05,2.39.12,3.57.2,22,1.46,38.33,6.81,38.33,13.2Z" style="fill: #c47b49;"/>
            <path d="M379.03,485.11c-8.66-72.16-26.34-219.67-30.23-253.46-5.19-45.16-72.02-53.21-66.83-5.39,4.59,42.32,21.89,173.79,77.97,265.46,5.79,9.47,20.4,4.4,19.08-6.62Z" style="fill: #f7b99a; opacity: .25;"/>
            <path d="M358.2,277.18c5.54,50.76,5.14,92.44-.89,93.1-6.03.66-15.41-39.96-20.95-90.71-5.54-50.76-5.14-92.44.89-93.1,6.03-.66,15.41,39.96,20.95,90.71Z" style="fill: #f7b99a; opacity: .25;"/>
            <polygon points="295.82 170.93 275.86 180.82 285.84 217.64 284.12 181.89 295.82 170.93" style="fill: #91542a;"/>
            <path d="M313.6,155.93l-6.39,5.63,2.82-5.83c1.2.05,2.39.12,3.57.2Z" style="fill: #91542a;"/>
            <polygon points="344.03 176.44 351.93 213.75 350.06 172.81 326.09 170.93 344.03 176.44" style="fill: #91542a;"/>
            <path d="M303.71,157.52s-34.82-.43-44.87,6.16c-10.06,6.6,13.62,14.38,13.62,14.38l25.95-10.92-4.97,12.33s29.86,1.74,40.12-2.7l-13.41-7.63h24.76s-10.71-9.38-28.11-10.49l-12.33,6.77-.76-7.89Z" style="fill: #f7b99a; opacity: .25;"/>
          </g>
          <g>
            <ellipse cx="484.53" cy="360.23" rx="35.43" ry="9.56" style="fill: #6d3b18;"/>
            <path d="M514.49,360.23c0,4.46-13.41,8.09-29.95,8.09s-29.27-3.44-29.93-7.75h0l-42.28-285.35,9.23-.1,62.86-.68,28.29,268.88,1.73,16.45c.03.15.05.3.05.45Z" style="fill: #a76434;"/>
            <path d="M514.49,360.23c0,4.46-13.41,8.09-29.95,8.09s-29.27-3.44-29.93-7.75h0l-42.28-285.35,9.23-.1c27.33,220.03,66.58,264.51,91.15,268.2l1.73,16.45c.03.15.05.3.05.45Z" style="fill: #491905; opacity: .07;"/>
            <path d="M484.53,75.22c0,5.38-16.16,9.75-36.1,9.75s-36.1-4.36-36.1-9.75,16.16-9.74,36.1-9.74c2.07,0,4.1.05,6.07.14.86.04,1.72.09,2.56.14,15.77,1.04,27.47,4.88,27.47,9.46Z" style="fill: #c47b49;"/>
            <path d="M503.96,301.73c-6.21-51.73-18.88-157.47-21.67-181.68-3.72-32.37-51.62-38.14-47.9-3.86,3.29,30.34,15.69,124.58,55.89,190.29,4.15,6.79,14.62,3.16,13.67-4.74Z" style="fill: #f7b99a; opacity: .25;"/>
            <path d="M489.03,152.68c3.97,36.39,3.69,66.26-.64,66.74-4.32.47-11.05-28.64-15.02-65.03-3.97-36.39-3.69-66.26.64-66.74,4.32-.47,11.05,28.64,15.02,65.03Z" style="fill: #f7b99a; opacity: .25;"/>
            <polygon points="444.31 76.51 430 83.61 437.16 110 435.93 84.37 444.31 76.51" style="fill: #91542a;"/>
            <path d="M457.06,65.76l-4.58,4.03,2.02-4.18c.86.04,1.72.09,2.56.14Z" style="fill: #91542a;"/>
            <polygon points="478.87 80.47 484.53 107.21 483.19 77.87 466.01 76.51 478.87 80.47" style="fill: #91542a;"/>
            <path d="M449.97,66.9s-24.96-.31-32.17,4.42c-7.21,4.73,9.77,10.31,9.77,10.31l18.6-7.83-3.57,8.84s21.4,1.25,28.76-1.94l-9.61-5.47h17.75s-7.67-6.72-20.15-7.52l-8.84,4.85-.54-5.66Z" style="fill: #f7b99a; opacity: .25;"/>
          </g>
          <g>
            <ellipse cx="583.7" cy="207.68" rx="24.96" ry="6.74" style="fill: #6d3b18;"/>
            <path d="M604.8,207.68c0,3.15-9.45,5.7-21.11,5.7s-20.63-2.42-21.09-5.46h0l-29.79-201.05,6.51-.07,44.29-.48,19.93,189.45,1.22,11.59c.02.11.03.21.03.32Z" style="fill: #a76434;"/>
            <path d="M604.8,207.68c0,3.15-9.45,5.7-21.11,5.7s-20.63-2.42-21.09-5.46h0l-29.79-201.05,6.51-.07c19.26,155.03,46.91,186.37,64.22,188.97l1.22,11.59c.02.11.03.21.03.32Z" style="fill: #491905; opacity: .07;"/>
            <path d="M583.7,6.87c0,3.79-11.39,6.87-25.44,6.87s-25.44-3.07-25.44-6.87,11.39-6.87,25.44-6.87c1.46,0,2.89.03,4.28.1.61.03,1.21.06,1.8.1,11.11.74,19.36,3.44,19.36,6.67Z" style="fill: #c47b49;"/>
            <path d="M597.39,166.46c-4.37-36.45-13.3-110.95-15.27-128.01-2.62-22.81-36.37-26.87-33.75-2.72,2.32,21.37,11.06,87.77,39.38,134.08,2.93,4.78,10.3,2.22,9.63-3.34Z" style="fill: #f7b99a; opacity: .25;"/>
            <path d="M586.87,61.44c2.8,25.64,2.6,46.69-.45,47.02s-7.78-20.18-10.58-45.82-2.6-46.69.45-47.02c3.05-.33,7.78,20.18,10.58,45.82Z" style="fill: #f7b99a; opacity: .25;"/>
            <polygon points="555.36 7.77 545.28 12.77 550.32 31.37 549.45 13.31 555.36 7.77" style="fill: #91542a;"/>
            <path d="M564.34.2l-3.23,2.84,1.43-2.94c.61.03,1.21.06,1.8.1Z" style="fill: #91542a;"/>
            <polygon points="579.71 10.56 583.7 29.4 582.75 8.73 570.65 7.77 579.71 10.56" style="fill: #91542a;"/>
            <path d="M559.35,1s-17.59-.22-22.66,3.11c-5.08,3.33,6.88,7.26,6.88,7.26l13.11-5.52-2.51,6.23s15.08.88,20.26-1.37l-6.77-3.86h12.51s-5.41-4.74-14.2-5.3l-6.23,3.42-.38-3.99Z" style="fill: #f7b99a; opacity: .25;"/>
          </g>
        </g>
        <g>
          <polygon points="1564.59 526.98 1065.65 74.56 1065.65 106.54 1548.37 645.9 1564.59 526.98" style="fill: #c47b49;"/>
          <polygon points="1564.59 540.24 1065.65 87.83 1065.65 119.81 1548.37 659.17 1564.59 540.24" style="fill: #9b5c32;"/>
          <g>
            <ellipse cx="1484.73" cy="872.97" rx="70.34" ry="18.99" style="fill: #6d3b18;"/>
            <path d="M1425.26,872.97c0,8.86,26.63,16.05,59.47,16.05s58.12-6.83,59.42-15.39h0l83.93-566.53-18.33-.2-124.8-1.35-56.17,533.84-3.44,32.67c-.06.3-.09.6-.09.9Z" style="fill: #a76434;"/>
            <path d="M1425.26,872.97c0,8.86,26.63,16.05,59.47,16.05s58.12-6.83,59.42-15.39h0l83.93-566.53-18.33-.2c-54.26,436.85-132.2,525.16-180.96,532.49l-3.44,32.67c-.06.3-.09.6-.09.9Z" style="fill: #491905; opacity: .07;"/>
            <path d="M1484.73,307.11c0,10.69,32.09,19.35,71.68,19.35s71.68-8.66,71.68-19.35-32.09-19.35-71.68-19.35c-4.11,0-8.13.09-12.05.28-1.71.07-3.41.17-5.08.28-31.32,2.07-54.55,9.7-54.55,18.79Z" style="fill: #c47b49;"/>
            <path d="M1446.16,756.82c12.33-102.71,37.49-312.64,43.02-360.72,7.39-64.27,102.49-75.73,95.11-7.67-6.54,60.23-31.15,247.34-110.97,377.81-8.24,13.47-29.03,6.27-27.15-9.42Z" style="fill: #f7b99a; opacity: .25;"/>
            <ellipse cx="1491.34" cy="462.58" rx="131.58" ry="15.63" transform="translate(869.6476 1894.9151) rotate(-83.7699)" style="fill: #f7b99a; opacity: .25;"/>
            <polygon points="1564.59 309.67 1592.99 323.75 1578.79 376.15 1581.23 325.27 1564.59 309.67" style="fill: #91542a;"/>
            <path d="M1539.28,288.33l9.1,8.01-4.02-8.29c-1.71.07-3.41.17-5.08.28Z" style="fill: #91542a;"/>
            <polygon points="1495.97 317.52 1484.73 370.61 1487.39 312.36 1521.5 309.67 1495.97 317.52" style="fill: #91542a;"/>
            <path d="M1553.35,290.59s49.55-.62,63.87,8.77c14.31,9.39-19.39,20.47-19.39,20.47l-36.93-15.54,7.08,17.54s-42.5,2.48-57.09-3.85l19.08-10.86h-35.24s15.24-13.35,40.01-14.93l17.54,9.63,1.08-11.23Z" style="fill: #f7b99a; opacity: .25;"/>
          </g>
          <g>
            <ellipse cx="1286.55" cy="566.72" rx="49.43" ry="13.34" style="fill: #6d3b18;"/>
            <path d="M1244.76,566.72c0,6.23,18.71,11.28,41.79,11.28s40.84-4.8,41.75-10.81h0l58.98-398.06-12.88-.14-87.69-.95-39.47,375.1-2.42,22.95c-.04.21-.07.42-.07.63Z" style="fill: #a76434;"/>
            <path d="M1244.76,566.72c0,6.23,18.71,11.28,41.79,11.28s40.84-4.8,41.75-10.81h0l58.98-398.06-12.88-.14c-38.13,306.95-92.89,369-127.15,374.15l-2.42,22.95c-.04.21-.07.42-.07.63Z" style="fill: #491905; opacity: .07;"/>
            <path d="M1286.55,169.13c0,7.51,22.55,13.6,50.36,13.6s50.36-6.09,50.36-13.6-22.55-13.59-50.36-13.59c-2.89,0-5.71.07-8.47.19-1.2.05-2.39.12-3.57.2-22,1.46-38.33,6.81-38.33,13.2Z" style="fill: #c47b49;"/>
            <path d="M1259.45,485.11c8.66-72.16,26.34-219.67,30.23-253.46,5.19-45.16,72.02-53.21,66.83-5.39-4.59,42.32-21.89,173.79-77.97,265.46-5.79,9.47-20.4,4.4-19.08-6.62Z" style="fill: #f7b99a; opacity: .25;"/>
            <path d="M1280.28,277.18c-5.54,50.76-5.14,92.44.89,93.1,6.03.66,15.41-39.96,20.95-90.71,5.54-50.76,5.14-92.44-.89-93.1-6.03-.66-15.41,39.96-20.95,90.71Z" style="fill: #f7b99a; opacity: .25;"/>
            <polygon points="1342.66 170.93 1362.62 180.82 1352.64 217.64 1354.36 181.89 1342.66 170.93" style="fill: #91542a;"/>
            <path d="M1324.88,155.93l6.39,5.63-2.82-5.83c-1.2.05-2.39.12-3.57.2Z" style="fill: #91542a;"/>
            <polygon points="1294.45 176.44 1286.55 213.75 1288.42 172.81 1312.39 170.93 1294.45 176.44" style="fill: #91542a;"/>
            <path d="M1334.77,157.52s34.82-.43,44.87,6.16c10.06,6.6-13.62,14.38-13.62,14.38l-25.95-10.92,4.97,12.33s-29.86,1.74-40.12-2.7l13.41-7.63h-24.76s10.71-9.38,28.11-10.49l12.33,6.77.76-7.89Z" style="fill: #f7b99a; opacity: .25;"/>
          </g>
          <g>
            <ellipse cx="1153.95" cy="360.23" rx="35.43" ry="9.56" style="fill: #6d3b18;"/>
            <path d="M1123.99,360.23c0,4.46,13.41,8.09,29.95,8.09s29.27-3.44,29.93-7.75h0l42.28-285.35-9.23-.1-62.86-.68-28.29,268.88-1.73,16.45c-.03.15-.05.3-.05.45Z" style="fill: #a76434;"/>
            <path d="M1123.99,360.23c0,4.46,13.41,8.09,29.95,8.09s29.27-3.44,29.93-7.75h0l42.28-285.35-9.23-.1c-27.33,220.03-66.58,264.51-91.15,268.2l-1.73,16.45c-.03.15-.05.3-.05.45Z" style="fill: #491905; opacity: .07;"/>
            <path d="M1153.95,75.22c0,5.38,16.16,9.75,36.1,9.75s36.1-4.36,36.1-9.75-16.16-9.74-36.1-9.74c-2.07,0-4.1.05-6.07.14-.86.04-1.72.09-2.56.14-15.77,1.04-27.47,4.88-27.47,9.46Z" style="fill: #c47b49;"/>
            <path d="M1134.52,301.73c6.21-51.73,18.88-157.47,21.67-181.68,3.72-32.37,51.62-38.14,47.9-3.86-3.29,30.34-15.69,124.58-55.89,190.29-4.15,6.79-14.62,3.16-13.67-4.74Z" style="fill: #f7b99a; opacity: .25;"/>
            <path d="M1149.45,152.68c-3.97,36.39-3.69,66.26.64,66.74,4.32.47,11.05-28.64,15.02-65.03,3.97-36.39,3.69-66.26-.64-66.74-4.32-.47-11.05,28.64-15.02,65.03Z" style="fill: #f7b99a; opacity: .25;"/>
            <polygon points="1194.17 76.51 1208.48 83.61 1201.32 110 1202.55 84.37 1194.17 76.51" style="fill: #91542a;"/>
            <path d="M1181.42,65.76l4.58,4.03-2.02-4.18c-.86.04-1.72.09-2.56.14Z" style="fill: #91542a;"/>
            <polygon points="1159.61 80.47 1153.95 107.21 1155.29 77.87 1172.47 76.51 1159.61 80.47" style="fill: #91542a;"/>
            <path d="M1188.51,66.9s24.96-.31,32.17,4.42c7.21,4.73-9.77,10.31-9.77,10.31l-18.6-7.83,3.57,8.84s-21.4,1.25-28.76-1.94l9.61-5.47h-17.75s7.67-6.72,20.15-7.52l8.84,4.85.54-5.66Z" style="fill: #f7b99a; opacity: .25;"/>
          </g>
          <g>
            <ellipse cx="1054.78" cy="207.68" rx="24.96" ry="6.74" style="fill: #6d3b18;"/>
            <path d="M1033.68,207.68c0,3.15,9.45,5.7,21.11,5.7s20.63-2.42,21.09-5.46h0l29.79-201.05-6.51-.07-44.29-.48-19.93,189.45-1.22,11.59c-.02.11-.03.21-.03.32Z" style="fill: #a76434;"/>
            <path d="M1033.68,207.68c0,3.15,9.45,5.7,21.11,5.7s20.63-2.42,21.09-5.46h0l29.79-201.05-6.51-.07c-19.26,155.03-46.91,186.37-64.22,188.97l-1.22,11.59c-.02.11-.03.21-.03.32Z" style="fill: #491905; opacity: .07;"/>
            <path d="M1054.78,6.87c0,3.79,11.39,6.87,25.44,6.87s25.44-3.07,25.44-6.87-11.39-6.87-25.44-6.87c-1.46,0-2.89.03-4.28.1-.61.03-1.21.06-1.8.1-11.11.74-19.36,3.44-19.36,6.67Z" style="fill: #c47b49;"/>
            <path d="M1041.09,166.46c4.37-36.45,13.3-110.95,15.27-128.01,2.62-22.81,36.37-26.87,33.75-2.72-2.32,21.37-11.06,87.77-39.38,134.08-2.93,4.78-10.3,2.22-9.63-3.34Z" style="fill: #f7b99a; opacity: .25;"/>
            <path d="M1051.61,61.44c-2.8,25.64-2.6,46.69.45,47.02s7.78-20.18,10.58-45.82c2.8-25.64,2.6-46.69-.45-47.02-3.05-.33-7.78,20.18-10.58,45.82Z" style="fill: #f7b99a; opacity: .25;"/>
            <polygon points="1083.12 7.77 1093.2 12.77 1088.16 31.37 1089.03 13.31 1083.12 7.77" style="fill: #91542a;"/>
            <path d="M1074.14.2l3.23,2.84-1.43-2.94c-.61.03-1.21.06-1.8.1Z" style="fill: #91542a;"/>
            <polygon points="1058.77 10.56 1054.78 29.4 1055.73 8.73 1067.83 7.77 1058.77 10.56" style="fill: #91542a;"/>
            <path d="M1079.13,1s17.59-.22,22.66,3.11c5.08,3.33-6.88,7.26-6.88,7.26l-13.11-5.52,2.51,6.23s-15.08.88-20.26-1.37l6.77-3.86h-12.51s5.41-4.74,14.2-5.3l6.23,3.42.38-3.99Z" style="fill: #f7b99a; opacity: .25;"/>
          </g>
        </g>
      </g>
    </g>
  </g>
</svg>