<?xml version="1.0" encoding="UTF-8"?>
<svg id="foreground-shore" xmlns="http://www.w3.org/2000/svg" viewBox="0 0 7051.72 6983.26">
  <defs>
    
  </defs>
  <path class="cls-1" d="M-174.92,6897.79c8.27,8.47,17.03,16.76,26.36,24.91,41.42,36.15,83.21,72.58,129.12,105.01h7106.86v-187.95c-11.74-29.44-154.63-7.36-135.59-29.16,16.76-19.2,60.73-29.68,77.49-48.88,42.86-49.11-45-142.78-2.14-191.88-43.66,11.58-14.54,173.2-130.25,162.87,42.86-66.86,76.69-168.66,139.24-219.54-113.92,42.93-173.9,161.9-274.57,222.11,60.62-72.08,121.24-144.15,181.87-216.21-135.21,53.64-245,146.34-303.89,256.59,31.16-71.15,66.62-141.08,106.26-209.53-94.53,63.86-166.3,148.58-205.04,242.03,23.03-84.58,53.64-167.87,91.52-249.04-31.08-4.47-51.03,24.81-60.47,48.67-23.95,60.47-47.89,120.94-71.84,181.4,14.44-84.63,28.88-169.26,43.33-253.89-64.1,63.85-104.63,142.33-115.39,223.43-12.72-91.46-19.46-183.43-20.2-275.45-54.14,88.43-90.48,183.66-107.23,281.03-4.07-78.63-8.12-157.28-12.18-235.91-41.19,64.49-69.6,134.06-83.92,205.43,15.43-89.85,3.66-182.58-34.21-268.19-13.5,90.89-26.98,181.76-40.48,272.65,3.23-34.71-7.98-70.2-31.49-99.62-17.68,35.74-35.36,71.49-53.04,107.23-4.26-40.89-.59-82.27,10.83-122.27-66.68,32.86-119.67,82.83-149.02,140.49,20.61-58.2,41.24-116.39,61.85-174.59-80.44,53.72-160.89,107.43-241.34,161.14,46.64-66.61,100.27-130.14,160.15-189.75-100.81,48.21-192.28,108.64-270.23,178.53,58.83-65.86,117.64-131.73,176.46-197.58-102.33,48.48-195.65,108.85-276.07,178.56,54.31-57.14,102.06-118.18,142.48-182.13-94.69,44.81-172.82,111.27-222.47,189.26,27.28-71.11,40.22-145.66,38.16-219.95-67.3,72.49-118.44,154.34-150.39,240.66,19-101.56,29.92-204.08,32.67-306.74-28.93,98.49-66.2,195.45-111.48,290,31.77-97.32,47.19-197.97,45.75-298.47-28.55,107.58-75.79,212.05-139.96,309.55,25.88-76.19,44.06-154.03,54.29-232.5-42.64,71.99-85.28,143.99-127.93,215.99,30.61-89.04,48.75-180.76,53.98-272.93-57.92,85.11-101.06,176.52-127.84,270.85-6.02-80.12.36-160.83,18.97-239.73-19.58,41.01-39.17,82.02-58.75,123.02,1.96-69.56-1.42-139.22-10.12-208.47-45.35,96.42-70.46,198.76-73.98,301.61-4.37-27.77-8.74-55.53-13.11-83.31-23.09,32.47-46.19,64.94-69.29,97.42.07-64.55,4.3-106.14,8.51-147.72-26.66,48.39-54.35,96.43-83.02,144.11-27.65-42.18-37.89-82.05-45.89-122.23-29.59,40.39-41.7,88.62-34.13,134.92-10.68-53.5-26.33-106.35-46.78-158.03-10.83,26.58-16.36,54.48-16.53,82.42-6.96-28.77-17.1-57.06-30.32-84.41-3.15-6.49-9.05-14.19-17.72-13.11-9.05,1.14-11.33,10.49-11.45,17.76-.77,46.27-1.55,92.56-2.32,138.84-17.89-65.98-55.87-128.46-109.81-180.71-4.82,46.24,1.67,93.2,18.86,137.55-17.89-39.87-35.78-79.74-53.67-119.6-16.91-37.67-41.46-80.87-90.92-88.93,54.42,74.12,90.63,156.59,106.03,241.45-17.44-24.73-34.88-49.44-52.33-74.16-24.64,7.03-36.57,29.35-39.81,49.93-3.24,20.58-.77,41.98-9.37,61.56-17.91-33.19-30.51-68.18-37.39-103.86-44.4,35.72-82.72,76.15-113.61,119.88,16.67-100.23,42.87-175.76,86.01-244.69-86.81,56.33-164.41,121.55-230.36,193.46,61.17-72.36,120.47-145.68,177.85-219.94-122.55,99.98-233.9,208.54-332.34,324.01,53.86-81.24,108.52-164.3,126.74-254.9-59.18,73.99-118.34,147.98-177.52,221.97-7.15,8.96-15.43,18.59-28.32,21.46,41.87-93.32,74.57-189.2,97.75-286.5-47.65,68.96-95.29,137.91-142.94,206.86-11.72,16.97-23.6,34.31-30.8,52.65,27.16-97.38,54.33-194.75,81.5-292.13-46.39,113.21-105.93,223.05-177.61,327.68,20.12-94.51,32.52-179.95,44.93-265.39-42.13,66.66-150.31,182.96-215.53,236.73-18.52-122.14,101.96-196.93,161.95-252.23-116.85,62.89-233.7,125.8-350.55,188.69,78.72-68.31,157.45-136.63,236.18-204.94-129.19,48.71-251.86,108.21-365.32,177.2,62.32-72.16,143.35-134.17,236.57-181.06-115.91,33.96-226.71,78.84-329.31,133.39-14,7.44-28.47,17.79-38.74,29.15,14.69-126.51,29.39-253,44.08-379.49-37.95,136.12-82.88,271.03-134.66,404.26,20.55-87.34,41.1-174.67,61.66-262.03-53.89,97.99-107.77,195.96-161.66,293.94,31.45-92.33,45.97-188.28,42.96-283.87-52.63,115.14-114.38,227.67-184.79,336.71,41.35-77.96,63.44-162.28,64.66-246.82-82.42,103.09-180.08,198.53-290.37,283.75,35.77-71.59,78.45-141.02,127.54-207.5-127.65,69.39-255.3,138.77-382.94,208.15,97.69-68.81,175.98-154.78,227.58-249.89-125.71,50.68-237.04,123.56-323.51,211.78,46.83-131.06,108.35-258.82,183.62-381.29-86.4,139.39-194.38,270.37-320.77,389.09,36.77-88.65,43.99-151.3,34.65-211.33-9.34-60.01-34.52-117.84-64.5-173.47-8.38,37.7,3.01,76.38.87,114.62-4.64,82.38-70.25,153.66-133.2,219.36,9.25-112.87,13.51-204.83,17.77-296.81-37.59,39.63-44.57,91.61-60.42,139.55-15.58,47.05-40.87,92.09-74.58,132.78,5.12-91.2,25.94-181.83,61.71-268.61-45.91,89.62-113.7,172.17-198.55,241.75,30.05-85.97,75.76-168.52,135.27-244.28-91.8,89.94-240.07,138.13-319.85,234.99,45.52-77.26,101.42-150.69,166.45-218.66-95.48,63.42-171.14,143.32-240.9,225.07-25.1-75.86-26.39-151.73-27.67-227.6-63.35,63.91-102.12,142.87-109.92,223.86-.63-70.14-4.89-140.25-12.77-210.11-47.17,61.45-62.66,137.61-42.48,207.7-17.94-60.51-27.31-122.59-27.91-184.74-3.75,62.18-27.51,123.53-68.44,176.69,26.1-39.06,36.77-84.46,30.2-128.33-81.24,47.68-160.56,97.41-237.79,149.1,55.35-57.63,107.74-117.04,156.96-178.04-94.08,45.61-181.24,100.12-259.05,162.02,57.91-76.65,127.58-147.75,207-211.19-92.59,54-177.52,116.21-252.67,185.12,56.34-57.89,105.58-120.12,146.81-185.5-91.36,56.37-162.1,133.42-201.58,219.61,2.22-56.79-.68-113.72-8.65-170.18-36.92,49.21-48.88,25.38-58.15,82.11,3.75-61.21,16.65-102.36,9.67-163.39-25.15,51.82-43.04,89.46-68.19,141.28-.31-81.91-34.52-90.84-34.82-172.74-34.73,67.39-69.46,134.79-104.19,202.17,11.54-99.6,23.08-199.22,34.62-298.83-33.37,75.6-66.74,151.21-100.1,226.82-1.53-60.43-8.85-105.41-23.18-148.96-10.63,39.42-21.27,78.86-31.89,118.28-15.7-58.95-31.41-117.92-47.12-176.86-16.95,46.35-17.79,96.31-2.43,143-29.23-61.02-52.79-123.75-70.4-187.5-9.95,48.68-14.21,98.09-12.72,147.38-9.89-53.22-29.81-105.27-58.92-153.88-2.76,40.39-16.98,80.29-41.31,115.86-12.31-60.89-9.61-123.67,7.89-183.76-37.04,47.6-74.09,95.21-111.11,142.83-1.23,1.59-2.46,3.16-3.69,4.74,1.21-3.22,2.43-6.44,3.69-9.66,25.02-64.3,59.48-126.29,102.45-184.34-35.74,27.48-69.94,56.2-102.45,86.09"></path>
  <g>
    <path class="cls-1" d="M803.45,6638.99c-34.31-119.95-103.41-229.74-196.73-312.55,66.72,5,122.62,56.82,151.67,117.09,29.05,60.26,36.18,128.4,45.06,195.46Z"></path>
    <path class="cls-1" d="M789.01,6628.74c39.77-138.22,10.77-294.47-75.95-409.21,48.64,103.48,71.33,219.04,62.29,336.9,11.15,29.31,18.95,59.9,13.66,72.31Z"></path>
    <path class="cls-1" d="M780.8,6585.87c76.05-124.18,115.08-270.72,110.85-416.27,24.2,79.61,19.26,165.81-.59,246.61-19.84,80.8-54,157.26-88.25,233.09-9.45-17.57-18.9-35.15-22.01-63.43Z"></path>
    <path class="cls-1" d="M796.46,6612.27c19.47-85.86,64.74-165.69,128.44-226.49,63.69-60.78,145.54-102.29,232.22-117.74-154.27,90.22-279.6,229.08-353.6,391.75-4.63-18.69-9.35-37.41-7.06-47.52Z"></path>
    <path class="cls-1" d="M797.46,6580.53c-20.66-230.77,30.93-467.5,144.92-664.85,4.1,1.57,8.19,3.15,12.28,4.72-113.82,200.8-164.52,436.8-143.21,666.64-2.45,0-4.88-.03-13.99-6.51Z"></path>
    <path class="cls-1" d="M897.95,6005.32c.53-85.34,24.07-168.6,60.26-215.14,4.17-5.35,12.74-2.59,13.04,4.2,1.99,44.75-3.18,90.65-14.75,129.64-13.09,44.15-34.3,79.13-58.55,81.3Z"></path>
  </g>
  <g>
    <path class="cls-1" d="M784.25,6513c73.1-219.86,214.84-416.36,398.09-551.86,3.12,3.07,6.25,6.16,9.38,9.23-184.48,138.73-325.1,334.92-397.23,554.18-2.23-.98-4.47-1.98-10.23-11.56Z"></path>
    <path class="cls-1" d="M1105.86,6025.62c34.52-78.05,89.32-145.01,141.08-173.23,5.96-3.25,12.71,2.71,10.28,9.04-16.03,41.82-39.07,81.86-65.24,113-29.62,35.27-63.03,58.88-86.12,51.19Z"></path>
  </g>
  <g>
    <path class="cls-1" d="M784.25,6537.54c.52-231.7-71.45-463.05-202.17-649.73-3.94,1.93-7.88,3.85-11.83,5.78,130.85,190.14,201.88,420.84,200.63,651.66,2.43-.23,4.85-.46,13.37-7.71Z"></path>
    <path class="cls-1" d="M634.12,5973.25c-7.95-84.97-38.63-165.86-78.74-209.08-4.62-4.97-12.91-1.47-12.62,5.31,1.91,44.75,11.05,90.02,25.96,127.87,16.89,42.84,41.06,75.84,65.41,75.9Z"></path>
  </g>
  <g>
    <path class="cls-1" d="M810.08,6458.28c-76.63-218.67-84.66-460.81-22.55-680.08,4.36.53,8.71,1.04,13.06,1.57-61.11,222.59-52.39,463.81,24.64,681.4-2.36.59-4.72,1.16-15.15-2.88Z"></path>
    <path class="cls-1" d="M766.45,5875.99c-20.42-82.86-18.01-169.35,5.67-223.34,2.73-6.22,11.72-5.63,13.67.87,12.9,42.89,19.15,88.66,17.5,129.3-1.87,46.01-13.86,85.13-36.83,93.18Z"></path>
  </g>
</svg>