<?xml version="1.0" encoding="UTF-8"?>
<svg id="lake" xmlns="http://www.w3.org/2000/svg" viewBox="0 0 7051.72 6983.26">
  <defs>
    <style>
      .cls-1 {
        opacity: .6;
      }

      .cls-2 {
        opacity: .8;
      }

      .cls-3 {
        fill: #92bca8;
      }

      .cls-4 {
        fill: #d5ded3;
      }

      .cls-5 {
        fill: #6f9a85;
      }
    </style>
  </defs>
  <rect class="cls-5" x="-60.37" y="4460.46" width="7154.62" height="2547.81"/>
  <g class="cls-2">
    <path class="cls-3" d="M1720.47,5042.88c131.75-7.18,581.31-5.27,745.6-5.32,278.64-.09,589.54,1.71,869.87,3.1,241.35,1.2,536.29,12.52,706.55-8.71-47.35-2.96-77.11-6.59-119.06-9.36-110.73-3.54-264.38-4.4-381.13-5.66,43.24,4.01,63.7,8.64,118.87,11.99-239.53-1.45-457.77-3.25-692.94-5.57-159.28-1.56-693.79.68-774.07,10.7-133.65-7.85-495.86-3.14-649.8-.56-249,4.19-282.1,9.07-357.07,26.35,1.21,1.26,1.04,3.5,2.89,5.67-101.74,3.21-236.87,2.31-342.01-1.33-7.02,1.51-13.89,3-20.57,4.52-155.45-3.35-292.11,3.57-427.68,2.96-187.84-.84-298.93-11.88-463.83-15.1-74.61-27.54,419.77-17,601.17-26.95-15.76-1.36-36.98-2.49-54.27-3.98,49.81-.08,48.19-.85,89.09.36,9.33-.92,15.43-2.01,18.39-3.27-165.43-9.61-499.36,2.78-695.79,5.47-185.82,2.55-453.76-1.66-454.24,19.48-10.7.66-37.46.63-44.09,1.05,49.52,20.34,288.34,10.43,425.2,12.18,161.83,2.09,312.19,10.25,476.36,12.1,171.68,1.93,807.15,1.21,882.3,14.53,12.71.4,25.46.8,38.21,1.21-6.02,2.79,3.23,4.36.96,7.17-30.05,1.29-67.42,2.97-91.97,4.06-178.42-1.87-414.4-9.58-617.86-8.53-105.46-3.57-247.04-3.59-353.56-2.58,101.85,9.27,267.43,4.23,397.14,6.12,130.2,1.88,265.61,7.76,413.75,9.94,234.61,3.46,595.42-6.17,845.72-3.34,88.79,20.68,528.85,4.64,722.73,4,239.25-.78,649.22,2.09,774.09-18.88-145.05-3.48-240.75-12.12-358.28-20.21-25.54,2.29-42.46,1.95-67.89,5.17-25.18,3.2-446.9-9.39-502.75-11.4,83.29,11.46,295.13,9.79,241.39,20.85-65.4,13.48-352.5,8.05-466.87,5.77-223.79-4.47-852.27-21.2-434.58-44Z"/>
    <g>
      <path class="cls-3" d="M5423.01,4919.28c-61.7,9.36-272.11,8.92-349.01,9.68-130.42,1.29-275.94.39-407.14-.13-112.96-.46-250.97-13.09-330.75,13.67,22.15,3.44,36.06,7.76,55.69,10.98,51.81,3.87,123.73,4.27,178.37,5.33-20.22-4.74-29.78-10.33-55.59-14.2,112.11.77,214.25,2.04,324.32,3.9,74.55,1.24,324.74-3.77,362.36-16.4,62.52,9.06,232.08,1.76,304.14-2.06,116.57-6.19,132.08-12.32,167.24-33.83-.56-1.54-.47-4.29-1.33-6.94,47.63-4.37,110.88-3.84,160.08.19,3.29-1.88,6.51-3.74,9.65-5.63,72.75,3.46,136.74-5.61,200.19-5.43,87.91.24,139.87,13.31,217.04,16.56,34.81,33.47-196.55,22.63-281.5,35.61,7.37,1.6,17.3,2.9,25.39,4.66-23.31.31-22.56,1.24-41.7-.06-4.37,1.17-7.23,2.54-8.62,4.09,77.39,11.09,233.74-5.53,325.7-9.65,86.99-3.91,212.38.11,212.7-25.81,5.01-.86,17.54-.93,20.64-1.47-23.09-24.74-134.92-11.57-198.97-13.14-75.74-1.88-146.08-11.25-222.91-12.83-80.35-1.64-377.79,1.93-412.91-14.09-5.95-.44-11.91-.88-17.88-1.32,2.83-3.44-1.49-5.33-.42-8.79,14.07-1.71,31.57-3.93,43.07-5.37,83.5,1.54,193.92,10,289.16,7.85,49.34,3.94,115.61,3.36,165.48,1.67-47.63-10.94-125.16-4.06-185.86-5.82-60.93-1.75-124.29-8.39-193.62-10.44-109.8-3.25-278.72,10.08-395.86,7.68-41.47-24.99-247.51-3.46-338.27-1.85-111.99,1.97-303.87.18-362.4,26.43,67.88,3.66,112.63,13.86,167.61,23.27,11.96-2.91,19.88-2.57,31.8-6.62,11.8-4.03,209.14,9.62,235.27,11.85-38.94-13.7-138.1-10.76-112.9-24.56,30.67-16.81,165.03-11.37,218.55-9.06,104.73,4.54,398.83,22.4,203.22,52.13Z"/>
      <g>
        <path class="cls-3" d="M4510.09,4735.87c-61.7,9.36-272.11,8.92-349.01,9.68-130.42,1.29-275.94.39-407.14-.13-112.96-.46-250.97-13.09-330.75,13.67,22.15,3.44,36.06,7.76,55.69,10.98,51.81,3.87,123.73,4.27,178.37,5.33-20.22-4.74-29.78-10.33-55.59-14.2,112.11.77,214.25,2.04,324.32,3.9,74.55,1.24,324.74-3.77,362.36-16.4,62.52,9.06,232.08,1.76,304.14-2.06,116.57-6.19,132.08-12.32,167.25-33.83-.56-1.54-.47-4.29-1.33-6.94,47.63-4.37,110.88-3.84,160.08.19,3.29-1.88,6.52-3.74,9.65-5.63,72.75,3.46,136.74-5.61,200.19-5.44,87.91.24,139.87,13.31,217.04,16.56,34.81,33.47-196.55,22.63-281.5,35.61,7.37,1.6,17.3,2.9,25.39,4.66-23.31.31-22.56,1.24-41.7-.06-4.37,1.17-7.23,2.54-8.62,4.09,77.39,11.09,233.74-5.53,325.7-9.65,86.99-3.91,212.38.11,212.7-25.81,5.01-.86,17.54-.93,20.64-1.48-23.09-24.74-134.92-11.57-198.97-13.14-75.74-1.88-146.08-11.25-222.91-12.83-80.35-1.65-377.79,1.93-412.91-14.09-5.95-.44-11.91-.88-17.88-1.32,2.83-3.44-1.49-5.33-.42-8.79,14.07-1.71,31.57-3.93,43.07-5.37,83.5,1.54,193.92,10,289.16,7.85,49.34,3.94,115.61,3.36,165.48,1.67-47.63-10.94-125.16-4.06-185.86-5.82-60.93-1.75-124.29-8.39-193.62-10.44-109.8-3.25-278.72,10.08-395.86,7.68-41.47-24.99-247.51-3.46-338.27-1.85-111.99,1.97-303.87.18-362.4,26.43,67.88,3.66,112.63,13.85,167.61,23.27,11.96-2.91,19.88-2.57,31.8-6.62,11.8-4.03,209.14,9.62,235.27,11.85-38.94-13.7-138.1-10.76-112.9-24.56,30.67-16.81,165.03-11.37,218.55-9.06,104.73,4.54,398.83,22.4,203.22,52.13Z"/>
        <path class="cls-3" d="M2758.12,4910.89c-93.23,9.23-411.3,8.32-527.55,8.91-197.15,1-417.12-.22-615.46-1.03-170.76-.71-379.42-13.65-499.93,12.94,33.5,3.49,54.55,7.84,84.23,11.1,78.34,3.99,187.05,4.55,269.65,5.72-30.59-4.78-45.05-10.4-84.09-14.33,169.47,1.02,323.88,2.52,490.27,4.62,112.69,1.4,490.88-3.06,547.7-15.6,94.55,9.2,223.92,12.31,327.29-11.28,111.35-25.4,332.07-2.14,385.15-23.57-263.24-7.45-.73-4.29-2.03-6.95,71.99-4.27,167.6-3.59,241.98.54,4.97-1.88,9.83-3.72,14.56-5.61,109.98,3.62,206.68-5.31,302.6-4.99,132.9.43,211.48,13.62,328.15,17.04,52.74,33.55-297.03,22.19-425.39,34.98,11.15,1.62,26.16,2.94,38.39,4.71-35.24.26-34.1,1.19-63.03-.16-6.61,1.16-10.92,2.52-13.02,4.07,117.03,11.26,353.32-5.01,492.3-8.93,131.48-3.72,321.04.58,321.42-25.34,7.57-.85,26.51-.89,31.2-1.43-35-24.79-203.99-11.87-300.83-13.58-114.5-2.05-220.86-11.57-337.02-13.33-121.46-1.82-571.08,1.1-624.23-15-8.99-.46-18.01-.9-27.03-1.36,4.26-3.44-2.28-5.33-.67-8.79,21.27-1.68,47.71-3.86,65.08-5.28,126.23,1.73,293.18,10.43,437.14,8.49,74.61,4.05,174.78,3.62,250.15,2.04-72.05-11.05-189.21-4.34-280.98-6.23-92.12-1.89-187.91-8.67-292.73-10.87-165.98-3.49-204.08,35.68-381.16,33.01-62.79-25.08-591.38-30.22-728.56-28.81-169.28,1.72-459.34-.5-547.73,25.63,102.62,3.81,170.32,14.1,253.46,23.64,18.08-2.89,30.05-2.53,48.04-6.55,17.82-4,316.18,10.09,355.69,12.37-58.91-13.79-208.8-11.07-170.75-24.81,46.29-16.75,249.42-11,330.33-8.57,158.33,4.77,602.98,23.28,307.4,52.58Z"/>
        <path class="cls-3" d="M1978.26,4933.73c-61.68,6.56-272.09,5.91-348.99,6.32-130.42.71-275.93-.17-407.14-.75-112.96-.51-250.98-9.72-330.72,9.19,22.16,2.48,36.08,5.58,55.71,7.9,51.82,2.84,123.73,3.24,178.37,4.08-20.23-3.4-29.79-7.4-55.61-10.19,112.11.73,214.25,1.8,324.32,3.3,74.55,1,324.73-2.16,362.33-11.08,62.54,6.55,232.08,1.62,304.14-.97,116.56-4.21,132.06-8.55,167.19-23.8-.56-1.1-.48-3.05-1.34-4.94,47.62-3.03,110.87-2.55,160.07.39,3.29-1.33,6.51-2.65,9.64-3.99,72.75,2.58,136.73-3.77,200.18-3.54,87.91.31,139.89,9.7,217.06,12.13,34.86,23.87-196.51,15.78-281.43,24.88,7.37,1.15,17.3,2.09,25.39,3.35-23.31.18-22.56.85-41.7-.11-4.37.83-7.23,1.79-8.62,2.89,77.41,8.01,233.73-3.55,325.68-6.34,86.98-2.64,212.38.42,212.65-18.02,5.01-.6,17.53-.63,20.64-1.02-23.14-17.64-134.94-8.45-198.99-9.67-75.74-1.46-146.1-8.24-222.93-9.49-80.35-1.3-377.79.77-412.93-10.69-5.95-.32-11.92-.64-17.88-.97,2.82-2.44-1.5-3.79-.43-6.25,14.07-1.19,31.56-2.75,43.06-3.75,83.5,1.23,193.94,7.43,289.17,6.05,49.35,2.88,115.62,2.58,165.48,1.46-47.65-7.86-125.16-3.09-185.87-4.44-60.93-1.35-124.3-6.17-193.64-7.74-109.8-2.49-278.7,6.72-395.85,4.82-41.51-17.84-247.52-2.86-338.27-1.86-111.98,1.22-303.86-.36-362.36,18.22,67.88,2.71,112.66,10.04,167.65,16.83,11.96-2.05,19.88-1.8,31.79-4.66,11.8-2.85,209.15,7.18,235.29,8.81-38.96-9.81-138.11-7.88-112.94-17.66,30.64-11.91,165.01-7.82,218.53-6.09,104.74,3.4,398.86,16.58,203.31,37.42Z"/>
        <path class="cls-3" d="M1065.04,4801.78c-61.68,6.56-272.09,5.91-348.99,6.32-130.42.71-275.93-.17-407.14-.75-112.96-.51-250.99-9.72-330.72,9.19,22.16,2.48,36.08,5.58,55.71,7.9,51.82,2.84,123.73,3.24,178.37,4.08-20.23-3.4-29.79-7.4-55.61-10.19,112.11.73,214.25,1.8,324.32,3.3,74.55,1,324.73-2.16,362.33-11.08,62.54,6.55,232.08,1.62,304.14-.97,116.56-4.21,132.06-8.55,167.19-23.8-.57-1.1-.48-3.05-1.34-4.94,47.63-3.03,110.87-2.55,160.07.39,3.29-1.33,6.51-2.65,9.64-3.99,72.75,2.58,136.73-3.77,200.18-3.54,87.91.31,139.89,9.7,217.06,12.13,34.86,23.87-196.51,15.78-281.43,24.88,7.37,1.15,17.3,2.09,25.39,3.35-23.31.18-22.56.85-41.7-.11-4.37.83-7.23,1.79-8.62,2.89,77.41,8.01,233.73-3.55,325.68-6.34,86.98-2.64,212.38.42,212.65-18.02,5.01-.6,17.53-.63,20.64-1.02-23.14-17.64-134.94-8.45-198.99-9.67-75.74-1.46-146.1-8.24-222.93-9.49-80.35-1.3-377.79.77-412.93-10.69-5.95-.32-11.91-.64-17.88-.97,2.82-2.44-1.5-3.79-.43-6.25,14.07-1.19,31.56-2.75,43.06-3.75,83.5,1.23,193.94,7.43,289.17,6.05,49.35,2.88,115.62,2.58,165.48,1.46-47.65-7.86-125.16-3.09-185.87-4.44-60.93-1.35-124.3-6.17-193.64-7.74-109.8-2.49-278.7,6.72-395.85,4.82-41.51-17.84-247.52-2.86-338.27-1.86-111.98,1.22-303.86-.36-362.36,18.22,67.88,2.71,112.66,10.04,167.65,16.83,11.96-2.05,19.88-1.8,31.79-4.66,11.8-2.85,209.15,7.18,235.29,8.81-38.96-9.81-138.11-7.88-112.94-17.66,30.64-11.91,165.01-7.82,218.53-6.09,104.74,3.4,398.86,16.58,203.31,37.42Z"/>
        <path class="cls-3" d="M-130.09,4926.08c-61.68,6.56-272.09,5.91-348.99,6.32-130.42.71-275.93-.17-407.14-.75-112.96-.51-250.99-9.72-330.72,9.19,22.16,2.48,36.08,5.58,55.71,7.9,51.82,2.84,123.73,3.24,178.38,4.08-20.23-3.4-29.8-7.4-55.61-10.19,112.11.73,214.25,1.8,324.32,3.3,74.55,1,324.73-2.16,362.33-11.08,62.54,6.55,232.08,1.62,304.14-.97,116.56-4.21,132.06-8.55,167.19-23.8-.57-1.1-.48-3.05-1.34-4.94,47.63-3.03,110.87-2.55,160.07.39,3.29-1.33,6.51-2.65,9.64-3.99,72.75,2.58,136.73-3.77,200.18-3.54,87.91.31,139.89,9.7,217.06,12.13,34.86,23.87-196.51,15.78-281.44,24.88,7.37,1.15,17.3,2.09,25.39,3.35-23.31.18-22.56.85-41.7-.11-4.37.83-7.23,1.79-8.62,2.89,77.41,8.01,233.73-3.55,325.68-6.34,86.98-2.64,212.38.42,212.65-18.02,5.01-.6,17.53-.63,20.64-1.02-23.14-17.64-134.94-8.45-198.99-9.67-75.74-1.46-146.1-8.24-222.93-9.49-80.35-1.3-377.79.77-412.93-10.69-5.95-.32-11.91-.64-17.88-.97,2.82-2.44-1.5-3.79-.43-6.25,14.07-1.19,31.56-2.75,43.06-3.75,83.5,1.23,193.94,7.43,289.17,6.05,49.35,2.88,115.62,2.58,165.48,1.46-47.65-7.86-125.16-3.09-185.87-4.44-60.94-1.35-124.3-6.17-193.64-7.74-109.8-2.49-278.7,6.72-395.85,4.82-41.51-17.85-247.52-2.86-338.27-1.86-111.98,1.22-303.86-.36-362.36,18.22,67.88,2.71,112.66,10.04,167.65,16.83,11.96-2.05,19.88-1.8,31.79-4.66,11.79-2.85,209.15,7.18,235.29,8.81-38.96-9.81-138.11-7.88-112.94-17.66,30.64-11.91,165.01-7.82,218.53-6.09,104.74,3.4,398.86,16.58,203.31,37.42Z"/>
        <path class="cls-3" d="M890.21,4553.18c-89.28,1.28-152.59,2.78-224.27-1.28-133.95,16.64-471.57,10.2-633.77,11.39-273.94,2.03-561.12,9.97-828.42,13.76-204.15,2.9-461.98-3.77-628.63.17-178,4.23-347.05,17.05-536.54,14.97-6.2,1.82-24.38,14.99-24.65,16.54,230.39.85,569.66,1.21,781.25,7.39,129.25,3.77,229.06,13.21,354.8,14.14,179.29,1.3,368.65-4.94,553.26-3.66,257.32-15.03,601.58,4.05,881.89,5,270.91.91,568.39,5.18,834.09,5.23-.62-.23,29.53,6.73,26.13,6.36-133.45,10.93-246.93,2.9-391.72,7.15-170.31,4.97-231.09,12.44-453.84,14.19-201.06,1.58-407.79,5.57-607.48,9.64-521.92,10.65-997.56,29.88-1488.69,48.23-209.66,7.84-495.47,12.23-666.35,29.53,184.07,12.98,652.13-17.27,870.96-21.09,243.13-4.23,522.5-7.75,738.85-25.37,175.1-3.42,422.9.22,518.96-20.14,8.64,1.04,4.13,3.37,22.43,3.98-6.44-.13,48.57-2.55,49.18-2.51,1.52.03,26.87,4.41,28.37,4.57,54.53-6.45,81.08-4.53,98.14-4.8,6.1.41,20.04-3.3,24.36-3.82,35.67,5.54,53.56,4.72,97.62,8.05,17.47-1.85,27.52-4.12,30.15-6.77,42.53-.2,10.65,5.2,48.56-1.18,8.76,1.75,13.86,3.86,23.08,6.2,12.56-.97,20.88-2.27,24.99-3.99,17.78,1.63,23.18,3.95,41.15,5.98,20.75-.73,37.78-2.13,51.11-4.2,65.99,3.43,71.82,2.32,160-.93,322.08-16.42,669.25-20.92,944.4,3.63-198.71,19.22,35.96,24.04,156.31,32.48,21.53-1.67,45.77-3.92,67.92-5.7,15.13-14.81-82.84-24.29-204.68-24.23-1.91-.7,11.8-.92-4.95-1.14-6.36-2.08-25.16-13.06-26.19-15.76,115.47-13.73,276.6-7.26,346.85-.87,202.07-22.09,818.94,12.48,1082.42,7.9-.14-.06,8.18-1.21,12.12-1.4-6.31-1.52-23.01-3.77-26.71-5.35,38.38-8.35,61.51-15.48,132.91-20.36-219.94-1.22-379.11,10.23-607.15,7.1-166.8-2.31-690.69-27.47-885.31-29.46-4.91-37.23,697.79-1.8,885.63-1.53,179.39.27,301.87-3.85,451.84-13.6-43.89-21.74-453.5-10.49-609.43-4.25-37.49,2.78-105.27,5.55-156.72,9.19-87.37-3.03-149.28,5.41-238.28,3.15,20.85-3.14,24.27-8.9,29.98-10.71,25.72-1.98,52.16-4.65,77.54-6.44-85.7-11.54-672.89,4.83-807.98,11.69-139.77-7.52-324.3-3.03-460.79-.12-135.58-18.41-734.38-6.02-927.77-8.4-308.86-3.79-761.28,7.17-1034.38-4.7,387.54-18.96,1018.19-.03,1342.1-28.87,510.3,16.37,975.82-41.8,1461.64-16.86,24.6-1.82,20.67-4.41,42.23-6.21,108.51,7.59,289.81.53,434.29,3.49-4.64,2.12-26.55,3.85-30.28,5.48,197.12,6.72,410.54,1.78,637.31,1.54,190.18-.2,428.18,9.15,604.18-5.02-.21.1-.21.22.02.31-190.07-6.76-901.17,2.49-945.79-11.46-58.75-2.63-97.33-4.95-148.87-8.74-586.15-11.8-1429.58-31.16-2069.65.53,77.05,6.68,221.62,5.18,322.11,2.44-45.72.65-6.58.95,14.23-.11l363.91,9.65Z"/>
      </g>
    </g>
  </g>
  <g class="cls-1">
    <path class="cls-3" d="M4681.89,4608c-136.79,8.64-603.51,6.34-774.08,6.41-289.29.11-612.07-2.06-903.11-3.74-250.57-1.45-556.78-15.08-733.55,10.49,49.16,3.57,80.05,7.94,123.61,11.27,114.96,4.26,274.48,5.29,395.69,6.81-44.89-4.83-66.13-10.41-123.41-14.44,248.68,1.75,475.25,3.91,719.41,6.71,165.36,1.88,720.29-.82,803.64-12.89,138.75,9.45,514.8,3.78,674.62.68,258.52-5.04,292.88-10.92,370.72-31.73-1.26-1.52-1.08-4.21-3-6.83,105.62-3.87,245.92-2.78,355.07,1.6,7.29-1.82,14.42-3.61,21.35-5.44,161.39,4.04,303.27-4.29,444.01-3.56,195.01,1.02,310.35,14.31,481.55,18.19,77.46,33.17-435.8,20.47-624.13,32.46,16.36,1.64,38.39,3,56.34,4.8-51.71.1-50.04,1.02-92.49-.43-9.69,1.11-16.02,2.43-19.1,3.94,171.75,11.57,518.44-3.35,722.37-6.58,192.92-3.07,471.09,1.99,471.6-23.45,11.11-.8,38.89-.76,45.77-1.26-51.42-24.49-299.36-12.56-441.45-14.67-168.02-2.52-324.11-12.34-494.56-14.58-178.24-2.33-837.99-1.45-916.01-17.5-13.2-.49-26.43-.97-39.67-1.45,6.25-3.36-3.35-5.25-1-8.63,31.2-1.56,69.99-3.58,95.49-4.9,185.23,2.26,430.23,11.54,641.46,10.27,109.48,4.3,256.48,4.33,367.06,3.11-105.74-11.17-277.65-5.1-412.31-7.37-135.17-2.26-275.76-9.34-429.56-11.97-243.57-4.16-618.17,7.43-878.03,4.02-92.18-24.9-549.05-5.59-750.34-4.82-248.39.94-674.02-2.52-803.66,22.73,150.59,4.19,249.94,14.6,371.97,24.33,26.52-2.75,44.08-2.35,70.48-6.22,26.15-3.85,463.98,11.3,521.95,13.73-86.47-13.8-306.4-11.79-250.61-25.11,67.9-16.23,365.97-9.7,484.7-6.95,232.34,5.38,884.83,25.53,451.18,52.98Z"/>
    <g>
      <path class="cls-3" d="M837.9,4756.86c64.06-11.27,282.5-10.74,362.34-11.66,135.41-1.56,286.48-.47,422.7.15,117.28.55,260.55,15.77,343.38-16.46-23-4.14-37.44-9.35-57.82-13.22-53.79-4.66-128.45-5.15-185.18-6.42,20.99,5.71,30.92,12.44,57.71,17.1-116.39-.93-222.44-2.46-336.71-4.7-77.39-1.49-337.14,4.54-376.2,19.75-64.91-10.92-240.95-2.12-315.76,2.48-121.02,7.45-137.13,14.84-173.63,40.75.58,1.86.49,5.16,1.38,8.36-49.45,5.26-115.11,4.62-166.19-.23-3.42,2.27-6.76,4.5-10.01,6.78-75.53-4.17-141.97,6.76-207.84,6.55-91.27-.29-145.21-16.03-225.33-19.95-36.14-40.31,204.06-27.25,292.25-42.88-7.65-1.93-17.96-3.5-26.36-5.61,24.2-.37,23.42-1.5,43.29.08,4.54-1.41,7.51-3.05,8.95-4.92-80.35-13.35-242.67,6.66-338.14,11.62-90.31,4.71-220.49-.13-220.82,31.09-5.2,1.03-18.21,1.12-21.43,1.78,23.98,29.8,140.07,13.93,206.57,15.83,78.63,2.26,151.66,13.55,231.43,15.46,83.42,1.98,392.23-2.33,428.69,16.97,6.18.53,12.37,1.05,18.56,1.59-2.94,4.15,1.55,6.42.44,10.58-14.61,2.06-32.77,4.74-44.71,6.47-86.69-1.86-201.33-12.04-300.21-9.45-51.23-4.74-120.03-4.05-171.8-2.01,49.45,13.18,129.94,4.89,192.96,7.01,63.26,2.11,129.04,10.11,201.02,12.58,113.99,3.91,289.37-12.14,410.99-9.24,43.06,30.09,256.97,4.17,351.19,2.23,116.27-2.37,315.48-.21,376.25-31.83-70.47-4.4-116.94-16.69-174.02-28.02-12.42,3.51-20.64,3.1-33.01,7.98-12.25,4.85-217.13-11.59-244.26-14.28,40.42,16.5,143.37,12.96,117.21,29.58-31.84,20.25-171.33,13.69-226.9,10.91-108.73-5.46-414.06-26.97-210.99-62.78Z"/>
      <g>
        <path class="cls-3" d="M1785.71,4977.73c64.06-11.27,282.5-10.74,362.34-11.66,135.41-1.56,286.48-.47,422.7.15,117.28.55,260.55,15.77,343.39-16.46-23-4.14-37.44-9.35-57.82-13.22-53.79-4.66-128.45-5.15-185.18-6.42,20.99,5.71,30.92,12.44,57.71,17.1-116.39-.93-222.44-2.46-336.71-4.7-77.39-1.49-337.14,4.54-376.2,19.75-64.91-10.91-240.95-2.12-315.76,2.48-121.02,7.45-137.13,14.84-173.63,40.75.58,1.86.49,5.16,1.38,8.36-49.45,5.26-115.11,4.62-166.19-.23-3.42,2.27-6.76,4.5-10.01,6.78-75.53-4.17-141.97,6.76-207.84,6.55-91.27-.29-145.21-16.03-225.33-19.95-36.14-40.31,204.06-27.25,292.25-42.88-7.65-1.93-17.96-3.5-26.36-5.61,24.2-.37,23.42-1.5,43.29.08,4.54-1.41,7.51-3.05,8.95-4.92-80.35-13.35-242.67,6.66-338.14,11.62-90.31,4.71-220.49-.13-220.82,31.08-5.2,1.03-18.21,1.12-21.43,1.78,23.98,29.79,140.07,13.93,206.57,15.83,78.63,2.26,151.66,13.55,231.43,15.46,83.42,1.98,392.23-2.33,428.69,16.97,6.18.53,12.37,1.05,18.56,1.59-2.94,4.15,1.55,6.42.44,10.58-14.61,2.06-32.77,4.74-44.71,6.47-86.69-1.86-201.33-12.04-300.21-9.45-51.23-4.74-120.03-4.05-171.8-2.01,49.45,13.18,129.94,4.89,192.96,7.01,63.26,2.11,129.04,10.11,201.02,12.58,113.99,3.91,289.37-12.14,410.99-9.24,43.06,30.09,256.97,4.17,351.19,2.23,116.27-2.37,315.47-.21,376.25-31.83-70.47-4.4-116.94-16.68-174.02-28.02-12.42,3.51-20.64,3.1-33.01,7.98-12.25,4.85-217.13-11.59-244.26-14.28,40.42,16.5,143.37,12.96,117.21,29.58-31.84,20.25-171.33,13.69-226.9,10.91-108.73-5.46-414.06-26.97-210.99-62.78Z"/>
        <path class="cls-3" d="M3604.6,4766.95c96.79-11.11,427.01-10.02,547.7-10.73,204.68-1.21,433.05.26,638.97,1.23,177.28.85,393.92,16.44,519.03-15.58-34.78-4.2-56.63-9.44-87.44-13.37-81.33-4.8-194.19-5.48-279.95-6.89,31.75,5.76,46.78,12.52,87.3,17.25-175.95-1.23-336.25-3.03-509-5.56-117-1.69-509.63,3.68-568.62,18.79-98.16-11.08-232.48-14.82-339.8,13.58-115.6,30.59-344.76,2.57-399.86,28.39,273.3,8.97.76,5.16,2.11,8.37-74.74,5.14-174,4.33-251.22-.65-5.16,2.26-10.21,4.49-15.11,6.76-114.18-4.36-214.58,6.39-314.16,6.01-137.97-.52-219.56-16.4-340.68-20.53-54.76-40.4,308.37-26.73,441.64-42.13-11.57-1.95-27.16-3.54-39.86-5.67,36.59-.31,35.4-1.44,65.44.19,6.86-1.4,11.34-3.03,13.52-4.9-121.5-13.56-366.82,6.03-511.11,10.75-136.5,4.48-333.31-.7-333.7,30.52-7.86,1.02-27.52,1.07-32.39,1.72,36.34,29.86,211.79,14.29,312.32,16.36,118.87,2.46,229.3,13.94,349.89,16.05,126.1,2.19,592.9-1.32,648.08,18.07,9.34.55,18.7,1.09,28.06,1.63-4.43,4.14,2.36,6.42.69,10.59-22.08,2.02-49.53,4.65-67.57,6.36-131.05-2.08-304.38-12.56-453.84-10.22-77.46-4.87-181.46-4.36-259.71-2.45,74.8,13.31,196.44,5.22,291.71,7.51,95.64,2.27,195.09,10.44,303.91,13.09,172.33,4.21,211.87-42.97,395.72-39.76,65.18,30.2,613.98,36.39,756.4,34.7,175.75-2.07,476.89.6,568.65-30.86-106.54-4.59-176.82-16.99-263.14-28.47-18.77,3.48-31.19,3.04-49.88,7.89-18.5,4.82-328.26-12.15-369.28-14.9,61.16,16.61,216.77,13.33,177.28,29.88-48.06,20.17-258.95,13.25-342.95,10.33-164.38-5.74-626.01-28.04-319.15-63.32Z"/>
        <path class="cls-3" d="M4414.26,4739.45c64.04-7.9,282.49-7.11,362.32-7.62,135.4-.85,286.47.2,422.69.9,117.27.61,260.57,11.71,343.36-11.07-23-2.99-37.45-6.72-57.84-9.51-53.8-3.42-128.46-3.9-185.19-4.91,21,4.1,30.93,8.91,57.74,12.28-116.39-.88-222.44-2.17-336.71-3.97-77.39-1.21-337.13,2.6-376.17,13.35-64.92-7.89-240.95-1.96-315.76,1.17-121.01,5.07-137.1,10.3-173.57,28.66.59,1.32.5,3.67,1.39,5.95-49.44,3.65-115.11,3.07-166.19-.47-3.42,1.61-6.76,3.19-10,4.81-75.53-3.1-141.95,4.54-207.83,4.27-91.27-.38-145.23-11.68-225.35-14.61-36.19-28.74,204.02-19.01,292.19-29.96-7.65-1.39-17.96-2.52-26.36-4.04,24.2-.22,23.42-1.02,43.29.14,4.54-.99,7.51-2.16,8.95-3.49-80.37-9.65-242.66,4.28-338.12,7.63-90.3,3.18-220.49-.51-220.78,21.7-5.2.73-18.2.76-21.43,1.22,24.02,21.24,140.09,10.17,206.59,11.65,78.63,1.76,151.68,9.92,231.45,11.43,83.42,1.56,392.22-.92,428.71,12.87,6.18.39,12.37.77,18.56,1.16-2.93,2.94,1.56,4.57.45,7.53-14.61,1.44-32.77,3.31-44.7,4.52-86.69-1.49-201.35-8.94-300.22-7.28-51.24-3.47-120.04-3.1-171.8-1.75,49.47,9.47,129.94,3.72,192.97,5.35,63.26,1.62,129.05,7.43,201.03,9.33,114,3,289.35-8.1,410.97-5.81,43.1,21.49,256.97,3.44,351.19,2.24,116.26-1.47,315.47.44,376.2-21.94-70.48-3.27-116.96-12.09-174.05-20.26-12.42,2.47-20.64,2.16-33,5.61-12.25,3.43-217.14-8.65-244.28-10.61,40.45,11.82,143.39,9.49,117.25,21.26-31.81,14.35-171.31,9.42-226.88,7.33-108.74-4.09-414.1-19.96-211.07-45.06Z"/>
        <path class="cls-3" d="M5362.37,4898.36c64.04-7.9,282.49-7.11,362.32-7.62,135.4-.85,286.48.2,422.69.9,117.27.61,260.57,11.71,343.36-11.07-23-2.99-37.45-6.72-57.84-9.51-53.8-3.42-128.46-3.9-185.19-4.91,21,4.1,30.93,8.91,57.74,12.28-116.39-.88-222.44-2.17-336.71-3.97-77.4-1.21-337.13,2.6-376.17,13.35-64.92-7.89-240.95-1.96-315.76,1.17-121.01,5.07-137.1,10.3-173.57,28.66.59,1.32.5,3.67,1.39,5.95-49.44,3.65-115.11,3.07-166.19-.47-3.42,1.61-6.76,3.19-10,4.81-75.53-3.11-141.95,4.54-207.83,4.27-91.27-.38-145.23-11.68-225.35-14.61-36.19-28.74,204.02-19.01,292.19-29.96-7.65-1.39-17.96-2.52-26.36-4.04,24.2-.22,23.42-1.02,43.29.14,4.54-.99,7.51-2.16,8.95-3.49-80.37-9.65-242.66,4.28-338.12,7.63-90.3,3.18-220.49-.51-220.78,21.7-5.2.73-18.2.76-21.43,1.22,24.02,21.24,140.09,10.17,206.59,11.65,78.63,1.76,151.68,9.92,231.45,11.43,83.42,1.57,392.22-.92,428.71,12.87,6.18.39,12.37.77,18.56,1.16-2.93,2.94,1.56,4.57.45,7.53-14.61,1.44-32.77,3.31-44.7,4.52-86.69-1.49-201.35-8.94-300.22-7.28-51.24-3.47-120.03-3.1-171.8-1.75,49.47,9.47,129.94,3.72,192.97,5.35,63.26,1.62,129.05,7.43,201.03,9.33,114,3,289.35-8.1,410.97-5.81,43.1,21.49,256.97,3.44,351.19,2.24,116.26-1.47,315.47.44,376.2-21.94-70.48-3.27-116.96-12.09-174.05-20.26-12.42,2.47-20.64,2.16-33,5.61-12.25,3.43-217.14-8.65-244.28-10.61,40.45,11.82,143.39,9.49,117.25,21.26-31.81,14.35-171.31,9.42-226.88,7.34-108.74-4.09-414.1-19.97-211.08-45.06Z"/>
        <path class="cls-3" d="M6603.15,4748.67c64.04-7.9,282.49-7.11,362.32-7.62,135.4-.85,286.47.2,422.69.9,117.27.61,260.57,11.71,343.36-11.07-23-2.99-37.45-6.72-57.84-9.51-53.8-3.42-128.46-3.9-185.19-4.91,21,4.1,30.93,8.91,57.74,12.28-116.39-.88-222.44-2.17-336.71-3.97-77.4-1.21-337.13,2.6-376.17,13.35-64.93-7.89-240.95-1.96-315.76,1.17-121.01,5.07-137.1,10.3-173.57,28.66.59,1.32.5,3.67,1.39,5.95-49.44,3.65-115.11,3.07-166.19-.47-3.42,1.61-6.76,3.19-10,4.81-75.53-3.11-141.95,4.54-207.83,4.27-91.27-.38-145.23-11.68-225.36-14.61-36.19-28.74,204.02-19.01,292.19-29.96-7.65-1.39-17.96-2.52-26.36-4.04,24.2-.22,23.42-1.02,43.29.14,4.54-.99,7.51-2.16,8.95-3.49-80.37-9.65-242.66,4.28-338.12,7.63-90.3,3.18-220.49-.51-220.78,21.7-5.2.73-18.2.76-21.43,1.22,24.02,21.24,140.09,10.17,206.59,11.65,78.63,1.76,151.68,9.92,231.45,11.43,83.42,1.56,392.22-.92,428.71,12.87,6.18.39,12.37.77,18.56,1.16-2.93,2.94,1.56,4.57.45,7.53-14.61,1.44-32.77,3.31-44.7,4.52-86.69-1.49-201.35-8.94-300.22-7.28-51.24-3.47-120.04-3.1-171.8-1.75,49.47,9.47,129.95,3.72,192.97,5.35,63.26,1.62,129.05,7.43,201.04,9.32,113.99,3,289.35-8.1,410.97-5.81,43.1,21.49,256.97,3.44,351.19,2.24,116.26-1.47,315.47.44,376.2-21.94-70.48-3.27-116.96-12.09-174.05-20.26-12.42,2.47-20.64,2.16-33,5.61-12.24,3.43-217.14-8.65-244.28-10.61,40.45,11.82,143.39,9.49,117.25,21.26-31.81,14.35-171.31,9.42-226.88,7.33-108.74-4.09-414.1-19.96-211.08-45.06Z"/>
        <path class="cls-3" d="M5543.87,5197.74c92.69-1.55,158.42-3.34,232.84,1.54,139.07-20.04,489.59-12.28,657.98-13.72,284.41-2.44,582.56-12.01,860.07-16.58,211.95-3.5,479.63,4.55,652.65-.2,184.8-5.1,360.31-20.53,557.03-18.02,6.43-2.19,25.31-18.05,25.59-19.92-239.19-1.02-591.42-1.46-811.1-8.9-134.19-4.54-237.81-15.91-368.36-17.03-186.14-1.57-382.73,5.95-574.39,4.4-267.15,18.1-624.57-4.88-915.58-6.02-281.26-1.09-590.1-6.23-865.96-6.29.65.27-30.65-8.11-27.13-7.66,138.55-13.17,256.36-3.49,406.68-8.61,176.81-5.98,239.92-14.99,471.18-17.08,208.74-1.9,423.37-6.71,630.68-11.61,541.86-12.82,1035.67-35.99,1545.57-58.09,217.67-9.44,514.4-14.73,691.81-35.56-191.1-15.63-677.04,20.8-904.23,25.4-252.42,5.1-542.46,9.34-767.07,30.55-181.79,4.12-439.05-.27-538.78,24.25-8.97-1.25-4.28-4.06-23.29-4.79,6.69.16-50.42,3.07-51.06,3.02-1.58-.04-27.9-5.32-29.46-5.5-56.61,7.77-84.18,5.46-101.89,5.77-6.33-.49-20.8,3.98-25.29,4.6-37.04-6.67-55.61-5.69-101.35-9.69-18.14,2.23-28.57,4.96-31.31,8.16-44.15.24-11.05-6.27-50.41,1.42-9.1-2.11-14.39-4.65-23.96-7.47-13.04,1.17-21.68,2.74-25.95,4.8-18.46-1.96-24.06-4.76-42.72-7.2-21.54.88-39.23,2.57-53.07,5.06-68.51-4.13-74.56-2.79-166.12,1.12-334.38,19.77-694.82,25.2-980.48-4.37,206.3-23.14-37.33-28.95-162.28-39.12-22.36,2.02-47.52,4.72-70.51,6.86-15.7,17.83,86.01,29.25,212.5,29.18,1.98.85-12.25,1.11,5.13,1.37,6.6,2.5,26.12,15.73,27.19,18.98-119.88,16.54-287.17,8.75-360.1,1.05-209.79,26.6-850.23-15.03-1123.77-9.52.14.07-8.5,1.46-12.58,1.69,6.55,1.84,23.89,4.55,27.73,6.45-39.85,10.06-63.86,18.64-137.99,24.52,228.34,1.47,393.59-12.31,630.35-8.55,173.17,2.78,717.08,33.09,919.13,35.48,5.1,44.83-724.45,2.17-919.46,1.84-186.24-.33-313.4,4.64-469.11,16.38,45.57,26.19,470.82,12.63,632.71,5.12,38.92-3.34,109.29-6.69,162.71-11.07,90.71,3.65,154.98-6.51,247.39-3.79-21.65,3.78-25.2,10.72-31.13,12.9-26.71,2.38-54.15,5.6-80.5,7.76,88.97,13.9,698.6-5.81,838.84-14.08,145.11,9.06,336.69,3.65,478.39.14,140.76,22.16,762.44,7.25,963.21,10.12,320.66,4.57,790.37-8.63,1073.9,5.66-402.34,22.83-1057.08.04-1393.37,34.77-529.8-19.72-1013.1,50.33-1517.48,20.3-25.54,2.19-21.46,5.31-43.84,7.47-112.66-9.14-300.88-.64-450.88-4.2,4.82-2.55,27.57-4.64,31.43-6.6-204.65-8.09-426.23-2.15-661.66-1.86-197.44.24-444.54-11.02-627.27,6.05.22-.12.21-.26-.02-.38,197.33,8.14,935.59-3,981.92,13.8,61,3.16,101.05,5.96,154.56,10.53,608.54,14.22,1484.19,37.52,2148.72-.64-79.99-8.04-230.09-6.24-334.42-2.94,47.47-.78,6.83-1.14-14.78.13l-377.82-11.62Z"/>
      </g>
    </g>
  </g>
  <g>
    <path class="cls-3" d="M4135.39,6038.42c-119.26,7.11-526.17,5.22-674.88,5.27-252.21.09-533.63-1.7-787.37-3.07-218.45-1.19-485.43-12.41-639.54,8.63,42.86,2.94,69.79,6.53,107.77,9.27,100.22,3.51,239.3,4.35,344.98,5.6-39.14-3.97-57.66-8.56-107.6-11.87,216.81,1.44,414.35,3.21,627.22,5.52,144.17,1.54,627.98-.68,700.65-10.6,120.97,7.78,448.83,3.11,588.17.56,225.39-4.15,255.34-8.99,323.21-26.1-1.1-1.25-.94-3.47-2.61-5.62,92.09-3.18,214.4-2.29,309.57,1.32,6.36-1.5,12.57-2.97,18.61-4.48,140.71,3.32,264.41-3.53,387.11-2.93,170.02.84,270.58,11.77,419.83,14.96,67.54,27.28-379.95,16.84-544.15,26.7,14.26,1.35,33.47,2.47,49.12,3.94-45.08.08-43.62.84-80.64-.36-8.45.91-13.97,2-16.65,3.24,149.74,9.52,452-2.76,629.8-5.41,168.19-2.52,410.72,1.64,411.16-19.29,9.68-.66,33.91-.62,39.91-1.04-44.83-20.15-260.99-10.33-384.87-12.07-146.48-2.07-282.58-10.15-431.18-11.99-155.39-1.91-730.6-1.2-798.62-14.39-11.51-.4-23.04-.79-34.58-1.19,5.45-2.76-2.92-4.32-.87-7.1,27.2-1.28,61.02-2.95,83.25-4.03,161.49,1.86,375.09,9.49,559.26,8.45,95.45,3.54,223.61,3.56,320.02,2.56-92.19-9.19-242.07-4.19-359.47-6.06-117.85-1.86-240.42-7.68-374.51-9.85-212.35-3.43-538.95,6.11-765.5,3.31-80.37-20.48-478.69-4.6-654.18-3.96-216.56.77-587.64-2.07-700.67,18.7,131.29,3.45,217.91,12.01,324.3,20.02,23.12-2.27,38.43-1.93,61.45-5.12,22.8-3.17,404.51,9.3,455.06,11.29-75.39-11.35-267.13-9.7-218.49-20.66,59.2-13.35,319.07-7.98,422.58-5.72,202.56,4.43,771.44,21,393.36,43.58Z"/>
    <g>
      <path class="cls-3" d="M784.03,6160.87c55.85-9.27,246.3-8.84,315.91-9.59,118.05-1.28,249.76-.39,368.53.12,102.25.45,227.16,12.97,299.38-13.54-20.05-3.4-32.64-7.69-50.41-10.87-46.9-3.84-111.99-4.23-161.45-5.28,18.3,4.69,26.95,10.23,50.32,14.07-101.48-.76-193.93-2.03-293.56-3.87-67.47-1.23-293.94,3.74-327.99,16.25-56.59-8.98-210.07-1.74-275.3,2.04-105.51,6.13-119.55,12.2-151.38,33.52.51,1.53.43,4.25,1.2,6.88-43.11,4.33-100.36,3.8-144.89-.19-2.98,1.86-5.9,3.7-8.73,5.58-65.85-3.43-123.77,5.56-181.2,5.38-79.58-.24-126.6-13.19-196.45-16.41-31.51-33.15,177.91-22.42,254.8-35.27-6.67-1.59-15.66-2.88-22.98-4.61,21.1-.31,20.42-1.23,37.74.06,3.96-1.16,6.55-2.51,7.81-4.05-70.05-10.98-211.57,5.47-294.81,9.56-78.74,3.88-192.24-.11-192.52,25.57-4.53.85-15.87.92-18.68,1.46,20.9,24.51,122.12,11.46,180.1,13.02,68.56,1.86,132.22,11.14,201.77,12.71,72.73,1.63,341.96-1.91,373.75,13.96,5.38.44,10.78.87,16.18,1.3-2.56,3.41,1.35,5.28.38,8.71-12.74,1.69-28.57,3.9-38.98,5.32-75.58-1.53-175.53-9.91-261.73-7.77-44.66-3.9-104.65-3.33-149.78-1.66,43.11,10.84,113.29,4.02,168.23,5.77,55.15,1.74,112.5,8.31,175.26,10.35,99.38,3.22,252.28-9.99,358.32-7.6,37.54,24.75,224.04,3.43,306.18,1.84,101.37-1.95,275.05-.17,328.03-26.18-61.44-3.62-101.95-13.73-151.71-23.05-10.83,2.89-18,2.55-28.78,6.56-10.68,3.99-189.3-9.53-212.95-11.74,35.24,13.58,125,10.66,102.19,24.33-27.76,16.65-149.37,11.26-197.82,8.97-94.8-4.49-361-22.19-183.95-51.64Z"/>
      <g>
        <path class="cls-3" d="M1610.36,6342.55c55.85-9.27,246.3-8.84,315.91-9.59,118.05-1.28,249.76-.39,368.53.13,102.25.45,227.16,12.97,299.38-13.54-20.05-3.4-32.64-7.69-50.41-10.87-46.9-3.84-111.99-4.23-161.45-5.28,18.3,4.69,26.95,10.23,50.32,14.07-101.48-.76-193.93-2.03-293.56-3.87-67.48-1.23-293.94,3.74-327.99,16.25-56.59-8.98-210.07-1.74-275.3,2.04-105.51,6.13-119.55,12.2-151.38,33.52.51,1.53.43,4.25,1.2,6.88-43.12,4.33-100.36,3.8-144.89-.19-2.98,1.87-5.9,3.7-8.73,5.58-65.85-3.43-123.77,5.56-181.2,5.38-79.58-.24-126.6-13.19-196.45-16.41-31.51-33.16,177.91-22.42,254.8-35.27-6.67-1.59-15.66-2.88-22.98-4.61,21.1-.31,20.42-1.23,37.74.06,3.96-1.16,6.55-2.51,7.81-4.05-70.05-10.98-211.57,5.47-294.8,9.56-78.74,3.88-192.24-.11-192.52,25.57-4.53.85-15.87.92-18.68,1.46,20.9,24.51,122.12,11.46,180.1,13.02,68.55,1.86,132.22,11.14,201.77,12.71,72.73,1.63,341.96-1.91,373.75,13.96,5.38.44,10.78.87,16.18,1.3-2.56,3.41,1.35,5.28.38,8.71-12.74,1.7-28.57,3.9-38.98,5.32-75.58-1.53-175.53-9.91-261.74-7.77-44.66-3.9-104.65-3.33-149.78-1.66,43.11,10.84,113.29,4.02,168.23,5.77,55.15,1.74,112.5,8.31,175.26,10.35,99.38,3.22,252.28-9.99,358.32-7.6,37.54,24.75,224.04,3.43,306.18,1.83,101.37-1.95,275.04-.17,328.03-26.18-61.44-3.62-101.95-13.72-151.71-23.05-10.83,2.89-18,2.55-28.78,6.56-10.68,3.99-189.3-9.53-212.95-11.74,35.24,13.58,125,10.66,102.19,24.33-27.76,16.66-149.37,11.26-197.82,8.97-94.8-4.49-361-22.19-183.95-51.64Z"/>
        <path class="cls-3" d="M3196.16,6169.17c84.39-9.14,372.29-8.24,477.51-8.83,178.45-.99,377.56.22,557.08,1.02,154.56.7,343.44,13.52,452.51-12.82-30.32-3.45-49.37-7.77-76.24-10.99-70.91-3.95-169.31-4.51-244.08-5.67,27.68,4.74,40.78,10.3,76.11,14.19-153.4-1.01-293.16-2.49-443.77-4.58-102-1.39-444.32,3.03-495.75,15.45-85.58-9.12-202.69-12.19-296.25,11.17-100.78,25.17-300.58,2.12-348.62,23.35,238.28,7.38.66,4.25,1.84,6.88-65.16,4.23-151.7,3.56-219.03-.54-4.5,1.86-8.9,3.69-13.18,5.56-99.55-3.59-187.08,5.26-273.9,4.95-120.29-.43-191.43-13.49-297.02-16.88-47.74-33.23,268.85-21.99,385.04-34.66-10.09-1.6-23.68-2.91-34.75-4.67,31.9-.26,30.87-1.18,57.05.15,5.98-1.15,9.89-2.5,11.78-4.03-105.93-11.15-319.81,4.96-445.61,8.84-119.01,3.69-290.59-.57-290.94,25.1-6.85.84-23.99.88-28.24,1.42,31.68,24.56,184.64,11.75,272.29,13.45,103.64,2.03,199.92,11.46,305.05,13.2,109.94,1.8,516.92-1.09,565.03,14.86,8.14.45,16.3.89,24.47,1.34-3.86,3.4,2.06,5.28.61,8.71-19.25,1.66-43.18,3.83-58.91,5.23-114.26-1.71-265.38-10.33-395.68-8.41-67.53-4.01-158.2-3.58-226.42-2.02,65.21,10.95,171.26,4.3,254.33,6.18,83.38,1.87,170.09,8.59,264.96,10.77,150.24,3.46,184.72-35.34,345.01-32.7,56.83,24.84,535.29,29.93,659.46,28.54,153.22-1.7,415.77.49,495.78-25.39-92.89-3.77-154.16-13.97-229.42-23.42-16.36,2.86-27.2,2.5-43.49,6.49-16.13,3.96-286.19-9.99-321.95-12.26,53.32,13.66,188.99,10.96,154.56,24.58-41.9,16.59-225.76,10.9-299,8.49-143.31-4.72-545.79-23.06-278.25-52.09Z"/>
        <path class="cls-3" d="M3902.05,6146.55c55.83-6.5,246.28-5.85,315.89-6.26,118.05-.7,249.76.17,368.52.74,102.25.5,227.18,9.63,299.35-9.11-20.05-2.46-32.65-5.53-50.42-7.82-46.9-2.81-112-3.21-161.46-4.04,18.31,3.37,26.97,7.33,50.34,10.1-101.48-.72-193.93-1.78-293.56-3.27-67.48-.99-293.93,2.14-327.96,10.98-56.6-6.49-210.07-1.61-275.29.96-105.5,4.17-119.53,8.47-151.33,23.58.51,1.09.43,3.02,1.21,4.9-43.11,3-100.35,2.53-144.89-.39-2.98,1.32-5.89,2.62-8.72,3.95-65.85-2.55-123.76,3.74-181.19,3.51-79.58-.31-126.62-9.61-196.47-12.02-31.56-23.64,177.87-15.63,254.74-24.64-6.67-1.14-15.66-2.07-22.98-3.32,21.1-.18,20.42-.84,37.74.11,3.96-.82,6.54-1.78,7.8-2.87-70.07-7.94-211.56,3.52-294.79,6.28-78.73,2.62-192.23-.42-192.48,17.85-4.53.6-15.87.63-18.68,1.01,20.94,17.47,122.14,8.37,180.12,9.58,68.56,1.45,132.24,8.16,201.79,9.4,72.73,1.29,341.95-.76,373.77,10.59,5.39.32,10.78.64,16.18.96-2.56,2.42,1.36,3.76.39,6.19-12.73,1.18-28.57,2.72-38.97,3.72-75.58-1.22-175.54-7.36-261.74-5.99-44.67-2.85-104.65-2.55-149.78-1.44,43.13,7.79,113.29,3.06,168.24,4.4,55.16,1.33,112.51,6.11,175.27,7.67,99.39,2.47,252.27-6.66,358.3-4.78,37.58,17.68,224.04,2.83,306.18,1.85,101.36-1.21,275.04.36,327.99-18.05-61.44-2.69-101.97-9.94-151.75-16.67-10.83,2.03-17.99,1.78-28.77,4.62-10.68,2.82-189.32-7.12-212.97-8.73,35.26,9.72,125.01,7.81,102.23,17.49-27.73,11.8-149.35,7.75-197.8,6.03-94.8-3.36-361.03-16.42-184.02-37.06Z"/>
        <path class="cls-3" d="M4728.65,6277.26c55.83-6.5,246.28-5.85,315.89-6.27,118.05-.7,249.76.17,368.52.74,102.25.5,227.18,9.63,299.36-9.11-20.05-2.46-32.65-5.53-50.42-7.82-46.9-2.81-112-3.21-161.46-4.04,18.31,3.37,26.97,7.33,50.34,10.1-101.48-.72-193.93-1.78-293.56-3.27-67.48-.99-293.93,2.14-327.96,10.98-56.6-6.49-210.07-1.61-275.29.96-105.5,4.17-119.53,8.47-151.33,23.58.51,1.09.43,3.02,1.21,4.9-43.11,3-100.36,2.53-144.89-.39-2.98,1.32-5.89,2.62-8.72,3.95-65.85-2.55-123.76,3.74-181.19,3.51-79.58-.31-126.62-9.61-196.47-12.02-31.56-23.64,177.87-15.63,254.74-24.64-6.67-1.14-15.66-2.07-22.98-3.32,21.1-.18,20.42-.84,37.74.11,3.96-.82,6.54-1.78,7.8-2.87-70.07-7.94-211.56,3.52-294.79,6.28-78.73,2.62-192.24-.42-192.48,17.85-4.53.6-15.87.63-18.68,1.01,20.94,17.47,122.14,8.37,180.12,9.58,68.56,1.45,132.24,8.16,201.79,9.4,72.73,1.29,341.95-.76,373.77,10.59,5.39.32,10.78.64,16.18.96-2.56,2.42,1.36,3.76.39,6.19-12.73,1.18-28.57,2.72-38.97,3.72-75.58-1.22-175.54-7.36-261.74-5.99-44.67-2.85-104.65-2.55-149.78-1.44,43.13,7.79,113.29,3.06,168.24,4.4,55.15,1.33,112.51,6.11,175.27,7.67,99.39,2.47,252.27-6.66,358.3-4.78,37.58,17.68,224.04,2.83,306.18,1.85,101.36-1.21,275.04.36,327.99-18.05-61.44-2.69-101.97-9.94-151.75-16.67-10.83,2.03-17.99,1.78-28.77,4.62-10.68,2.82-189.32-7.12-212.97-8.73,35.26,9.72,125.01,7.81,102.23,17.49-27.73,11.8-149.35,7.75-197.8,6.03-94.8-3.36-361.03-16.42-184.02-37.06Z"/>
        <path class="cls-3" d="M5810.42,6154.13c55.83-6.5,246.28-5.85,315.89-6.26,118.05-.7,249.76.17,368.52.74,102.25.5,227.18,9.63,299.36-9.11-20.05-2.46-32.65-5.53-50.42-7.82-46.9-2.81-112-3.21-161.46-4.04,18.31,3.37,26.97,7.33,50.34,10.1-101.48-.72-193.93-1.78-293.56-3.27-67.48-.99-293.93,2.14-327.96,10.98-56.61-6.49-210.07-1.61-275.29.96-105.5,4.17-119.53,8.47-151.33,23.58.51,1.09.43,3.02,1.21,4.9-43.11,3-100.36,2.53-144.89-.39-2.98,1.32-5.89,2.62-8.72,3.95-65.85-2.55-123.76,3.74-181.19,3.51-79.58-.31-126.62-9.6-196.47-12.02-31.56-23.64,177.87-15.63,254.74-24.64-6.67-1.14-15.66-2.07-22.98-3.32,21.1-.18,20.42-.84,37.74.11,3.96-.82,6.54-1.78,7.8-2.87-70.07-7.94-211.56,3.52-294.79,6.28-78.73,2.62-192.23-.42-192.48,17.85-4.53.6-15.87.63-18.68,1.01,20.94,17.47,122.14,8.37,180.12,9.58,68.56,1.45,132.24,8.16,201.79,9.4,72.73,1.29,341.95-.76,373.77,10.59,5.38.32,10.78.64,16.18.96-2.56,2.42,1.36,3.76.39,6.19-12.73,1.18-28.57,2.72-38.97,3.72-75.58-1.22-175.54-7.36-261.74-5.99-44.67-2.85-104.65-2.55-149.78-1.44,43.13,7.79,113.29,3.06,168.24,4.4,55.16,1.33,112.51,6.11,175.27,7.67,99.39,2.47,252.27-6.66,358.3-4.78,37.58,17.68,224.04,2.83,306.18,1.85,101.36-1.21,275.04.36,327.99-18.05-61.44-2.69-101.97-9.94-151.75-16.67-10.83,2.03-17.99,1.78-28.77,4.62-10.68,2.82-189.32-7.12-212.97-8.73,35.26,9.72,125.01,7.81,102.22,17.49-27.73,11.8-149.36,7.75-197.8,6.03-94.8-3.36-361.03-16.42-184.03-37.06Z"/>
        <path class="cls-3" d="M4886.9,6523.52c80.81-1.27,138.12-2.75,203,1.27,121.25-16.49,426.84-10.1,573.66-11.28,247.96-2.01,507.9-9.88,749.85-13.63,184.79-2.88,418.16,3.74,569.01-.17,161.11-4.19,314.13-16.89,485.65-14.82,5.61-1.8,22.06-14.85,22.31-16.38-208.54-.84-515.63-1.2-707.15-7.32-116.99-3.74-207.34-13.09-321.15-14.01-162.28-1.29-333.68,4.89-500.78,3.62-232.92,14.89-544.53-4.02-798.24-4.95-245.21-.9-514.48-5.13-754.98-5.18.56.22-26.73-6.67-23.65-6.3,120.79-10.83,223.51-2.87,354.56-7.08,154.15-4.92,209.17-12.33,410.8-14.05,181.99-1.56,369.11-5.52,549.86-9.55,472.42-10.55,902.94-29.6,1347.49-47.78,189.77-7.77,448.48-12.11,603.15-29.25-166.61-12.85-590.28,17.11-788.35,20.89-220.07,4.19-472.94,7.68-668.77,25.13-158.49,3.39-382.79-.22-469.73,19.95-7.82-1.03-3.74-3.34-20.3-3.94,5.83.13-43.96,2.53-44.52,2.49-1.38-.03-24.32-4.37-25.68-4.52-49.36,6.39-73.39,4.49-88.84,4.75-5.52-.4-18.14,3.27-22.05,3.78-32.29-5.49-48.48-4.68-88.36-7.97-15.81,1.84-24.91,4.08-27.29,6.71-38.5.2-9.64-5.15-43.95,1.17-7.93-1.74-12.55-3.82-20.89-6.14-11.37.96-18.9,2.25-22.62,3.95-16.09-1.61-20.98-3.91-37.24-5.93-18.78.72-34.2,2.11-46.26,4.16-59.73-3.4-65.01-2.29-144.83.92-291.53,16.26-605.77,20.73-854.82-3.59,179.86-19.03-32.54-23.81-141.48-32.18-19.49,1.66-41.43,3.88-61.48,5.64-13.69,14.67,74.98,24.06,185.26,24,1.72.7-10.68.91,4.48,1.13,5.76,2.06,22.78,12.94,23.7,15.62-104.52,13.6-250.36,7.19-313.95.86-182.9,21.88-741.27-12.36-979.76-7.83.13.06-7.41,1.2-10.97,1.39,5.71,1.51,20.83,3.74,24.18,5.3-34.74,8.27-55.68,15.33-120.31,20.17,199.08,1.21,343.15-10.13,549.56-7.03,150.98,2.28,625.18,27.22,801.34,29.19,4.45,36.88-631.6,1.78-801.63,1.52-162.37-.27-273.24,3.82-408.99,13.48,39.73,21.54,410.48,10.39,551.62,4.21,33.94-2.75,95.29-5.5,141.85-9.1,79.09,3,135.12-5.36,215.68-3.12-18.87,3.11-21.97,8.81-27.14,10.61-23.28,1.96-47.21,4.61-70.19,6.38,77.57,11.44,609.07-4.78,731.34-11.58,126.51,7.45,293.54,3,417.08.12,122.72,18.23,664.73,5.96,839.77,8.32,279.56,3.76,689.08-7.1,936.27,4.66-350.78,18.78-921.61.03-1214.8,28.6-461.9-16.22-883.27,41.4-1323.01,16.7-22.26,1.8-18.71,4.37-38.23,6.15-98.22-7.52-262.32-.52-393.1-3.46,4.2-2.1,24.03-3.82,27.41-5.43-178.42-6.65-371.6-1.77-576.87-1.53-172.14.19-387.57-9.06-546.88,4.98.19-.1.19-.22-.02-.31,172.04,6.7,815.69-2.47,856.09,11.35,53.18,2.6,88.1,4.91,134.75,8.66,530.56,11.69,1293.98,30.86,1873.35-.52-69.74-6.61-200.6-5.13-291.56-2.42,41.39-.64,5.95-.94-12.88.11l-329.4-9.56Z"/>
      </g>
    </g>
  </g>
  <g class="cls-2">
    <path class="cls-4" d="M6212.86,5273.09c-131.75,7.71-581.31,5.66-745.6,5.71-278.64.1-589.54-1.84-869.87-3.33-241.35-1.29-536.29-13.45-706.55,9.35,47.35,3.18,77.11,7.08,119.06,10.05,110.73,3.8,264.38,4.72,381.13,6.08-43.24-4.31-63.7-9.28-118.87-12.88,239.53,1.56,457.77,3.49,692.94,5.98,159.28,1.67,693.79-.73,774.07-11.49,133.65,8.43,495.86,3.38,649.8.61,249-4.5,282.1-9.74,357.07-28.3-1.21-1.36-1.04-3.76-2.89-6.09,101.74-3.45,236.87-2.48,342.01,1.43,7.02-1.62,13.89-3.22,20.57-4.85,155.45,3.6,292.11-3.83,427.68-3.18,187.84.91,298.93,12.76,463.83,16.22,74.61,29.58-419.77,18.26-601.17,28.95,15.76,1.46,36.98,2.68,54.27,4.28-49.81.09-48.19.91-89.09-.39-9.33.99-15.43,2.16-18.39,3.51,165.43,10.32,499.36-2.99,695.79-5.87,185.82-2.74,453.76,1.78,454.24-20.92,10.7-.71,37.46-.67,44.09-1.13-49.52-21.85-288.34-11.2-425.2-13.08-161.83-2.25-312.19-11.01-476.36-13-171.68-2.08-807.15-1.3-882.3-15.61-12.71-.43-25.46-.86-38.21-1.3,6.02-2.99-3.23-4.68-.96-7.7,30.05-1.39,67.42-3.19,91.97-4.37,178.42,2.01,414.4,10.29,617.86,9.16,105.46,3.84,247.04,3.86,353.56,2.78-101.85-9.96-267.43-4.55-397.14-6.57-130.2-2.02-265.61-8.33-413.75-10.68-234.61-3.71-595.42,6.62-845.72,3.59-88.79-22.21-528.85-4.99-722.73-4.3-239.25.84-649.22-2.25-774.09,20.28,145.05,3.74,240.75,13.02,358.28,21.7,25.54-2.46,42.46-2.09,67.89-5.55,25.18-3.43,446.9,10.08,502.75,12.24-83.29-12.31-295.13-10.52-241.39-22.4,65.4-14.48,352.5-8.65,466.87-6.2,223.79,4.8,852.27,22.77,434.58,47.26Z"/>
    <g>
      <path class="cls-4" d="M2510.32,5405.87c61.7-10.06,272.11-9.58,349.01-10.4,130.42-1.39,275.94-.42,407.14.14,112.96.49,250.97,14.07,330.75-14.68-22.15-3.69-36.06-8.34-55.69-11.79-51.81-4.16-123.73-4.59-178.37-5.72,20.22,5.09,29.78,11.1,55.59,15.26-112.11-.83-214.25-2.2-324.32-4.19-74.55-1.33-324.74,4.05-362.36,17.62-62.52-9.74-232.08-1.89-304.14,2.21-116.57,6.65-132.08,13.23-167.24,36.34.56,1.66.47,4.61,1.33,7.46-47.63,4.69-110.88,4.12-160.08-.2-3.29,2.02-6.51,4.02-9.65,6.05-72.75-3.72-136.74,6.03-200.19,5.84-87.91-.26-139.87-14.3-217.04-17.79-34.81-35.95,196.55-24.31,281.5-38.25-7.37-1.72-17.3-3.12-25.39-5,23.31-.33,22.56-1.34,41.7.07,4.37-1.26,7.23-2.72,8.62-4.39-77.39-11.91-233.74,5.94-325.7,10.36-86.99,4.2-212.38-.12-212.7,27.73-5.01.92-17.54,1-20.64,1.58,23.09,26.58,134.92,12.43,198.97,14.12,75.74,2.02,146.08,12.08,222.91,13.79,80.35,1.77,377.79-2.08,412.91,15.14,5.95.47,11.91.94,17.88,1.41-2.83,3.7,1.49,5.73.42,9.44-14.07,1.84-31.57,4.22-43.07,5.77-83.5-1.66-193.92-10.74-289.16-8.43-49.34-4.23-115.61-3.61-165.48-1.8,47.63,11.76,125.16,4.36,185.86,6.26,60.93,1.88,124.29,9.01,193.62,11.22,109.8,3.49,278.72-10.83,395.86-8.25,41.47,26.84,247.51,3.72,338.27,1.99,111.99-2.11,303.87-.19,362.4-28.39-67.88-3.93-112.63-14.88-167.61-25-11.96,3.13-19.88,2.76-31.8,7.12-11.8,4.33-209.14-10.34-235.27-12.73,38.94,14.72,138.1,11.56,112.9,26.38-30.67,18.06-165.03,12.21-218.55,9.73-104.73-4.87-398.83-24.06-203.22-56Z"/>
      <g>
        <path class="cls-4" d="M3423.25,5602.88c61.7-10.06,272.11-9.58,349.01-10.4,130.42-1.39,275.94-.42,407.14.14,112.96.49,250.97,14.06,330.75-14.69-22.15-3.69-36.06-8.34-55.69-11.79-51.81-4.16-123.73-4.59-178.37-5.72,20.22,5.09,29.78,11.1,55.59,15.26-112.11-.83-214.25-2.2-324.32-4.19-74.55-1.33-324.74,4.05-362.36,17.62-62.52-9.73-232.08-1.89-304.14,2.21-116.57,6.65-132.08,13.23-167.25,36.34.56,1.66.47,4.61,1.33,7.46-47.63,4.69-110.88,4.12-160.08-.2-3.29,2.02-6.52,4.02-9.65,6.05-72.75-3.72-136.74,6.03-200.19,5.84-87.91-.26-139.87-14.3-217.04-17.79-34.81-35.95,196.55-24.31,281.5-38.25-7.37-1.72-17.3-3.12-25.39-5,23.31-.33,22.56-1.34,41.7.07,4.37-1.26,7.23-2.72,8.62-4.39-77.39-11.91-233.74,5.94-325.7,10.36-86.99,4.2-212.38-.12-212.7,27.73-5.01.92-17.54,1-20.64,1.58,23.09,26.58,134.92,12.43,198.97,14.12,75.74,2.02,146.08,12.08,222.91,13.79,80.35,1.77,377.79-2.08,412.91,15.14,5.95.47,11.91.94,17.88,1.41-2.83,3.7,1.49,5.73.42,9.44-14.07,1.84-31.57,4.22-43.07,5.77-83.5-1.66-193.92-10.74-289.16-8.43-49.34-4.23-115.61-3.61-165.48-1.8,47.63,11.76,125.16,4.36,185.86,6.26,60.93,1.88,124.29,9.01,193.62,11.22,109.8,3.49,278.72-10.83,395.86-8.24,41.47,26.84,247.51,3.72,338.27,1.99,111.99-2.11,303.87-.19,362.4-28.39-67.88-3.93-112.63-14.88-167.61-25-11.96,3.13-19.88,2.76-31.8,7.12-11.8,4.33-209.14-10.34-235.27-12.73,38.94,14.72,138.1,11.56,112.9,26.38-30.67,18.06-165.03,12.21-218.55,9.73-104.73-4.87-398.83-24.06-203.22-56Z"/>
        <path class="cls-4" d="M5175.22,5414.87c93.23-9.91,411.3-8.94,527.55-9.57,197.15-1.08,417.12.23,615.46,1.1,170.76.76,379.42,14.66,499.93-13.9-33.5-3.74-54.55-8.42-84.23-11.92-78.34-4.28-187.05-4.89-269.65-6.15,30.59,5.14,45.05,11.17,84.09,15.39-169.47-1.09-323.88-2.7-490.27-4.96-112.69-1.51-490.88,3.28-547.7,16.76-94.55-9.88-223.92-13.22-327.29,12.12-111.35,27.29-332.07,2.29-385.15,25.32,263.24,8,.73,4.61,2.03,7.46-71.99,4.58-167.6,3.86-241.98-.58-4.97,2.01-9.83,4-14.56,6.03-109.98-3.89-206.68,5.7-302.6,5.36-132.9-.47-211.48-14.63-328.15-18.31-52.74-36.03,297.03-23.84,425.39-37.58-11.15-1.74-26.16-3.16-38.39-5.06,35.24-.28,34.1-1.28,63.03.17,6.61-1.25,10.92-2.71,13.02-4.37-117.03-12.09-353.32,5.38-492.31,9.59-131.48,4-321.04-.62-321.42,27.22-7.57.91-26.51.96-31.2,1.54,35,26.63,203.99,12.75,300.83,14.59,114.5,2.2,220.86,12.43,337.02,14.32,121.46,1.96,571.08-1.18,624.23,16.12,8.99.49,18.01.97,27.03,1.46-4.26,3.69,2.28,5.73.67,9.44-21.27,1.8-47.71,4.15-65.08,5.67-126.23-1.86-293.18-11.2-437.14-9.11-74.61-4.35-174.78-3.89-250.15-2.19,72.05,11.87,189.21,4.66,280.98,6.7,92.12,2.03,187.91,9.31,292.73,11.68,165.98,3.75,204.08-38.33,381.16-35.46,62.79,26.94,591.38,32.46,728.56,30.95,169.28-1.85,459.34.53,547.73-27.53-102.62-4.09-170.32-15.15-253.46-25.39-18.08,3.1-30.05,2.71-48.04,7.04-17.82,4.3-316.18-10.83-355.69-13.29,58.91,14.81,208.8,11.89,170.75,26.65-46.29,17.99-249.42,11.82-330.33,9.21-158.33-5.12-602.98-25.01-307.4-56.48Z"/>
        <path class="cls-4" d="M5955.08,5390.34c61.68-7.05,272.09-6.35,348.99-6.79,130.42-.76,275.93.18,407.14.8,112.96.55,250.98,10.44,330.72-9.87-22.16-2.66-36.08-5.99-55.71-8.48-51.82-3.05-123.73-3.48-178.37-4.38,20.23,3.66,29.79,7.95,55.61,10.95-112.11-.78-214.25-1.93-324.32-3.54-74.55-1.08-324.73,2.32-362.33,11.91-62.54-7.03-232.08-1.74-304.14,1.05-116.56,4.53-132.06,9.19-167.19,25.57.56,1.18.48,3.28,1.34,5.31-47.62,3.26-110.87,2.74-160.07-.42-3.29,1.43-6.51,2.85-9.64,4.29-72.75-2.77-136.73,4.05-200.18,3.81-87.91-.34-139.89-10.42-217.06-13.03-34.86-25.64,196.51-16.95,281.43-26.72-7.37-1.24-17.3-2.25-25.39-3.6,23.31-.2,22.56-.91,41.7.12,4.37-.89,7.23-1.93,8.62-3.11-77.41-8.61-233.73,3.82-325.68,6.81-86.98,2.84-212.38-.45-212.65,19.36-5.01.65-17.53.68-20.64,1.09,23.14,18.95,134.94,9.07,198.99,10.39,75.74,1.57,146.1,8.85,222.93,10.19,80.35,1.4,377.79-.82,412.93,11.48,5.95.35,11.92.69,17.88,1.04-2.82,2.63,1.5,4.08.43,6.72-14.07,1.28-31.56,2.95-43.06,4.03-83.5-1.33-193.94-7.98-289.17-6.5-49.35-3.09-115.62-2.77-165.48-1.56,47.65,8.45,125.16,3.32,185.87,4.77,60.93,1.45,124.3,6.63,193.64,8.32,109.8,2.67,278.7-7.22,395.85-5.18,41.51,19.17,247.52,3.07,338.27,2,111.98-1.31,303.86.39,362.36-19.57-67.88-2.91-112.66-10.78-167.65-18.07-11.96,2.21-19.88,1.93-31.79,5.01-11.8,3.06-209.15-7.72-235.29-9.47,38.96,10.54,138.11,8.46,112.94,18.97-30.64,12.8-165.01,8.4-218.53,6.54-104.74-3.65-398.86-17.81-203.31-40.19Z"/>
        <path class="cls-4" d="M6868.3,5532.08c61.68-7.05,272.09-6.35,348.99-6.79,130.42-.76,275.93.18,407.14.8,112.96.54,250.99,10.44,330.72-9.88-22.16-2.66-36.08-5.99-55.71-8.48-51.82-3.05-123.73-3.48-178.37-4.38,20.23,3.66,29.79,7.95,55.61,10.95-112.11-.78-214.25-1.93-324.32-3.54-74.55-1.08-324.73,2.32-362.33,11.91-62.54-7.03-232.08-1.74-304.14,1.05-116.56,4.53-132.06,9.19-167.19,25.57.57,1.18.48,3.28,1.34,5.31-47.63,3.26-110.87,2.74-160.07-.42-3.29,1.43-6.51,2.85-9.64,4.29-72.75-2.77-136.73,4.05-200.18,3.81-87.91-.34-139.89-10.42-217.06-13.03-34.86-25.64,196.51-16.95,281.43-26.72-7.37-1.24-17.3-2.25-25.39-3.6,23.31-.2,22.56-.91,41.7.12,4.37-.89,7.23-1.93,8.62-3.11-77.41-8.61-233.73,3.82-325.68,6.81-86.98,2.84-212.38-.45-212.65,19.36-5.01.65-17.53.68-20.64,1.09,23.14,18.95,134.94,9.07,198.99,10.39,75.74,1.57,146.1,8.85,222.93,10.19,80.35,1.4,377.79-.82,412.93,11.48,5.95.35,11.91.69,17.88,1.04-2.82,2.63,1.5,4.08.43,6.72-14.07,1.28-31.56,2.95-43.06,4.03-83.5-1.33-193.94-7.98-289.17-6.5-49.35-3.09-115.62-2.77-165.48-1.56,47.65,8.45,125.16,3.32,185.87,4.77,60.93,1.45,124.3,6.63,193.64,8.32,109.8,2.67,278.7-7.22,395.85-5.18,41.51,19.17,247.52,3.07,338.27,2,111.98-1.31,303.86.39,362.36-19.57-67.88-2.91-112.66-10.78-167.65-18.07-11.96,2.21-19.88,1.93-31.79,5.01-11.8,3.06-209.15-7.72-235.29-9.47,38.96,10.54,138.11,8.47,112.94,18.97-30.64,12.8-165.01,8.4-218.53,6.54-104.74-3.65-398.86-17.81-203.31-40.19Z"/>
        <path class="cls-4" d="M8063.42,5398.56c61.68-7.05,272.09-6.35,348.99-6.79,130.42-.76,275.93.18,407.14.8,112.96.55,250.99,10.44,330.72-9.87-22.16-2.66-36.08-5.99-55.71-8.48-51.82-3.05-123.73-3.48-178.38-4.38,20.23,3.66,29.8,7.95,55.61,10.95-112.11-.78-214.25-1.93-324.32-3.54-74.55-1.08-324.73,2.32-362.33,11.91-62.54-7.03-232.08-1.74-304.14,1.05-116.56,4.53-132.06,9.19-167.19,25.57.57,1.18.48,3.28,1.34,5.31-47.63,3.26-110.87,2.74-160.07-.42-3.29,1.43-6.51,2.85-9.64,4.29-72.75-2.77-136.73,4.05-200.18,3.81-87.91-.34-139.89-10.42-217.06-13.03-34.86-25.64,196.51-16.95,281.44-26.72-7.37-1.24-17.3-2.25-25.39-3.6,23.31-.2,22.56-.91,41.7.12,4.37-.89,7.23-1.93,8.62-3.11-77.41-8.61-233.73,3.82-325.68,6.81-86.98,2.84-212.38-.45-212.65,19.36-5.01.65-17.53.68-20.64,1.09,23.14,18.95,134.94,9.07,198.99,10.39,75.74,1.57,146.1,8.85,222.93,10.19,80.35,1.4,377.79-.82,412.93,11.48,5.95.35,11.91.69,17.88,1.04-2.82,2.63,1.5,4.08.43,6.72-14.07,1.28-31.56,2.95-43.06,4.03-83.5-1.33-193.94-7.98-289.17-6.5-49.35-3.09-115.62-2.77-165.48-1.56,47.65,8.45,125.16,3.32,185.87,4.77,60.94,1.45,124.3,6.63,193.64,8.32,109.8,2.67,278.7-7.22,395.85-5.18,41.51,19.17,247.52,3.07,338.27,2,111.98-1.31,303.86.39,362.36-19.57-67.88-2.91-112.66-10.78-167.65-18.07-11.96,2.21-19.88,1.93-31.79,5.01-11.79,3.06-209.15-7.72-235.29-9.47,38.96,10.54,138.11,8.47,112.94,18.97-30.64,12.8-165.01,8.4-218.53,6.54-104.74-3.65-398.86-17.81-203.31-40.19Z"/>
        <path class="cls-4" d="M7043.13,5799.11c89.28-1.38,152.59-2.98,224.27,1.38,133.95-17.88,471.57-10.95,633.77-12.24,273.94-2.18,561.12-10.71,828.42-14.79,204.15-3.12,461.98,4.05,628.63-.18,178-4.55,347.05-18.31,536.54-16.08,6.2-1.95,24.38-16.1,24.65-17.77-230.39-.91-569.66-1.3-781.25-7.94-129.25-4.05-229.06-14.19-354.8-15.19-179.29-1.4-368.65,5.31-553.26,3.93-257.32,16.15-601.58-4.35-881.89-5.37-270.91-.97-568.39-5.56-834.09-5.61.62.24-29.53-7.23-26.13-6.83,133.45-11.74,246.93-3.11,391.72-7.68,170.31-5.33,231.09-13.37,453.85-15.24,201.06-1.7,407.79-5.98,607.48-10.35,521.92-11.44,997.56-32.1,1488.69-51.81,209.66-8.42,495.47-13.13,666.35-31.72-184.07-13.94-652.13,18.55-870.96,22.66-243.13,4.55-522.5,8.33-738.85,27.25-175.1,3.68-422.9-.24-518.96,21.63-8.64-1.12-4.13-3.62-22.43-4.27,6.44.14-48.57,2.74-49.18,2.7-1.52-.04-26.87-4.74-28.37-4.9-54.53,6.93-81.08,4.87-98.14,5.15-6.1-.44-20.04,3.55-24.36,4.1-35.67-5.95-53.56-5.07-97.62-8.65-17.47,1.99-27.52,4.42-30.15,7.28-42.53.22-10.65-5.59-48.56,1.26-8.76-1.88-13.86-4.15-23.08-6.66-12.56,1.04-20.88,2.44-24.99,4.28-17.78-1.75-23.18-4.24-41.15-6.43-20.75.78-37.78,2.29-51.11,4.51-65.99-3.68-71.82-2.49-160,1-322.08,17.63-669.25,22.48-944.4-3.9,198.71-20.64-35.96-25.82-156.31-34.89-21.53,1.8-45.77,4.21-67.92,6.12-15.13,15.91,82.84,26.09,204.68,26.03,1.91.76-11.8.99,4.95,1.22,6.36,2.23,25.16,14.03,26.19,16.93-115.47,14.75-276.6,7.8-346.85.93-202.07,23.72-818.94-13.41-1082.42-8.49.14.06-8.18,1.3-12.12,1.51,6.31,1.64,23.01,4.05,26.71,5.75-38.38,8.97-61.51,16.62-132.91,21.87,219.94,1.31,379.11-10.98,607.15-7.63,166.8,2.48,690.69,29.51,885.31,31.65,4.91,39.99-697.79,1.93-885.63,1.64-179.39-.29-301.87,4.14-451.84,14.61,43.89,23.36,453.5,11.26,609.43,4.57,37.49-2.98,105.27-5.97,156.72-9.87,87.37,3.26,149.28-5.81,238.28-3.38-20.85,3.37-24.27,9.56-29.98,11.51-25.72,2.12-52.16,5-77.54,6.92,85.7,12.4,672.89-5.18,807.98-12.56,139.77,8.08,324.3,3.25,460.79.13,135.58,19.77,734.38,6.47,927.77,9.03,308.86,4.07,761.28-7.7,1034.38,5.05-387.54,20.37-1018.19.03-1342.1,31.01-510.3-17.59-975.82,44.9-1461.64,18.11-24.6,1.95-20.67,4.73-42.23,6.67-108.51-8.16-289.81-.57-434.29-3.75,4.64-2.27,26.55-4.14,30.28-5.89-197.12-7.22-410.54-1.92-637.31-1.66-190.18.21-428.18-9.83-604.18,5.4.21-.11.21-.23-.02-.34,190.07,7.26,901.17-2.68,945.79,12.31,58.75,2.82,97.33,5.32,148.87,9.39,586.15,12.68,1429.58,33.47,2069.65-.57-77.05-7.17-221.62-5.56-322.11-2.62,45.72-.69,6.58-1.02-14.23.12l-363.91-10.36Z"/>
      </g>
    </g>
  </g>
  <g class="cls-2">
    <path class="cls-4" d="M-772.42,5427.18c-131.75,6.36-581.31,4.67-745.6,4.71-278.64.08-589.54-1.52-869.87-2.75-241.35-1.07-536.29-11.09-706.55,7.71,47.35,2.63,77.11,5.84,119.06,8.29,110.73,3.13,264.38,3.89,381.13,5.01-43.24-3.55-63.7-7.66-118.87-10.62,239.53,1.29,457.77,2.87,692.94,4.93,159.28,1.38,693.79-.61,774.07-9.48,133.65,6.95,495.86,2.78,649.8.5,249-3.71,282.1-8.04,357.07-23.34-1.21-1.12-1.04-3.1-2.89-5.02,101.74-2.85,236.87-2.05,342.01,1.18,7.02-1.34,13.89-2.66,20.57-4,155.45,2.97,292.11-3.16,427.68-2.62,187.84.75,298.93,10.53,463.83,13.38,74.61,24.4-419.77,15.06-601.17,23.88,15.76,1.2,36.98,2.21,54.27,3.53-49.81.07-48.19.75-89.09-.32-9.33.82-15.43,1.78-18.39,2.9,165.43,8.51,499.36-2.47,695.79-4.84,185.82-2.26,453.76,1.47,454.24-17.25,10.7-.59,37.46-.56,44.09-.93-49.52-18.02-288.34-9.23-425.2-10.79-161.83-1.85-312.19-9.08-476.36-10.72-171.68-1.71-807.15-1.07-882.3-12.87-12.71-.36-25.46-.71-38.21-1.07,6.02-2.47-3.23-3.86-.96-6.35,30.05-1.14,67.42-2.63,91.97-3.6,178.42,1.66,414.4,8.49,617.86,7.55,105.46,3.17,247.04,3.18,353.56,2.29-101.85-8.21-267.43-3.75-397.14-5.42-130.2-1.66-265.61-6.87-413.75-8.81-234.61-3.06-595.42,5.46-845.72,2.96-88.79-18.32-528.85-4.11-722.73-3.55-239.25.69-649.22-1.85-774.09,16.72,145.05,3.08,240.75,10.74,358.28,17.9,25.54-2.03,42.46-1.73,67.89-4.58,25.18-2.83,446.9,8.32,502.75,10.1-83.29-10.15-295.13-8.67-241.39-18.47,65.4-11.94,352.5-7.13,466.87-5.11,223.79,3.96,852.27,18.78,434.58,38.97Z"/>
    <g>
      <path class="cls-4" d="M-1030.21,5523.86c61.68-5.81,272.09-5.23,348.99-5.6,130.42-.63,275.93.15,407.14.66,112.96.45,250.98,8.61,330.72-8.14-22.16-2.2-36.08-4.94-55.71-7-51.82-2.51-123.73-2.87-178.37-3.61,20.23,3.02,29.79,6.55,55.61,9.03-112.11-.65-214.25-1.59-324.32-2.92-74.55-.89-324.73,1.91-362.33,9.82-62.54-5.8-232.08-1.44-304.14.86-116.56,3.73-132.06,7.58-167.19,21.08.56.97.48,2.7,1.34,4.38-47.62,2.69-110.87,2.26-160.07-.35-3.29,1.18-6.51,2.35-9.64,3.53-72.75-2.28-136.73,3.34-200.18,3.14-87.91-.28-139.89-8.59-217.06-10.75-34.86-21.14,196.51-13.98,281.43-22.04-7.37-1.02-17.3-1.86-25.39-2.97,23.31-.16,22.56-.75,41.7.1,4.37-.73,7.23-1.59,8.62-2.56-77.41-7.1-233.73,3.15-325.68,5.61-86.98,2.34-212.38-.37-212.65,15.96-5.01.53-17.53.56-20.64.9,23.14,15.62,134.94,7.48,198.99,8.57,75.74,1.29,146.1,7.3,222.93,8.41,80.35,1.15,377.79-.68,412.93,9.47,5.95.29,11.92.57,17.88.86-2.82,2.17,1.5,3.36.43,5.54-14.07,1.06-31.56,2.43-43.06,3.33-83.5-1.09-193.94-6.58-289.17-5.36-49.35-2.55-115.62-2.28-165.48-1.29,47.65,6.97,125.16,2.74,185.87,3.94,60.93,1.19,124.3,5.47,193.64,6.86,109.8,2.2,278.7-5.96,395.85-4.27,41.51,15.81,247.52,2.53,338.27,1.65,111.98-1.08,303.86.32,362.36-16.14-67.88-2.4-112.66-8.89-167.65-14.9-11.96,1.82-19.88,1.59-31.79,4.13-11.8,2.52-209.15-6.36-235.29-7.81,38.96,8.69,138.11,6.98,112.94,15.64-30.64,10.55-165.01,6.93-218.53,5.4-104.74-3.01-398.86-14.69-203.31-33.14Z"/>
      <path class="cls-4" d="M-116.99,5640.75c61.68-5.81,272.09-5.23,348.99-5.6,130.42-.63,275.93.15,407.14.66,112.96.45,250.99,8.61,330.72-8.14-22.16-2.2-36.08-4.94-55.71-7-51.82-2.51-123.73-2.87-178.37-3.61,20.23,3.02,29.79,6.55,55.61,9.03-112.11-.65-214.25-1.59-324.32-2.92-74.55-.89-324.73,1.91-362.33,9.82-62.54-5.8-232.08-1.44-304.14.86-116.56,3.73-132.06,7.58-167.19,21.08.57.97.48,2.7,1.34,4.38-47.63,2.69-110.87,2.26-160.07-.35-3.29,1.18-6.51,2.35-9.64,3.53-72.75-2.28-136.73,3.34-200.18,3.14-87.91-.28-139.89-8.59-217.06-10.75-34.86-21.14,196.51-13.98,281.43-22.04-7.37-1.02-17.3-1.85-25.39-2.97,23.31-.16,22.56-.75,41.7.1,4.37-.73,7.23-1.59,8.62-2.56-77.41-7.1-233.73,3.15-325.68,5.62-86.98,2.34-212.38-.37-212.65,15.96-5.01.53-17.53.56-20.64.9,23.14,15.62,134.94,7.48,198.99,8.57,75.74,1.29,146.1,7.3,222.93,8.41,80.35,1.15,377.79-.68,412.93,9.47,5.95.29,11.91.57,17.88.86-2.82,2.17,1.5,3.36.43,5.54-14.07,1.06-31.56,2.43-43.06,3.33-83.5-1.09-193.94-6.58-289.17-5.36-49.35-2.55-115.62-2.28-165.48-1.29,47.65,6.97,125.16,2.74,185.87,3.94,60.93,1.19,124.3,5.47,193.64,6.86,109.8,2.2,278.7-5.96,395.85-4.27,41.51,15.81,247.52,2.53,338.27,1.65,111.98-1.08,303.86.32,362.36-16.14-67.88-2.4-112.66-8.89-167.65-14.9-11.96,1.82-19.88,1.59-31.79,4.13-11.8,2.52-209.15-6.36-235.29-7.81,38.96,8.69,138.11,6.98,112.94,15.64-30.64,10.55-165.01,6.93-218.53,5.4-104.74-3.01-398.86-14.69-203.31-33.14Z"/>
      <path class="cls-4" d="M1078.14,5530.64c61.68-5.81,272.09-5.23,348.99-5.6,130.42-.63,275.93.15,407.14.66,112.96.45,250.99,8.61,330.72-8.14-22.16-2.2-36.08-4.94-55.71-7-51.82-2.51-123.73-2.87-178.38-3.61,20.23,3.02,29.8,6.55,55.61,9.03-112.11-.65-214.25-1.59-324.32-2.92-74.55-.89-324.73,1.91-362.33,9.82-62.54-5.8-232.08-1.44-304.14.86-116.56,3.73-132.06,7.58-167.19,21.08.57.97.48,2.7,1.34,4.38-47.63,2.69-110.87,2.26-160.07-.35-3.29,1.18-6.51,2.35-9.64,3.53-72.75-2.28-136.73,3.34-200.18,3.14-87.91-.28-139.89-8.59-217.06-10.75-34.86-21.14,196.51-13.98,281.44-22.04-7.37-1.02-17.3-1.85-25.39-2.97,23.31-.16,22.56-.75,41.7.1,4.37-.73,7.23-1.59,8.62-2.56-77.41-7.1-233.73,3.15-325.68,5.61-86.98,2.34-212.38-.37-212.65,15.96-5.01.53-17.53.56-20.64.9,23.14,15.62,134.94,7.48,198.99,8.57,75.74,1.29,146.1,7.3,222.93,8.41,80.35,1.15,377.79-.68,412.93,9.47,5.95.29,11.91.57,17.88.86-2.82,2.17,1.5,3.36.43,5.54-14.07,1.06-31.56,2.43-43.06,3.33-83.5-1.09-193.94-6.58-289.17-5.36-49.35-2.55-115.62-2.28-165.48-1.29,47.65,6.97,125.16,2.74,185.87,3.94,60.94,1.19,124.3,5.47,193.64,6.86,109.8,2.2,278.7-5.96,395.85-4.27,41.51,15.81,247.52,2.53,338.27,1.65,111.98-1.08,303.86.32,362.36-16.14-67.88-2.4-112.66-8.89-167.65-14.9-11.96,1.82-19.88,1.59-31.79,4.13-11.79,2.52-209.15-6.36-235.29-7.81,38.96,8.69,138.11,6.98,112.94,15.64-30.64,10.55-165.01,6.93-218.53,5.4-104.74-3.01-398.86-14.69-203.31-33.14Z"/>
      <path class="cls-4" d="M57.84,5860.96c89.28-1.14,152.59-2.46,224.27,1.14,133.95-14.74,471.57-9.03,633.77-10.09,273.94-1.8,561.12-8.83,828.42-12.19,204.15-2.57,461.98,3.34,628.63-.15,178-3.75,347.05-15.1,536.54-13.26,6.2-1.61,24.38-13.28,24.65-14.65-230.39-.75-569.66-1.08-781.25-6.55-129.25-3.34-229.06-11.7-354.8-12.53-179.29-1.15-368.65,4.38-553.26,3.24-257.32,13.32-601.58-3.59-881.89-4.43-270.91-.8-568.39-4.58-834.09-4.63.62.2-29.53-5.96-26.13-5.63,133.45-9.69,246.93-2.57,391.72-6.33,170.31-4.4,231.09-11.02,453.85-12.57,201.06-1.4,407.79-4.93,607.48-8.54,521.92-9.43,997.56-26.47,1488.69-42.73,209.66-6.94,495.47-10.83,666.35-26.16-184.07-11.5-652.13,15.3-870.96,18.68-243.13,3.75-522.5,6.87-738.85,22.47-175.1,3.03-422.9-.2-518.96,17.84-8.64-.92-4.13-2.99-22.43-3.52,6.44.12-48.57,2.26-49.18,2.22-1.52-.03-26.87-3.91-28.37-4.04-54.53,5.72-81.08,4.01-98.14,4.25-6.1-.36-20.04,2.93-24.36,3.38-35.67-4.91-53.56-4.18-97.62-7.13-17.47,1.64-27.52,3.65-30.15,6-42.53.18-10.65-4.61-48.56,1.04-8.76-1.55-13.86-3.42-23.08-5.49-12.56.86-20.88,2.01-24.99,3.53-17.78-1.44-23.18-3.5-41.15-5.3-20.75.64-37.78,1.89-51.11,3.72-65.99-3.04-71.82-2.05-160,.82-322.08,14.54-669.25,18.53-944.4-3.21,198.71-17.02-35.96-21.29-156.31-28.77-21.53,1.48-45.77,3.47-67.92,5.05-15.13,13.12,82.84,21.52,204.68,21.46,1.91.62-11.8.82,4.95,1.01,6.36,1.84,25.16,11.57,26.19,13.96-115.47,12.17-276.6,6.43-346.85.77-202.07,19.56-818.94-11.06-1082.42-7,.14.05-8.18,1.07-12.12,1.24,6.31,1.35,23.01,3.34,26.71,4.74-38.38,7.4-61.51,13.71-132.91,18.04,219.94,1.08,379.11-9.06,607.15-6.29,166.8,2.04,690.69,24.34,885.31,26.1,4.91,32.98-697.79,1.59-885.63,1.36-179.39-.24-301.87,3.41-451.84,12.05,43.89,19.26,453.5,9.29,609.43,3.76,37.49-2.46,105.27-4.92,156.72-8.14,87.37,2.69,149.28-4.79,238.28-2.79-20.85,2.78-24.27,7.88-29.98,9.49-25.72,1.75-52.16,4.12-77.54,5.71,85.7,10.23,672.89-4.27,807.98-10.35,139.77,6.66,324.3,2.68,460.79.11,135.58,16.3,734.38,5.33,927.77,7.44,308.86,3.36,761.28-6.35,1034.38,4.16-387.54,16.8-1018.19.03-1342.1,25.57-510.3-14.5-975.82,37.02-1461.64,14.93-24.6,1.61-20.67,3.9-42.23,5.5-108.51-6.73-289.81-.47-434.29-3.09,4.64-1.88,26.55-3.41,30.28-4.86-197.12-5.95-410.54-1.58-637.31-1.37-190.18.17-428.18-8.1-604.18,4.45.21-.09.21-.19-.02-.28,190.07,5.99,901.17-2.21,945.79,10.15,58.75,2.33,97.33,4.39,148.87,7.74,586.15,10.46,1429.58,27.6,2069.65-.47-77.05-5.91-221.62-4.59-322.11-2.16,45.72-.57,6.58-.84-14.23.1l-363.91-8.55Z"/>
    </g>
  </g>
</svg>