<?xml version="1.0" encoding="UTF-8"?>
<svg id="Layer_1" data-name="Layer 1" xmlns="http://www.w3.org/2000/svg" viewBox="0 0 360 360">
  <defs>
    
  </defs>
  <path class="cls-1" d="M352.78,227.45c-4.97-.24-6.83-2-5.17-6.5-3.08.62-5.82,1.18-8.72,1.77.87-1.06,2.08-5.07,3.4-10.51-2.4,1.66-4.7,3.24-7.05,4.86-2.87-1.62-5.44-2.85-7.72-4.47-.69-.49-1.02-2.92-.79-3.04,2.43-1.24,5.05-3.12,7.53-3.01,2.66.13,5.28,1.37,8.73,2.7,3.92-17.1,8.45-44.16,8.1-44.95-2.62-5.91-22.99-36.47-25.67-35.7,1.65,2.9,3.3,5.8,4.95,8.71-.43.5-.86.99-1.29,1.49-2.42-1.85-4.84-3.69-9.15-6.98,2.01-1.19,3.81-2.25,5.62-3.33-3.96,1.05-7.93,2.11-12.4,3.31-.76-1.17-1.78-2.74-2.95-4.54,1.63-.37,2.51-.57,3.49-.79-1.45-1.36-2.79-2.62-3.59-3.38,1.33-2.62,3.57-5.6,3.04-6.21-3.04-3.53-6.73-6.5-9.92-9.41.58-.04,2.52-.18,4.46-.33.32-.55.65-1.09.97-1.64-5.32-3.98-10.64-7.96-15.96-11.94,7.33-.13,6.4-4.56,6.65-8.38-2.33.48-5.06.22-6.1,1.42-2.13,2.46-3.35,5.71-5.34,9.37-5.27-5.66-9.75-10.48-13.97-15.01-7.24,4.56,4,6.94,2.09,11.47-4.1-1.87-7.87-3.58-10.46-4.77,1.4-1.8,3.11-4,5.03-6.48-8.39-.79-15.63-1.47-23.13-2.18-.11-2.4.84-6.33-.7-8.42-1.79-2.43-5.76-3.26-7.96-4.37-5.55,2.07-10.64,3.98-16.23,6.07-.67-1.52-1.6-3.63-2.86-6.5,3.02.15,5.18.25,7.81.38.48-1.51,1.07-3.34,1.82-5.66-8.36,3.07-12.03.19-12.26-7.73-1.1.3-2.17.6-4.06,1.13.98-1.82,1.56-2.91,2.4-4.48-3.44,1.22-6.41,2.28-9.86,3.51,3.27,1.4,7.76,1.82,4.9,7.41-1.36-6.27-11.57-2.95-11.66-11.2-1.69-.1-3.9-.23-7.67-.45,2.76,2.05,4.36,3.23,6.02,4.46-5.35,1.32-10.54,2.61-15.54,3.85.69,2.98,1,4.34,1.32,5.69-1.22.27-2.44.54-3.96.88-.35-4.17-.64-7.67-.97-11.6-2.2,2.38-4.19,4.55-6.48,7.03-3.77-1.81-7.48-3.59-12.03-5.77-6.51,3.86-13.62,4.65-19.51-5.1,1.71-.77,3.77-1.42,5.49-2.56,1.74-1.15,3.15-2.8,5.06-4.56.09.02,1.01.26,1.93.49.52-.67,1.05-1.34,1.57-2.01-1.6-1.29-3.2-2.58-3.7-2.98-5.37,2.94-9.04,4.96-13.56,7.44.52-2.21.82-3.43,1.11-4.65-.7-.14-1.4-.27-2.1-.41-.62,4.53-1.25,9.07-1.87,13.6-.5-.02-.99-.04-1.49-.06-.15-1.94-.29-3.88-.42-5.57-2.57-.41-5.07-.81-8.6-1.37.65,2.4,1.43,4.17,1.52,5.97.06,1.3-.45,3.47-1.29,3.82-4.88,2.02-9.93,3.6-15.01,5.36-1.43-1.55-3.04-3.28-5.3-5.72-1.14,2.77-2.01,4.89-3.3,8.01-1.97-.72-4.56-1.1-6.38-2.49-1.76-1.34-2.74-3.72-3.6-4.96-1.24,1.9-2.57,3.93-3.56,5.45-1.94-4.56-3.55-8.34-5.15-12.11-.63,5.01-3.04,7.95-8.57,7.3.65,3.58-2.1,8.18,2.56,10.17,2.59-1.35,4.76-2.48,6.92-3.61.21.43.42.87.63,1.3-1.24,1.49-2.21,3.61-3.8,4.29-1.77.76-4.15.48-6.17.14-1.55-.26-2.97-1.31-4.45-2.02-.39.41-.78.82-1.16,1.23-1.5-4.27-3-8.55-4.51-12.82-4.22-3.15-8.44-6.3-12.67-9.45.81-.2,1.61-.4,2.42-.6.66-3.72,1.32-7.45,1.98-11.17-.55-.43-1.11-.85-1.66-1.28l-4.91,3.05c4.13,5.16-2.08,8.14-2.73,13.05,1.93-.17,3.6-.32,5.27-.47.38,2.18.73,4.23,1.21,6.96-3.45-1.36-6.33-2.49-9.19-3.62v11.47c-.91-.4-6,16.81-6.93,16.39-.73-.32-3.48-.1-6.31.09-2.83.19-5.73,13.67-6.73,13.22l-2.09,25.67c.34.4,18.24,8.71,18.58,9.11-1.33,2.42-2.66,4.83-4.62,8.39,3.32-.49,6.01-.89,9.87-1.45.22-.27,1.21-1.5,2.24-2.77,1.56.92,3.82,1.9,5.33,2.76v.03c.97.55,1.64,1.05,1.62,1.46-.08.57-.11,1.05-.09,1.47.18,4,4.64,1.5,4.75,1.31,3.37-5.63,8.28-3.89,13.12-3.19,2.27.33,3.79.86,4.62,1.79,1.05,1.2.95,3.05-.19,5.94.02,0,.03,0,.05-.01,0,.02-.01.03-.02.05,2.27-.59,4.28-1.11,5.87-1.52-.63-1.6-1.78-3.23-1.38-3.84.61-.94,2.26-1.2,3.7-1.84v4.86s.03,0,.04,0v.03c2.88,0,5.94.96,7.38-.16,3.18-2.47,4.97-2.96,6.02-2.28,1.33.94,1.4,3.83,1.6,6.91.09,1.36,1.8,2.61,2.76,3.91,0,0,0,0,.01-.01.01.02.03.04.04.06.4-.35.81-.71,1.21-1.06-.52-1.85-1.03-3.71-1.85-6.65,7.43.81,13.98,1.53,22,2.41-4.26,6.33-10.75,13.44-9.75,14.65s5.88-1.93,8.57-2.16c3.43-.29,6.12.54,8.41,1.98,1.65,1.05-5.07,1.55-3.71,3.03,2.27,2.47,12.47,6.14,14.87,8.39.58.55-3.04,7.64-2.26,7.99.81.37,1.48.76,2.04,1.18,2.98,2.34-2.96,18.17-3.97,19.32-.5.57-1,1.14-1.51,1.71.09-.75.14-1.51.04-2.3-.29-2.39,1.02-4.98.72-7.37-.27-2.16-.94-4.21-2.65-5.74-.88-.78-1.08-1.26-1.74-2.58.26-2.56,1.59-3.11,1.45-4.58-.06-.62-.06-1.25-.19-1.85-.27-1.26-.39-2.58-1.34-3.6-.53-.57-2.05-2.05-2.82-2.28-.76-.24-1.54-.47-2.32-.5-3.05-.09-5.76.86-8.06,2.91-1.17,1.04-1.41,1.62-1.2,3.32.07.58.82,1.6.86,1.77.18.69.41,1.42.35,2.12-.05.62-.01,1.18-.26,1.81.32.21.34.38.49.68.33.64.56,1.35.73,2.06.25,1.04.67,1.32,1.71.99.22-.07.43-.2.65-.24.31-.05.77-.15.9,0,.16.18.08.61.05.93-.02.22-.09.48-.23.65-.74.88-2.36,2.66-4.23,3.47-1.71.75-5.08.75-5.43.59-.35-.16-.69-.36-1.04-.53-1.41-.66-2.83-.8-4.28-.11-.46.22-.96.48-1.46.51-1.42.07-2.85,0-4.27.03-1.67.05-2.67-.7-3.3-2.26-.29-.71-1.03-1.23-1.55-1.85-.37-.44-.73-.89-1.1-1.34-.2-.24-.41-.47-.61-.71-.16.22-.35.41-.47.65-.21.43-.36.95-.98.77-.42-.12-.69.01-.91.22-2.05-1.66-4.13-3.29-6.28-4.83-5.61-4-14.33-8.93-18.03-9.81-.44-.1-2.02-.38-2.98-.47-1-.1-1.36,0-1.74-.09,0,0,.12.03.29.07,0,0-.4.87-.38,3.92.02,3.05-.22,31.81.08,33.45.24,1.29-.04,42.72-.14,66.19-.14.32-.19.65-.21.99-.01.29.02.54-.37.66-.17.05-.31.41-.35.64-.13.76.16,1.44.45,2.12.1.22.18.47.19.71.04,1.05.07,2.1.09,3.15-.05.55-.57,6.06-.46,7.42.11,1.43.02,2.17.32,3.51.3,1.34.58,2.4.58,2.4l-.65-3.44s-.18-3.12-.14-3.48c.04-.34.31-5.66.34-6.38,0,.17.01.34.01.5.03-.11.09-.23.1-.34.06-1,.09-2,.17-2.99.03-.36.11-.74.26-1.07.32-.7.56-1.4.46-2.17-.03-.2-.11-.51-.24-.55-.41-.13-.42-.4-.43-.74,0-.07-.02-.15-.03-.22.53-1.52.53-3.69.53-3.69l.97-46.98-.74-23.81-.32-12.51.14-9.51-.09-5.35-.04-2.41c.72.18,2.16.54,2.25.58,5.38,1.2,9.69,4.03,13.99,6.86,4.05,2.66,8,5.43,11.74,8.45-.02.22.18.75.36,1.05.57.93,1.22,1.8,1.81,2.71.39.6.87.93,1.63,1.02.58.07,1.17.19,1.74.34.03.03,3.07,2.92,3.31,3.29-.09.03-.18.06-.27.09-.26.09-.45.22-.57.37-.02.02-.03.04-.04.06-.09.14-.14.31-.14.5,0,.07.01.15.03.23.02.08.04.16.07.25.21.58.48,1.15.67,1.73.27.81.7,1.3,1.59,1.25.2-.01.43-.05.69-.12.13-.04.27-.07.41-.1.2-.05.41-.09.61-.13.25.33.41.54.41.54h0c-.51.34-1.36,2.32-1.53,2.94-.19.73-.44,6.7-.45,6.88-.11,1.34-.43,2.64-1.5,3.55-.77.65-1.59,1.26-2.46,1.74-1.21.67-2.5,1.21-3.77,1.81q.17,1.23,1.4,1.1c.59-.06,1.2-.06,1.78-.2.4-.09.79-.19,1.18-.29-.55.54-.83,1.03-.61,1.37,0,0,0,0,0,0,.01.04.03.08.05.12.24.37.77.61,1.46.76.96.32,2.24.57,3.54.74-.42.48-.83.97-1.23,1.47-5.3,1.06-10.59,2.14-15.28.92-2.07-.54-3.93.13-5.52,1.43,5.19-.13,10.74,1.06,15.28-.36.94-.29,2.14-.54,2.99-.22.16.06.33.11.49.17-.91.59-2.82,6.54-3.42,7.96-1.48,3.51-3.34,6.76-6.27,9.3-1.65,1.43-3.17,3.06-5.74,2-.06.08-.11.16-.17.24.14.49.12,1.19.45,1.43,2.03,1.55,4.59,1.92,6.87.51.81-.5,1.63-1.05,2.51-1.36,1.09-.38,2.25-.55,3.38-.8,1.21-.27,1.53-.75,1.48-2.02-.04-1.16-.11-2.35.07-3.49.27-1.67,1.25-3.06,2.23-4.39.84-1.14,5.81-7.33,5.89-7.44,7.53,1.52,15.3,2.37,21.1,8.47-2.43,1.15-4.74,2.25-8.66,4.1.08.03.16.05.24.07-.05.03-.1.05-.16.08,3.61,1.16,5.72,1.26,6.9,2.36,1.05.98,2.3,2.26,3.09,3.55.44.75.71,1.51.67,2.21-.24,4.6.5,8.88,2.43,12.26,1.69,3.05,4.34,5.39,8.09,6.63,8.24,2.72,14.18,7.33,19.44,14.02.32.41.61.8.86,1.18,1.78,2.75,1.96,5.05.29,7.89-1.44,2.45-3.46,4.56-5.03,6.94-2.41,3.63-5.15,7.16-6.86,11.12-2.34,5.43-5.63,9.1-11.8,9.05-3.87-.03-7.74-.61-11.61-.85-1.8-.11-3.63-.11-5.43,0-6.24.4-12.46,1.03-18.71,1.26-5.11.19-10.25-.43-15.34-.08-13.1.89-26.16,2.21-39.25,3.2-15.91,1.2-31.82,2.25-47.74,3.37.02.33.04.66.06,1h277.05c-24.59-2.99-49.27-4.7-73.9-6.95-5.68-.52-11.33-2.5-16.71-4.56-2.75-1.05-4.88-3.75-7.57-5.93,2.33-8.02,4.92-16.98,7.63-26.31-1.06-.66-2.17-1.12-2.98-1.89-4.08-3.87-4.52-8.94-.62-11.45,4.3-2.77,9.02-4.87,13.2-7.08.77,1.83,1.55,3.66,2.32,5.49.44-.23.89-.46,1.35-.65.58-3.99.59-7.69.7-11.37.02-.58.93-1.45,1.59-1.65,7.15-2.21,14.26-4.59,21.52-6.37,7.69-1.88,9.72-3.56,8.35-11.33-.61-3.44-4.07-6.35-6.14-9.56-1.44-2.24-3.06-4.48-3.89-6.95-.28-.83,1.9-3.55,2.49-3.41,2.32.55,4.95,1.39,6.55,3.02,4.96,5.07,9.66,10.42,14.09,15.95,1.35,1.68,1.51,4.3,2.41,7.07,2.21.43,5.52,1.07,9.3,1.81-5.17,3.9.95,4.07,2.24,6.13.9.75,1.79,1.5,2.69,2.24,1.65-.6,3.29-1.21,6.04-2.21-2.71-1.75-4.16-2.68-6.3-4.05,1.6-1.47,2.99-2.75,5.04-4.64,1.1,3.83,1.9,6.6,2.27,7.89,3.92,1.52,6.76,2.83,9.73,3.69,1.2.35,2.69-.29,4.05-.47.46-.43.92-.86,1.38-1.29,3.11-2.16,6.22-4.31,8.65-6,1.28,2.48,2.65,4.26,3.14,6.25,2.02,8.28,8.71,11.4,14.4,7.61,4.01,1.77,7.46,3.29,10.91,4.81.49-.54.98-1.09,1.47-1.63.65,2.66,1.3,5.33,1.72,7.04,2.78,2.5,5.46-.03,7.33-3.61-1.05-.48-2.1-.95-3.15-1.43,1.32-1.35,2.46-2.96,4-3.97.42-.28.88-.49,1.36-.68.58-2.57.54-4.56-.41-4.42-1.71-4.33,6.22-10.45-3.69-11.16,1.52-1.99,2.82-3.7,3.71-4.86,3.08.65,5.54,1.17,7.48,1.57-2.33-3.91-4.54-7.62-6.74-11.32.6-.47,1.2-.93,1.8-1.4,3.81,2.57,7.63,5.13,11.21,7.54,2.75.37,5.84.14,8.15,1.38,1.22.65,1.06,3.87,1.54,6.01,3.37-4.56.59-12.3-4.76-12.56ZM340.15,152.64c.1,2.14.22,4.42.28,5.79-3.57.24-6.47.43-9.73.65q1.1-8.18,9.45-6.44ZM37.44,108.74c-3.5,1.33-6.56,1.54-7.9,3.17l4.82-11.78c1.24-.37,2.16-3.31,2.36-5.16.17-1.57-.89-3.28-1.41-4.93,10.92-1.54,11.86,6.67,15.01,14.21-6.97-2.14-11.6-.4-12.88,4.5ZM257.9,90.24c-1.1,3.01-1.86,5.09-2.48,6.82-4.55-1.03-9.01-2.03-14.07-3.17,3.02-2.75,5.58-6.32,9.03-7.72,1.7-.69,5.02,2.63,7.52,4.08ZM239.76,82.41c.47-.35-.22-2.27-.37-3.47.59-.42,1.19-.84,1.78-1.26,1.84,2.92,3.68,5.84,6.29,9.98-3.19.98-6.23,2.84-7.28,2.05-2.16-1.61-4.14-4.54-.42-7.31ZM222.48,89.49h5.62c-.13,1.5-.24,2.82-.26,3.07,5.6,2.22,10.84,4.31,16.09,6.39-.15.64-.29,1.29-.44,1.93-2.54-.15-5.08-.31-7.62-.46-.04.35-.07.71-.11,1.06,3.5,2.02,7,4.04,10.5,6.06,0,.59,0,1.18,0,1.78-2.8.6-5.6,1.39-8.43,1.57-.38.02-.95-3.03-1.19-3.82-5.54-1.79-10.98-3.56-15.78-5.11.54-4.14,1.05-8.11,1.62-12.46ZM224.63,144.67v6.92c2.75-2.37,4.4-7.38,8.23-2.78,2.74,3.3,6.81,6.64.11,10.2-.44.23.08,2.27.26,5.14-2.01-2.89-3.11-4.47-3.28-4.7-1.14,3.99-2.44,8.57-3.75,13.16-3.71-2.18-7.73-4.01-10.94-6.77-.86-.74.72-4.33,1.29-7.13-.23-.11-1.51-.73-2.8-1.35-.8-.94-1.61-1.88-2.41-2.82,4.03-3,8.07-5.99,13.3-9.87ZM200.05,144,168.85,69.4c1.92-2.34,5.95-2.95,9.07-4.3.34.53.69,1.07,1.03,1.6-3.2,3.73-6.39,7.47-9.85,11.5-.19-3.14-1.63-7.13-.26-8.8ZM99.41,134.87c-.21-2.17,3.35-4.75,5.29-7.07.62-.74,1.53-1.23,2.01-1.6,6.59,3.06,12.38,5.75,18.61,8.64-1.31,1.82-2.57,3.56-2.99,4.15-5.43,0-9.81-.12-14.18.04-2.36.09-5,.25-6.77-.75-1.05-.62-1.79-1.66-1.96-3.4ZM143.96,235.02c.75-.11,1.51-.21,2.26-.32.48,3.96.97,7.93,1.52,12.43-7.34-1.66-7.94-4.82-3.78-12.11ZM160.49,153.05c-.2,1-1.1,2.54-1.77,2.59-.29.02-.61-.05-.93-.18-.7-.31-1.41-.88-1.84-1.44-3.95-5.18.11-15.22,7.31-16.82-.96,5.63-1.77,10.76-2.77,15.85ZM156.19,180.4c.23,1.94-2.66,4.25-4.17,6.4-1.91-1.61-3.84-3.24-6.82-5.75,2.67-3.44,4.55-5.87,6.43-8.3,1.66,2.53,4.23,4.95,4.55,7.65ZM149.26,159.18c-.58,2.3-1.17,4.6-1.75,6.9-.56.22-1.11.43-1.67.65-1.01-2.07-2.67-4.15-2.67-6.22,0-.98,3.21-1.96,5.01-2.94.36.54.72,1.08,1.09,1.63ZM145.33,186.62c.8.55,1.54,1.09,2.2,1.63,6.53,5.35,6.42,10.69,1.25,20.38-.65.06-1.29.11-1.94.17-.48-6.97-.95-13.96-1.51-22.18ZM156.43,163.74c3.17-3.23,6.31-2.84,9.71-1.3.77.36,1.55.77,2.35,1.21-3.27,4.37-5.16,6-7.4,4.92-1.31-.69-2.75-2.3-4.66-4.83ZM131.58,153.29c-1.98-2.78-2.11-6.56,1.95-9.36.91,2.44,1.96,3.75,3.12,4.29,2.47,1.26,5.42-1.06,8.53-3.39.09,6.19-.57,11.55-6.03,13.16-.8.23-1.91-.1-3.07-.74-1.71-.97-3.5-2.58-4.49-3.96ZM135.17,211.21c2.22-2.25,5.03-3.91,7.58-5.82.68.26,1.36.52,2.05.79-.73,4.59-1.19,9.26-2.4,13.72-.27,1.01-3.58,2.24-4.82,1.73-.59-.24-1.12-.68-1.58-1.25-1.94-2.52-2.6-7.36-.82-9.17ZM146.83,229.15c-.58-.61,1.32-3.6,1.78-4.74,4.94,1.41,8.98,2.36,12.86,3.72,6.63,2.32,7.25,5.87,2.76,10.33-3.33-.66-5.96-.57-7.86-1.7-3.48-2.09-6.76-4.67-9.55-7.6ZM128.7,85.33c.13-1.24.31-2.91.37-3.43,3.01-2.54,5.3-4.48,7.59-6.42-3.16-1.11-7.18,5.08-9.13.52,1.55-4.59,2.64-7.83,3.88-11.52,7.82-1.53,9.46-1,13.54,6.2.3-3.15.46-4.77.72-7.47,1.69.82,4.03,1.21,4.51,2.37.61,1.46.35,4.47-.68,5.19-3.55,2.49-7.59,4.27-11.45,6.32-2.4,3.81,3.32,8.34-1.04,11.98.55.49,1.04,1.23,1.67,1.39.42.1,1.36-.52,1.52-1.01.98-2.92,1.8-5.89,2.66-8.79h9.09c-.52,2.05-1.54,4.8-1.81,7.63-.14,1.52,1.02,3.16,1.59,4.74-.6-4.39-.07-7.87,6.01-7.46-.39,1.98-.68,3.51-1.03,5.27,3.32,1.27,6.93,1.88,9.5,3.86,2.55,1.96,4.1,5.26,5.91,8.08.2.3-.74,1.34-1.15,2.03-5.68-4.25-5.29,4.05-9.14,4.36-.63-.99-1.14-2.83-2.02-3.02-6.27-1.39-7.34-5.35-6.13-10.9.13-.6-1.37-1.57-2.12-2.36-.81,1.09-1.63,2.18-2.52,3.37.42.51,1.68,1.68,2.37,3.13.18.38-1.69,2.44-2.13,2.29-1.36-.46-2.66-1.46-3.67-2.54-2.53-2.69-4.95-3.54-7.55-.19-2.23,2.87-3.7,2.65-4.47-1.56-.78,2.09-1.39,3.75-2.04,5.5-2.93-3.32-5.68-6.44-8.55-9.7,1.53-1.79-2.4-8.72,5.71-7.84ZM86.21,92.42c8.6,1.5,8.74,2.23,2.67,12.94-.56-.23-1.11-.45-1.67-.68,1.12-2.75,2.24-5.5,3.36-8.25-.21-.25-.42-.49-.63-.74-1.88,1.55-3.77,3.1-5.65,4.65-.35-.18-.7-.35-1.05-.53.99-2.47,1.97-4.93,2.95-7.39ZM62.58,81.89c.47-.33.4-1.42.73-2.78,2.21.65,4.44,1.26,6.63,1.98,1.65.55,3.25,1.24,5.47,2.11,4.47,6.41-3.28,11.17-3.51,17.41-3.19-1.44-7.16-1.96-8.56-4.14-2.78-4.3-8.11-9.37-.75-14.58ZM119.07,196.89c.61-.2,1.25-.32,1.86-.52.56-.18.78.14.86.58.23,1.23.33,2.46-.33,3.67-1.3-.49-2.09-1.49-2.81-2.55-.38-.55-.22-.98.41-1.18ZM110.04,200.62s1.84.62,1.79.48c.34.99,1.89,7.66,2.21,8.66.22.68-.18,1.31-.79,1.54-1.2.45-2.4.92-3.6,1.38-.33-.04-.67-.12-1.04-.27-.51-.13-.79-.04-1.01.09-.11-.67.07-1.39-.08-2.19,0,0,2.42-8.65,2.52-9.68ZM102.85,194.32c-.11.03-.21.07-.32.1-.87-.95-1.56-1.72-1.65-1.84,0,0,0,0,0,0,1.97.48,4.39.62,5.45,1.85-.4-.03-.77,1.16-1.06.74-.83-1.18-1.02-1.24-2.42-.85ZM255.11,229.64c-.5.36-.99.71-1.49,1.07l-2.24-4.93c-.51.32-1.02.64-1.53.96v6.07c-5.08-5.08-9.32-9.32-14.34-14.34,6.16,0,10.67-.8,14.64.32,2.13.6,3.52,4.41,4.87,6.96.54,1.02.09,2.57.09,3.88ZM262.94,211.19c-2.34.96-4.52,1.84-7.09,2.89-.87-1.9-1.57-3.44-2.28-4.99-.4.28-.94.46-.98.72-.88,5.62-8.6,8.31-13.45,4.67-2.75-2.06-5.23-4.8-8.32-6-4.03-1.57-8.45-1.68-10.99,3.25-1.02,1.98-2.15,3.91-3.39,6.14-.2-.11-.4-.23-.59-.34-.15,2.22-.04,4.4,1.54,6.2.33.37.69.7,1.07,1.01.19-.15.38-.3.57-.45,2.65,1.69,5.8,2.95,7.78,5.22,1.31,1.51,1.17,4.47,1.21,6.79,0,.67-2.09,2.13-2.47,1.91-.06-.03-.13-.07-.19-.11-2.16,2.87-6.49,4.08-10.89,4.58-.49.18-1.02.34-1.64.46-3.75.76-7.51,1.61-11.14,2.79-1.61.52-3.06,1.59-5.41,3.05-1.45,1.48-2.98,2.88-4.5,4.13-.76.63-1.56,1.21-2.38,1.73-1.43,1.56-3.47,2.54-6.42,2.76-4.82.36-9.51,2.61-14.31,2.81-8.24.35-15.05-7.33-13.44-14.64.22-1,3.59-2.36,3.74-2.17,3.95,4.97,8.14,2.19,10.2-.91,1.79-2.68,2.18-7.42,1.14-10.58-1.36-4.15-4.53-7.36-10.15-7.24-6.94.15-8.85-3.41-6.88-10.04,1.38-4.65,1.87-9.57,3.16-14.26,1.05-3.8,3.83-11.14,3.83-11.14,3.72-2.68,5.32-7.9,9.6-9.66,4.52-1.85,11.7-.28,15.18-4.39,3.55-4.2-3.21-13.3.53-16.3,1.65-1.32,8.29,3.8,9.48,2.39,3.89-4.61,4.52-10.25,7.84-8.56,7.82,3.97,9.95,10.55,10.88,19.16-.19.09-.39.18-.58.27.96.66,1.94,1.3,2.94,1.92,4.81-2.48,7.02-.77,9.62,6.11,1.22,3.24,2.49,6.46,3.89,9.63.37.84,1.28,1.43,1.94,2.14.3-.25.6-.5.9-.76-1.28-3.84-2.59-7.68-3.85-11.53-2.27-6.93,1.86-11.69,9.29-10.92,1.04.11,2.18-.74,2.49.1,3.41,1.23,6.83,2.46,10.49,3.77,1.26-2.43,2.32-4.49,3.39-6.55.39.06.79.12,1.18.18-.5,3.35-.52,6.88-1.63,10.01-1.09,3.08-3.29,5.77-5.16,8.9,3.97.53,7.18.96,12.27,1.63-2.47,2.18-4.46,3.94-6.88,6.08,2.36-.43,4.8-.87,8.34-1.51-1.67,1.78-2.7,2.87-3.97,4.23,1.9.39,3.55.74,6.3,1.31-2,1.45-3.17,2.29-4.34,3.14.8,3.41,1.61,6.88,2.56,10.96ZM252.64,132.84c6.17,3.78,10.69.69,15.16-3.65.92,2.47,1.52,4.1,2.12,5.72.4-.64.8-1.28,1.2-1.92,2.34.16,5.01-.37,6.94.6,5.8,2.9,11.47,6.12,16.84,9.74,2.31,1.56,3.75,4.4,5.59,6.66-.42.61-.84,1.23-1.25,1.84-4.17-1.7-8.34-3.4-12.76-5.21-.26.86-.62,2.09-1.01,3.43-4.03-2.4-10.76-1.5-9.14-9.52-9.57,1.9-18.36,2.91-23.69-7.69ZM301.01,230.94c-4.35,3.23-4.48,3.05-.87,7.54-3.81.94-7.56,1.87-10.91,2.69-4.02-3.09-8.15-6.27-12.57-9.67-.39,1.91-.69,3.37-1.11,5.42-4.36-3.07-6.81-5.83-2.29-10.31,2.47,1.09,5.01,2.2,8.39,3.68-3.56-3.92-6.09-6.67-8.48-9.53-.06-.08,1.51-2.16,2.14-2.06,3.35.5,6.64,1.39,11.25,2.43,3.89-5.56,5.44,4.41,10.06,3.7.44-.9,1.06-2.2,1.86-3.85,1.51,1.93,3.32,3.42,3.91,5.3.42,1.32-.29,3.86-1.37,4.66Z"></path>
</svg>