<svg xmlns="http://www.w3.org/2000/svg" viewBox="0 0 1600 600" aria-hidden="true">
  <g fill="#f4eed6">
    <circle cx="38"   cy="48"  r="1.6" opacity="0.85"/>
    <circle cx="108"  cy="92"  r="1.0" opacity="0.55"/>
    <circle cx="178"  cy="34"  r="2.1" opacity="0.95"/>
    <circle cx="246"  cy="118" r="1.2" opacity="0.6"/>
    <circle cx="312"  cy="62"  r="1.6" opacity="0.8"/>
    <circle cx="384"  cy="28"  r="0.9" opacity="0.5"/>
    <circle cx="446"  cy="98"  r="1.9" opacity="0.9"/>
    <circle cx="512"  cy="48"  r="1.1" opacity="0.6"/>
    <circle cx="582"  cy="86"  r="1.5" opacity="0.75"/>
    <circle cx="652"  cy="30"  r="1.8" opacity="0.88"/>
    <circle cx="720"  cy="118" r="1.0" opacity="0.55"/>
    <circle cx="792"  cy="64"  r="1.4" opacity="0.7"/>
    <circle cx="858"  cy="22"  r="2.0" opacity="0.92"/>
    <circle cx="924"  cy="104" r="1.1" opacity="0.55"/>
    <circle cx="996"  cy="52"  r="1.6" opacity="0.78"/>
    <circle cx="1062" cy="92"  r="1.3" opacity="0.65"/>
    <circle cx="1134" cy="36"  r="1.0" opacity="0.55"/>
    <circle cx="1200" cy="118" r="1.7" opacity="0.85"/>
    <circle cx="1272" cy="68"  r="1.2" opacity="0.6"/>
    <circle cx="1338" cy="28"  r="1.5" opacity="0.78"/>
    <circle cx="1408" cy="98"  r="1.0" opacity="0.55"/>
    <circle cx="1476" cy="44"  r="1.9" opacity="0.88"/>
    <circle cx="1548" cy="88"  r="1.1" opacity="0.6"/>

    <circle cx="64"   cy="174" r="1.2" opacity="0.6"/>
    <circle cx="134"  cy="214" r="1.7" opacity="0.82"/>
    <circle cx="206"  cy="182" r="1.0" opacity="0.55"/>
    <circle cx="278"  cy="236" r="1.5" opacity="0.74"/>
    <circle cx="348"  cy="192" r="2.0" opacity="0.92"/>
    <circle cx="420"  cy="226" r="0.9" opacity="0.5"/>
    <circle cx="490"  cy="172" r="1.3" opacity="0.65"/>
    <circle cx="560"  cy="208" r="1.6" opacity="0.8"/>
    <circle cx="632"  cy="238" r="1.0" opacity="0.55"/>
    <circle cx="704"  cy="180" r="1.8" opacity="0.86"/>
    <circle cx="776"  cy="222" r="1.1" opacity="0.6"/>
    <circle cx="846"  cy="192" r="1.5" opacity="0.75"/>
    <circle cx="918"  cy="232" r="1.0" opacity="0.55"/>
    <circle cx="988"  cy="178" r="1.7" opacity="0.82"/>
    <circle cx="1058" cy="218" r="1.2" opacity="0.6"/>
    <circle cx="1128" cy="186" r="1.4" opacity="0.7"/>
    <circle cx="1198" cy="234" r="1.0" opacity="0.55"/>
    <circle cx="1270" cy="196" r="1.9" opacity="0.88"/>
    <circle cx="1342" cy="222" r="1.1" opacity="0.6"/>
    <circle cx="1412" cy="170" r="1.4" opacity="0.7"/>
    <circle cx="1484" cy="218" r="1.7" opacity="0.82"/>
    <circle cx="1556" cy="190" r="1.0" opacity="0.55"/>

    <circle cx="42"   cy="318" r="1.1" opacity="0.55"/>
    <circle cx="116"  cy="346" r="1.5" opacity="0.74"/>
    <circle cx="186"  cy="304" r="1.0" opacity="0.5"/>
    <circle cx="258"  cy="358" r="1.7" opacity="0.82"/>
    <circle cx="328"  cy="320" r="1.0" opacity="0.55"/>
    <circle cx="400"  cy="346" r="1.4" opacity="0.7"/>
    <circle cx="472"  cy="312" r="1.0" opacity="0.55"/>
    <circle cx="544"  cy="354" r="1.6" opacity="0.78"/>
    <circle cx="614"  cy="318" r="1.0" opacity="0.5"/>
    <circle cx="686"  cy="344" r="1.3" opacity="0.65"/>
    <circle cx="758"  cy="308" r="1.1" opacity="0.6"/>
    <circle cx="830"  cy="358" r="1.5" opacity="0.74"/>
    <circle cx="902"  cy="316" r="1.0" opacity="0.55"/>
    <circle cx="972"  cy="344" r="1.7" opacity="0.82"/>
    <circle cx="1044" cy="306" r="1.1" opacity="0.6"/>
    <circle cx="1116" cy="354" r="1.4" opacity="0.7"/>
    <circle cx="1188" cy="322" r="1.0" opacity="0.55"/>
    <circle cx="1260" cy="346" r="1.2" opacity="0.62"/>
    <circle cx="1332" cy="304" r="1.5" opacity="0.74"/>
    <circle cx="1404" cy="354" r="1.0" opacity="0.55"/>
    <circle cx="1476" cy="318" r="1.6" opacity="0.78"/>
    <circle cx="1548" cy="342" r="1.0" opacity="0.55"/>

    <circle cx="76"   cy="442" r="1.0" opacity="0.5"/>
    <circle cx="208"  cy="468" r="1.2" opacity="0.6"/>
    <circle cx="342"  cy="438" r="1.0" opacity="0.55"/>
    <circle cx="476"  cy="472" r="1.4" opacity="0.7"/>
    <circle cx="608"  cy="436" r="1.0" opacity="0.5"/>
    <circle cx="744"  cy="470" r="1.3" opacity="0.65"/>
    <circle cx="876"  cy="440" r="1.0" opacity="0.55"/>
    <circle cx="1008" cy="466" r="1.2" opacity="0.6"/>
    <circle cx="1142" cy="438" r="1.0" opacity="0.55"/>
    <circle cx="1276" cy="470" r="1.3" opacity="0.65"/>
    <circle cx="1408" cy="442" r="1.0" opacity="0.55"/>
    <circle cx="1538" cy="466" r="1.1" opacity="0.58"/>
  </g>
</svg>
